G04 EAGLE Gerber RS-274X export*
G75*
%MOMM*%
%FSLAX34Y34*%
%LPD*%
%INTop Copper*%
%IPPOS*%
%AMOC8*
5,1,8,0,0,1.08239X$1,22.5*%
G01*
%ADD10C,0.400000*%
%ADD11R,1.300000X1.500000*%
%ADD12R,2.700000X1.600000*%
%ADD13R,1.500000X1.300000*%
%ADD14R,0.435000X1.500000*%
%ADD15R,1.800000X1.000000*%
%ADD16P,1.429621X8X22.500000*%
%ADD17R,1.930400X3.810000*%
%ADD18C,0.406400*%
%ADD19C,0.812800*%
%ADD20C,2.000000*%
%ADD21C,0.609600*%

G36*
X739098Y10164D02*
X739098Y10164D01*
X739117Y10162D01*
X739219Y10184D01*
X739321Y10200D01*
X739338Y10210D01*
X739358Y10214D01*
X739447Y10267D01*
X739538Y10316D01*
X739552Y10330D01*
X739569Y10340D01*
X739636Y10419D01*
X739708Y10494D01*
X739716Y10512D01*
X739729Y10527D01*
X739768Y10623D01*
X739811Y10717D01*
X739813Y10737D01*
X739821Y10755D01*
X739839Y10922D01*
X739839Y339078D01*
X739836Y339098D01*
X739838Y339117D01*
X739816Y339219D01*
X739800Y339321D01*
X739790Y339338D01*
X739786Y339358D01*
X739733Y339447D01*
X739684Y339538D01*
X739670Y339552D01*
X739660Y339569D01*
X739581Y339636D01*
X739506Y339708D01*
X739488Y339716D01*
X739473Y339729D01*
X739377Y339768D01*
X739283Y339811D01*
X739263Y339813D01*
X739245Y339821D01*
X739078Y339839D01*
X10922Y339839D01*
X10902Y339836D01*
X10883Y339838D01*
X10781Y339816D01*
X10679Y339800D01*
X10662Y339790D01*
X10642Y339786D01*
X10553Y339733D01*
X10462Y339684D01*
X10448Y339670D01*
X10431Y339660D01*
X10364Y339581D01*
X10292Y339506D01*
X10284Y339488D01*
X10271Y339473D01*
X10232Y339377D01*
X10189Y339283D01*
X10187Y339263D01*
X10179Y339245D01*
X10161Y339078D01*
X10161Y10922D01*
X10164Y10902D01*
X10162Y10883D01*
X10184Y10781D01*
X10200Y10679D01*
X10210Y10662D01*
X10214Y10642D01*
X10267Y10553D01*
X10316Y10462D01*
X10330Y10448D01*
X10340Y10431D01*
X10419Y10364D01*
X10494Y10292D01*
X10512Y10284D01*
X10527Y10271D01*
X10623Y10232D01*
X10717Y10189D01*
X10737Y10187D01*
X10755Y10179D01*
X10922Y10161D01*
X739078Y10161D01*
X739098Y10164D01*
G37*
%LPC*%
G36*
X243277Y23449D02*
X243277Y23449D01*
X240347Y26379D01*
X240347Y68621D01*
X243277Y71551D01*
X245174Y71551D01*
X245194Y71554D01*
X245213Y71552D01*
X245315Y71574D01*
X245417Y71590D01*
X245434Y71600D01*
X245454Y71604D01*
X245543Y71657D01*
X245634Y71706D01*
X245648Y71720D01*
X245665Y71730D01*
X245732Y71809D01*
X245804Y71884D01*
X245812Y71902D01*
X245825Y71917D01*
X245864Y72013D01*
X245907Y72107D01*
X245909Y72127D01*
X245917Y72145D01*
X245935Y72312D01*
X245935Y74303D01*
X247315Y77635D01*
X257566Y87885D01*
X257578Y87902D01*
X257593Y87914D01*
X257649Y88001D01*
X257709Y88085D01*
X257715Y88104D01*
X257726Y88121D01*
X257751Y88221D01*
X257782Y88320D01*
X257781Y88340D01*
X257786Y88359D01*
X257778Y88462D01*
X257775Y88566D01*
X257769Y88585D01*
X257767Y88605D01*
X257727Y88700D01*
X257691Y88797D01*
X257679Y88813D01*
X257671Y88831D01*
X257566Y88962D01*
X254599Y91929D01*
X254599Y109071D01*
X254990Y109462D01*
X255001Y109478D01*
X255017Y109490D01*
X255073Y109577D01*
X255133Y109661D01*
X255139Y109680D01*
X255150Y109697D01*
X255175Y109798D01*
X255206Y109897D01*
X255205Y109916D01*
X255210Y109936D01*
X255202Y110039D01*
X255199Y110142D01*
X255192Y110161D01*
X255191Y110181D01*
X255150Y110276D01*
X255115Y110373D01*
X255102Y110389D01*
X255094Y110407D01*
X254990Y110538D01*
X254599Y110929D01*
X254599Y128071D01*
X257529Y131001D01*
X259559Y131001D01*
X259674Y131020D01*
X259790Y131037D01*
X259796Y131039D01*
X259802Y131040D01*
X259905Y131095D01*
X260010Y131148D01*
X260014Y131153D01*
X260020Y131156D01*
X260099Y131240D01*
X260182Y131324D01*
X260185Y131330D01*
X260189Y131334D01*
X260197Y131351D01*
X260263Y131471D01*
X261138Y133584D01*
X278516Y150962D01*
X281101Y152033D01*
X302038Y152033D01*
X302058Y152036D01*
X302077Y152034D01*
X302179Y152056D01*
X302281Y152072D01*
X302298Y152082D01*
X302318Y152086D01*
X302407Y152139D01*
X302498Y152188D01*
X302512Y152202D01*
X302529Y152212D01*
X302596Y152291D01*
X302668Y152366D01*
X302676Y152384D01*
X302689Y152399D01*
X302728Y152495D01*
X302771Y152589D01*
X302773Y152609D01*
X302781Y152627D01*
X302799Y152794D01*
X302799Y169471D01*
X303190Y169862D01*
X303201Y169878D01*
X303217Y169890D01*
X303273Y169977D01*
X303333Y170061D01*
X303339Y170080D01*
X303350Y170097D01*
X303375Y170198D01*
X303406Y170297D01*
X303405Y170316D01*
X303410Y170336D01*
X303402Y170439D01*
X303399Y170542D01*
X303392Y170561D01*
X303391Y170581D01*
X303350Y170676D01*
X303315Y170773D01*
X303302Y170789D01*
X303294Y170807D01*
X303190Y170938D01*
X302799Y171329D01*
X302799Y188471D01*
X302964Y188636D01*
X303005Y188694D01*
X303055Y188746D01*
X303077Y188793D01*
X303107Y188835D01*
X303128Y188904D01*
X303158Y188969D01*
X303164Y189021D01*
X303180Y189071D01*
X303178Y189142D01*
X303186Y189213D01*
X303175Y189264D01*
X303173Y189316D01*
X303149Y189384D01*
X303133Y189454D01*
X303107Y189499D01*
X303089Y189547D01*
X303044Y189603D01*
X303007Y189665D01*
X302968Y189699D01*
X302935Y189739D01*
X302875Y189778D01*
X302820Y189825D01*
X302772Y189844D01*
X302728Y189872D01*
X302659Y189890D01*
X302592Y189917D01*
X302521Y189925D01*
X302490Y189933D01*
X302466Y189931D01*
X302425Y189935D01*
X266697Y189935D01*
X263365Y191315D01*
X242615Y212065D01*
X241235Y215397D01*
X241235Y220138D01*
X241232Y220158D01*
X241234Y220177D01*
X241212Y220279D01*
X241196Y220381D01*
X241186Y220398D01*
X241182Y220418D01*
X241129Y220507D01*
X241080Y220598D01*
X241066Y220612D01*
X241056Y220629D01*
X240977Y220696D01*
X240902Y220768D01*
X240884Y220776D01*
X240869Y220789D01*
X240773Y220828D01*
X240679Y220871D01*
X240659Y220873D01*
X240641Y220881D01*
X240474Y220899D01*
X234729Y220899D01*
X231799Y223829D01*
X231799Y243971D01*
X234729Y246901D01*
X265871Y246901D01*
X268801Y243971D01*
X268801Y223829D01*
X265871Y220899D01*
X261258Y220899D01*
X261187Y220888D01*
X261116Y220886D01*
X261067Y220868D01*
X261015Y220860D01*
X260952Y220826D01*
X260885Y220801D01*
X260844Y220769D01*
X260798Y220744D01*
X260749Y220692D01*
X260693Y220648D01*
X260664Y220604D01*
X260629Y220566D01*
X260598Y220501D01*
X260560Y220441D01*
X260547Y220390D01*
X260525Y220343D01*
X260517Y220272D01*
X260499Y220202D01*
X260504Y220150D01*
X260498Y220099D01*
X260513Y220028D01*
X260519Y219957D01*
X260539Y219909D01*
X260550Y219858D01*
X260587Y219797D01*
X260615Y219731D01*
X260660Y219675D01*
X260676Y219647D01*
X260694Y219632D01*
X260720Y219600D01*
X272032Y208288D01*
X272106Y208235D01*
X272175Y208175D01*
X272205Y208163D01*
X272232Y208144D01*
X272318Y208117D01*
X272403Y208083D01*
X272444Y208079D01*
X272467Y208072D01*
X272499Y208073D01*
X272570Y208065D01*
X312278Y208065D01*
X312349Y208076D01*
X312420Y208078D01*
X312469Y208096D01*
X312521Y208104D01*
X312584Y208138D01*
X312651Y208163D01*
X312692Y208195D01*
X312738Y208220D01*
X312787Y208272D01*
X312843Y208316D01*
X312872Y208360D01*
X312907Y208398D01*
X312938Y208463D01*
X312976Y208523D01*
X312989Y208574D01*
X313011Y208621D01*
X313019Y208692D01*
X313037Y208762D01*
X313032Y208814D01*
X313038Y208865D01*
X313023Y208936D01*
X313017Y209007D01*
X312997Y209055D01*
X312986Y209106D01*
X312949Y209167D01*
X312921Y209233D01*
X312876Y209289D01*
X312860Y209317D01*
X312842Y209332D01*
X312839Y209338D01*
X312834Y209342D01*
X312816Y209364D01*
X303615Y218565D01*
X302636Y220929D01*
X302574Y221029D01*
X302515Y221129D01*
X302510Y221133D01*
X302506Y221138D01*
X302416Y221213D01*
X302328Y221289D01*
X302322Y221291D01*
X302317Y221295D01*
X302209Y221337D01*
X302099Y221381D01*
X302092Y221382D01*
X302087Y221383D01*
X302069Y221384D01*
X301933Y221399D01*
X295729Y221399D01*
X292799Y224329D01*
X292799Y244471D01*
X295729Y247401D01*
X326871Y247401D01*
X329801Y244471D01*
X329801Y224826D01*
X329803Y224809D01*
X329802Y224794D01*
X329802Y224791D01*
X329802Y224787D01*
X329824Y224685D01*
X329840Y224583D01*
X329850Y224566D01*
X329854Y224546D01*
X329907Y224457D01*
X329956Y224366D01*
X329970Y224352D01*
X329980Y224335D01*
X330059Y224268D01*
X330134Y224196D01*
X330152Y224188D01*
X330167Y224175D01*
X330263Y224136D01*
X330357Y224093D01*
X330377Y224091D01*
X330395Y224083D01*
X330562Y224065D01*
X341803Y224065D01*
X345135Y222685D01*
X345564Y222256D01*
X345638Y222203D01*
X345707Y222143D01*
X345737Y222131D01*
X345764Y222112D01*
X345850Y222085D01*
X345935Y222051D01*
X345976Y222047D01*
X345999Y222040D01*
X346031Y222041D01*
X346102Y222033D01*
X353399Y222033D01*
X355984Y220962D01*
X358069Y218877D01*
X363636Y213310D01*
X363694Y213268D01*
X363746Y213219D01*
X363793Y213197D01*
X363835Y213167D01*
X363904Y213145D01*
X363969Y213115D01*
X364021Y213109D01*
X364071Y213094D01*
X364142Y213096D01*
X364213Y213088D01*
X364264Y213099D01*
X364316Y213101D01*
X364384Y213125D01*
X364454Y213140D01*
X364498Y213167D01*
X364547Y213185D01*
X364603Y213230D01*
X364665Y213267D01*
X364699Y213306D01*
X364739Y213339D01*
X364778Y213399D01*
X364825Y213453D01*
X364844Y213502D01*
X364872Y213546D01*
X364890Y213615D01*
X364917Y213682D01*
X364925Y213753D01*
X364933Y213784D01*
X364931Y213807D01*
X364935Y213848D01*
X364935Y227338D01*
X364932Y227358D01*
X364934Y227377D01*
X364912Y227479D01*
X364896Y227581D01*
X364886Y227598D01*
X364882Y227618D01*
X364829Y227707D01*
X364780Y227798D01*
X364766Y227812D01*
X364756Y227829D01*
X364677Y227896D01*
X364602Y227968D01*
X364584Y227976D01*
X364569Y227989D01*
X364473Y228028D01*
X364379Y228071D01*
X364359Y228073D01*
X364341Y228081D01*
X364174Y228099D01*
X362229Y228099D01*
X359840Y230488D01*
X359785Y230528D01*
X359736Y230575D01*
X359686Y230599D01*
X359640Y230632D01*
X359575Y230652D01*
X359514Y230681D01*
X359459Y230688D01*
X359405Y230704D01*
X359337Y230702D01*
X359270Y230710D01*
X359192Y230699D01*
X359159Y230698D01*
X359139Y230691D01*
X359104Y230685D01*
X358634Y230559D01*
X353323Y230559D01*
X353323Y239838D01*
X353320Y239858D01*
X353322Y239877D01*
X353300Y239979D01*
X353283Y240081D01*
X353274Y240098D01*
X353270Y240118D01*
X353217Y240207D01*
X353168Y240298D01*
X353154Y240312D01*
X353144Y240329D01*
X353065Y240396D01*
X352990Y240467D01*
X352972Y240476D01*
X352957Y240489D01*
X352861Y240528D01*
X352767Y240571D01*
X352747Y240573D01*
X352729Y240581D01*
X352562Y240599D01*
X351799Y240599D01*
X351799Y240601D01*
X352562Y240601D01*
X352582Y240604D01*
X352601Y240602D01*
X352703Y240624D01*
X352805Y240641D01*
X352822Y240650D01*
X352842Y240654D01*
X352931Y240707D01*
X353022Y240756D01*
X353036Y240770D01*
X353053Y240780D01*
X353120Y240859D01*
X353191Y240934D01*
X353200Y240952D01*
X353213Y240967D01*
X353252Y241063D01*
X353295Y241157D01*
X353297Y241177D01*
X353305Y241195D01*
X353323Y241362D01*
X353323Y250641D01*
X358634Y250641D01*
X359104Y250515D01*
X359172Y250508D01*
X359237Y250492D01*
X359293Y250496D01*
X359349Y250490D01*
X359415Y250505D01*
X359482Y250511D01*
X359534Y250533D01*
X359589Y250545D01*
X359647Y250581D01*
X359709Y250607D01*
X359771Y250656D01*
X359799Y250674D01*
X359812Y250690D01*
X359840Y250712D01*
X362229Y253101D01*
X368934Y253101D01*
X368954Y253104D01*
X368973Y253102D01*
X369075Y253124D01*
X369177Y253140D01*
X369194Y253150D01*
X369214Y253154D01*
X369303Y253207D01*
X369394Y253256D01*
X369408Y253270D01*
X369425Y253280D01*
X369492Y253359D01*
X369564Y253434D01*
X369572Y253452D01*
X369585Y253467D01*
X369624Y253563D01*
X369667Y253657D01*
X369669Y253677D01*
X369677Y253695D01*
X369695Y253862D01*
X369695Y257807D01*
X372012Y260124D01*
X372065Y260198D01*
X372125Y260267D01*
X372137Y260297D01*
X372156Y260324D01*
X372183Y260411D01*
X372217Y260495D01*
X372221Y260536D01*
X372228Y260559D01*
X372227Y260591D01*
X372235Y260662D01*
X372235Y265838D01*
X372221Y265928D01*
X372213Y266019D01*
X372201Y266049D01*
X372196Y266081D01*
X372153Y266161D01*
X372117Y266245D01*
X372091Y266277D01*
X372080Y266298D01*
X372057Y266320D01*
X372012Y266376D01*
X369695Y268693D01*
X369695Y278307D01*
X371038Y279650D01*
X371080Y279708D01*
X371129Y279760D01*
X371151Y279807D01*
X371182Y279849D01*
X371203Y279918D01*
X371233Y279983D01*
X371239Y280035D01*
X371254Y280085D01*
X371252Y280156D01*
X371260Y280227D01*
X371249Y280278D01*
X371248Y280330D01*
X371223Y280398D01*
X371208Y280468D01*
X371181Y280513D01*
X371163Y280561D01*
X371118Y280617D01*
X371082Y280679D01*
X371042Y280713D01*
X371010Y280753D01*
X370949Y280792D01*
X370895Y280839D01*
X370882Y280844D01*
X367847Y283879D01*
X367847Y326121D01*
X370777Y329051D01*
X394223Y329051D01*
X397153Y326121D01*
X397153Y283879D01*
X394223Y280949D01*
X392100Y280949D01*
X392029Y280938D01*
X391958Y280936D01*
X391909Y280918D01*
X391857Y280910D01*
X391794Y280876D01*
X391727Y280851D01*
X391686Y280819D01*
X391640Y280794D01*
X391591Y280742D01*
X391535Y280698D01*
X391506Y280654D01*
X391471Y280616D01*
X391440Y280551D01*
X391402Y280491D01*
X391389Y280440D01*
X391367Y280393D01*
X391359Y280322D01*
X391342Y280252D01*
X391346Y280200D01*
X391340Y280149D01*
X391355Y280078D01*
X391361Y280007D01*
X391381Y279959D01*
X391392Y279908D01*
X391429Y279847D01*
X391457Y279781D01*
X391502Y279725D01*
X391518Y279697D01*
X391536Y279682D01*
X391562Y279650D01*
X392905Y278307D01*
X392905Y268693D01*
X390588Y266376D01*
X390535Y266302D01*
X390475Y266233D01*
X390463Y266203D01*
X390444Y266176D01*
X390417Y266089D01*
X390383Y266005D01*
X390379Y265964D01*
X390372Y265941D01*
X390373Y265909D01*
X390365Y265838D01*
X390365Y260662D01*
X390379Y260572D01*
X390387Y260481D01*
X390399Y260451D01*
X390404Y260419D01*
X390447Y260339D01*
X390483Y260255D01*
X390509Y260223D01*
X390520Y260202D01*
X390543Y260180D01*
X390588Y260124D01*
X392905Y257807D01*
X392905Y254688D01*
X392916Y254618D01*
X392918Y254546D01*
X392936Y254497D01*
X392944Y254446D01*
X392978Y254382D01*
X393003Y254315D01*
X393035Y254274D01*
X393060Y254228D01*
X393112Y254179D01*
X393156Y254123D01*
X393200Y254095D01*
X393238Y254059D01*
X393303Y254029D01*
X393363Y253990D01*
X393414Y253977D01*
X393461Y253955D01*
X393532Y253947D01*
X393602Y253930D01*
X393654Y253934D01*
X393705Y253928D01*
X393776Y253943D01*
X393847Y253949D01*
X393895Y253969D01*
X393946Y253980D01*
X394007Y254017D01*
X394073Y254045D01*
X394129Y254090D01*
X394157Y254107D01*
X394172Y254124D01*
X394204Y254150D01*
X417744Y277690D01*
X417797Y277764D01*
X417857Y277834D01*
X417869Y277864D01*
X417888Y277890D01*
X417915Y277977D01*
X417949Y278062D01*
X417953Y278103D01*
X417960Y278125D01*
X417959Y278157D01*
X417967Y278228D01*
X417967Y280188D01*
X417964Y280208D01*
X417966Y280227D01*
X417944Y280329D01*
X417928Y280431D01*
X417918Y280448D01*
X417914Y280468D01*
X417861Y280557D01*
X417812Y280648D01*
X417798Y280662D01*
X417788Y280679D01*
X417709Y280746D01*
X417634Y280818D01*
X417616Y280826D01*
X417601Y280839D01*
X417505Y280878D01*
X417411Y280921D01*
X417391Y280923D01*
X417373Y280931D01*
X417206Y280949D01*
X413277Y280949D01*
X410347Y283879D01*
X410347Y326121D01*
X413277Y329051D01*
X436723Y329051D01*
X438212Y327562D01*
X438228Y327551D01*
X438240Y327535D01*
X438328Y327479D01*
X438411Y327419D01*
X438430Y327413D01*
X438447Y327402D01*
X438548Y327377D01*
X438647Y327346D01*
X438666Y327347D01*
X438686Y327342D01*
X438789Y327350D01*
X438892Y327353D01*
X438911Y327360D01*
X438931Y327361D01*
X439026Y327402D01*
X439123Y327437D01*
X439139Y327450D01*
X439157Y327458D01*
X439288Y327562D01*
X440777Y329051D01*
X464223Y329051D01*
X465712Y327562D01*
X465728Y327551D01*
X465740Y327535D01*
X465828Y327479D01*
X465911Y327419D01*
X465930Y327413D01*
X465947Y327402D01*
X466048Y327377D01*
X466147Y327346D01*
X466166Y327347D01*
X466186Y327342D01*
X466289Y327350D01*
X466392Y327353D01*
X466411Y327360D01*
X466431Y327361D01*
X466526Y327402D01*
X466623Y327437D01*
X466639Y327450D01*
X466657Y327458D01*
X466788Y327562D01*
X468277Y329051D01*
X491723Y329051D01*
X493212Y327562D01*
X493228Y327551D01*
X493240Y327535D01*
X493328Y327479D01*
X493411Y327419D01*
X493430Y327413D01*
X493447Y327402D01*
X493548Y327377D01*
X493647Y327346D01*
X493666Y327347D01*
X493686Y327342D01*
X493789Y327350D01*
X493892Y327353D01*
X493911Y327360D01*
X493931Y327361D01*
X494026Y327402D01*
X494123Y327437D01*
X494139Y327450D01*
X494157Y327458D01*
X494288Y327562D01*
X495777Y329051D01*
X519223Y329051D01*
X520712Y327562D01*
X520728Y327551D01*
X520740Y327535D01*
X520828Y327479D01*
X520911Y327419D01*
X520930Y327413D01*
X520947Y327402D01*
X521048Y327377D01*
X521147Y327346D01*
X521166Y327347D01*
X521186Y327342D01*
X521289Y327350D01*
X521392Y327353D01*
X521411Y327360D01*
X521431Y327361D01*
X521526Y327402D01*
X521623Y327437D01*
X521639Y327450D01*
X521657Y327458D01*
X521788Y327562D01*
X523277Y329051D01*
X546723Y329051D01*
X549685Y326089D01*
X549692Y326043D01*
X549726Y325980D01*
X549751Y325912D01*
X549783Y325872D01*
X549808Y325826D01*
X549859Y325776D01*
X549904Y325720D01*
X549948Y325692D01*
X549986Y325656D01*
X550051Y325626D01*
X550111Y325587D01*
X550162Y325574D01*
X550209Y325553D01*
X550280Y325545D01*
X550350Y325527D01*
X550402Y325531D01*
X550453Y325525D01*
X550524Y325541D01*
X550595Y325546D01*
X550643Y325567D01*
X550694Y325578D01*
X550755Y325615D01*
X550821Y325643D01*
X550877Y325687D01*
X550905Y325704D01*
X550920Y325722D01*
X550952Y325747D01*
X551288Y326083D01*
X551867Y326418D01*
X552514Y326591D01*
X560977Y326591D01*
X560977Y305762D01*
X560980Y305742D01*
X560978Y305723D01*
X561000Y305621D01*
X561017Y305519D01*
X561026Y305502D01*
X561030Y305482D01*
X561083Y305393D01*
X561132Y305302D01*
X561146Y305288D01*
X561156Y305271D01*
X561235Y305204D01*
X561310Y305133D01*
X561328Y305124D01*
X561343Y305111D01*
X561439Y305072D01*
X561533Y305029D01*
X561553Y305027D01*
X561571Y305019D01*
X561738Y305001D01*
X562501Y305001D01*
X562501Y304999D01*
X561738Y304999D01*
X561718Y304996D01*
X561699Y304998D01*
X561597Y304976D01*
X561495Y304959D01*
X561478Y304950D01*
X561458Y304946D01*
X561369Y304893D01*
X561278Y304844D01*
X561264Y304830D01*
X561247Y304820D01*
X561180Y304741D01*
X561109Y304666D01*
X561100Y304648D01*
X561087Y304633D01*
X561048Y304537D01*
X561005Y304443D01*
X561003Y304423D01*
X560995Y304405D01*
X560977Y304238D01*
X560977Y283409D01*
X552514Y283409D01*
X551867Y283582D01*
X551288Y283917D01*
X550952Y284253D01*
X550894Y284294D01*
X550842Y284344D01*
X550795Y284366D01*
X550753Y284396D01*
X550684Y284417D01*
X550619Y284447D01*
X550567Y284453D01*
X550517Y284469D01*
X550446Y284467D01*
X550375Y284475D01*
X550324Y284463D01*
X550272Y284462D01*
X550204Y284438D01*
X550134Y284422D01*
X550089Y284396D01*
X550041Y284378D01*
X549985Y284333D01*
X549923Y284296D01*
X549889Y284257D01*
X549849Y284224D01*
X549810Y284164D01*
X549763Y284109D01*
X549744Y284061D01*
X549716Y284017D01*
X549698Y283948D01*
X549682Y283908D01*
X546723Y280949D01*
X542794Y280949D01*
X542774Y280946D01*
X542755Y280948D01*
X542653Y280926D01*
X542551Y280910D01*
X542534Y280900D01*
X542514Y280896D01*
X542425Y280843D01*
X542334Y280794D01*
X542320Y280780D01*
X542303Y280770D01*
X542236Y280691D01*
X542164Y280616D01*
X542156Y280598D01*
X542143Y280583D01*
X542104Y280487D01*
X542061Y280393D01*
X542059Y280373D01*
X542051Y280355D01*
X542033Y280188D01*
X542033Y278601D01*
X540962Y276016D01*
X538877Y273931D01*
X488569Y223623D01*
X486484Y221538D01*
X483899Y220467D01*
X431228Y220467D01*
X431138Y220453D01*
X431047Y220445D01*
X431018Y220433D01*
X430986Y220428D01*
X430905Y220385D01*
X430821Y220349D01*
X430789Y220323D01*
X430768Y220312D01*
X430746Y220289D01*
X430690Y220244D01*
X417945Y207499D01*
X417917Y207460D01*
X417882Y207427D01*
X417845Y207361D01*
X417801Y207299D01*
X417787Y207253D01*
X417764Y207211D01*
X417751Y207137D01*
X417729Y207064D01*
X417730Y207016D01*
X417722Y206969D01*
X417733Y206894D01*
X417735Y206818D01*
X417752Y206773D01*
X417759Y206726D01*
X417794Y206659D01*
X417820Y206587D01*
X417850Y206550D01*
X417872Y206507D01*
X417926Y206454D01*
X417973Y206395D01*
X418014Y206369D01*
X418048Y206336D01*
X418117Y206303D01*
X418180Y206262D01*
X418227Y206251D01*
X418270Y206230D01*
X418345Y206221D01*
X418419Y206202D01*
X418467Y206206D01*
X418514Y206200D01*
X418642Y206220D01*
X418664Y206221D01*
X418670Y206224D01*
X418680Y206225D01*
X419111Y206341D01*
X420533Y206341D01*
X420533Y197387D01*
X416857Y197387D01*
X416837Y197384D01*
X416818Y197386D01*
X416716Y197364D01*
X416614Y197347D01*
X416597Y197338D01*
X416577Y197333D01*
X416488Y197280D01*
X416397Y197232D01*
X416383Y197218D01*
X416366Y197207D01*
X416299Y197129D01*
X416227Y197054D01*
X416219Y197036D01*
X416206Y197020D01*
X416167Y196924D01*
X416124Y196831D01*
X416122Y196811D01*
X416114Y196792D01*
X416096Y196626D01*
X416096Y195974D01*
X416099Y195955D01*
X416097Y195935D01*
X416119Y195834D01*
X416135Y195732D01*
X416145Y195714D01*
X416149Y195695D01*
X416202Y195606D01*
X416251Y195514D01*
X416265Y195501D01*
X416275Y195484D01*
X416354Y195416D01*
X416429Y195345D01*
X416447Y195337D01*
X416462Y195324D01*
X416558Y195285D01*
X416652Y195241D01*
X416672Y195239D01*
X416690Y195232D01*
X416857Y195213D01*
X421294Y195213D01*
X421314Y195216D01*
X421334Y195214D01*
X421435Y195236D01*
X421537Y195253D01*
X421555Y195262D01*
X421574Y195266D01*
X421622Y195295D01*
X421647Y195285D01*
X421741Y195241D01*
X421760Y195239D01*
X421779Y195232D01*
X421946Y195213D01*
X426336Y195213D01*
X426336Y188466D01*
X426209Y187991D01*
X426197Y187872D01*
X426184Y187755D01*
X426185Y187750D01*
X426184Y187746D01*
X426210Y187631D01*
X426236Y187514D01*
X426238Y187511D01*
X426239Y187507D01*
X426301Y187405D01*
X426362Y187303D01*
X426365Y187300D01*
X426367Y187297D01*
X426458Y187221D01*
X426549Y187143D01*
X426553Y187142D01*
X426556Y187139D01*
X426665Y187096D01*
X426777Y187051D01*
X426782Y187051D01*
X426785Y187049D01*
X426799Y187049D01*
X426944Y187033D01*
X462238Y187033D01*
X462258Y187036D01*
X462277Y187034D01*
X462379Y187056D01*
X462481Y187072D01*
X462498Y187082D01*
X462518Y187086D01*
X462607Y187139D01*
X462698Y187188D01*
X462712Y187202D01*
X462729Y187212D01*
X462796Y187291D01*
X462868Y187366D01*
X462876Y187384D01*
X462889Y187399D01*
X462928Y187495D01*
X462971Y187589D01*
X462973Y187609D01*
X462981Y187627D01*
X462999Y187794D01*
X462999Y192071D01*
X465929Y195001D01*
X470122Y195001D01*
X470237Y195020D01*
X470353Y195037D01*
X470359Y195039D01*
X470365Y195040D01*
X470467Y195095D01*
X470572Y195148D01*
X470577Y195153D01*
X470582Y195156D01*
X470662Y195240D01*
X470745Y195324D01*
X470748Y195330D01*
X470752Y195334D01*
X470759Y195351D01*
X470825Y195471D01*
X471038Y195984D01*
X481016Y205962D01*
X482929Y206754D01*
X483029Y206816D01*
X483129Y206876D01*
X483133Y206881D01*
X483138Y206884D01*
X483213Y206975D01*
X483289Y207063D01*
X483291Y207069D01*
X483295Y207074D01*
X483337Y207181D01*
X483381Y207291D01*
X483382Y207299D01*
X483383Y207303D01*
X483384Y207321D01*
X483399Y207458D01*
X483399Y209271D01*
X486329Y212201D01*
X503471Y212201D01*
X505860Y209812D01*
X505915Y209772D01*
X505964Y209725D01*
X506014Y209701D01*
X506060Y209668D01*
X506125Y209648D01*
X506186Y209619D01*
X506241Y209612D01*
X506295Y209596D01*
X506363Y209598D01*
X506430Y209590D01*
X506508Y209601D01*
X506541Y209602D01*
X506561Y209609D01*
X506596Y209615D01*
X507066Y209741D01*
X512377Y209741D01*
X512377Y200462D01*
X512379Y200447D01*
X512378Y200434D01*
X512379Y200430D01*
X512378Y200423D01*
X512400Y200321D01*
X512417Y200219D01*
X512426Y200202D01*
X512430Y200182D01*
X512483Y200093D01*
X512532Y200002D01*
X512546Y199988D01*
X512556Y199971D01*
X512635Y199904D01*
X512710Y199833D01*
X512728Y199824D01*
X512743Y199811D01*
X512839Y199772D01*
X512933Y199729D01*
X512953Y199727D01*
X512971Y199719D01*
X513138Y199701D01*
X513901Y199701D01*
X513901Y199699D01*
X513138Y199699D01*
X513118Y199696D01*
X513099Y199698D01*
X512997Y199676D01*
X512895Y199659D01*
X512878Y199650D01*
X512858Y199646D01*
X512769Y199593D01*
X512678Y199544D01*
X512664Y199530D01*
X512647Y199520D01*
X512580Y199441D01*
X512509Y199366D01*
X512500Y199348D01*
X512487Y199333D01*
X512448Y199237D01*
X512405Y199143D01*
X512403Y199123D01*
X512395Y199105D01*
X512377Y198938D01*
X512377Y189659D01*
X507066Y189659D01*
X506596Y189785D01*
X506528Y189792D01*
X506463Y189808D01*
X506407Y189804D01*
X506351Y189810D01*
X506285Y189795D01*
X506218Y189789D01*
X506166Y189767D01*
X506111Y189755D01*
X506053Y189719D01*
X505991Y189693D01*
X505929Y189644D01*
X505901Y189626D01*
X505888Y189610D01*
X505860Y189588D01*
X503471Y187199D01*
X491762Y187199D01*
X491742Y187196D01*
X491723Y187198D01*
X491621Y187176D01*
X491519Y187160D01*
X491502Y187150D01*
X491482Y187146D01*
X491393Y187093D01*
X491302Y187044D01*
X491288Y187030D01*
X491271Y187020D01*
X491204Y186941D01*
X491132Y186866D01*
X491124Y186848D01*
X491111Y186833D01*
X491072Y186737D01*
X491029Y186643D01*
X491027Y186623D01*
X491019Y186605D01*
X491001Y186438D01*
X491001Y177929D01*
X488071Y174999D01*
X477260Y174999D01*
X477170Y174985D01*
X477079Y174977D01*
X477050Y174965D01*
X477018Y174960D01*
X476937Y174917D01*
X476853Y174881D01*
X476821Y174855D01*
X476800Y174844D01*
X476778Y174821D01*
X476722Y174776D01*
X475984Y174038D01*
X474676Y173496D01*
X474615Y173458D01*
X474549Y173429D01*
X474511Y173394D01*
X474467Y173367D01*
X474421Y173311D01*
X474368Y173263D01*
X474343Y173217D01*
X474310Y173177D01*
X474284Y173110D01*
X474250Y173047D01*
X474240Y172996D01*
X474222Y172947D01*
X474219Y172876D01*
X474206Y172805D01*
X474214Y172754D01*
X474211Y172702D01*
X474231Y172633D01*
X474242Y172562D01*
X474265Y172515D01*
X474280Y172466D01*
X474321Y172407D01*
X474353Y172343D01*
X474390Y172306D01*
X474420Y172263D01*
X474478Y172221D01*
X474529Y172170D01*
X474592Y172136D01*
X474618Y172117D01*
X474640Y172109D01*
X474676Y172090D01*
X474984Y171962D01*
X476722Y170224D01*
X476796Y170171D01*
X476866Y170111D01*
X476896Y170099D01*
X476922Y170080D01*
X477009Y170053D01*
X477094Y170019D01*
X477135Y170015D01*
X477157Y170008D01*
X477189Y170009D01*
X477260Y170001D01*
X488071Y170001D01*
X491001Y167071D01*
X491001Y155962D01*
X491004Y155942D01*
X491002Y155923D01*
X491024Y155821D01*
X491040Y155719D01*
X491050Y155702D01*
X491054Y155682D01*
X491107Y155593D01*
X491156Y155502D01*
X491170Y155488D01*
X491180Y155471D01*
X491259Y155404D01*
X491334Y155332D01*
X491352Y155324D01*
X491367Y155311D01*
X491463Y155272D01*
X491557Y155229D01*
X491577Y155227D01*
X491595Y155219D01*
X491762Y155201D01*
X503471Y155201D01*
X505860Y152812D01*
X505915Y152772D01*
X505964Y152725D01*
X506014Y152701D01*
X506060Y152668D01*
X506125Y152648D01*
X506186Y152619D01*
X506241Y152612D01*
X506295Y152596D01*
X506363Y152598D01*
X506430Y152590D01*
X506508Y152601D01*
X506541Y152602D01*
X506561Y152609D01*
X506596Y152615D01*
X507066Y152741D01*
X512377Y152741D01*
X512377Y143462D01*
X512380Y143442D01*
X512378Y143423D01*
X512400Y143321D01*
X512417Y143219D01*
X512426Y143202D01*
X512430Y143182D01*
X512483Y143093D01*
X512532Y143002D01*
X512546Y142988D01*
X512556Y142971D01*
X512635Y142904D01*
X512710Y142833D01*
X512728Y142824D01*
X512743Y142811D01*
X512839Y142772D01*
X512933Y142729D01*
X512953Y142727D01*
X512971Y142719D01*
X513138Y142701D01*
X513901Y142701D01*
X513901Y142699D01*
X513138Y142699D01*
X513118Y142696D01*
X513099Y142698D01*
X512997Y142676D01*
X512895Y142659D01*
X512878Y142650D01*
X512858Y142646D01*
X512769Y142593D01*
X512678Y142544D01*
X512664Y142530D01*
X512647Y142520D01*
X512580Y142441D01*
X512509Y142366D01*
X512500Y142348D01*
X512487Y142333D01*
X512448Y142237D01*
X512405Y142143D01*
X512403Y142123D01*
X512395Y142105D01*
X512377Y141938D01*
X512377Y132659D01*
X507066Y132659D01*
X506596Y132785D01*
X506528Y132792D01*
X506463Y132808D01*
X506407Y132804D01*
X506351Y132810D01*
X506285Y132795D01*
X506218Y132789D01*
X506166Y132767D01*
X506111Y132755D01*
X506053Y132719D01*
X505991Y132693D01*
X505929Y132644D01*
X505901Y132626D01*
X505888Y132610D01*
X505860Y132588D01*
X503471Y130199D01*
X486329Y130199D01*
X483399Y133129D01*
X483399Y135159D01*
X483380Y135274D01*
X483363Y135390D01*
X483361Y135396D01*
X483360Y135402D01*
X483305Y135505D01*
X483252Y135610D01*
X483247Y135614D01*
X483244Y135620D01*
X483160Y135699D01*
X483076Y135782D01*
X483070Y135785D01*
X483066Y135789D01*
X483049Y135797D01*
X482929Y135863D01*
X480816Y136738D01*
X471038Y146516D01*
X469967Y149101D01*
X469967Y149238D01*
X469964Y149258D01*
X469966Y149277D01*
X469944Y149379D01*
X469928Y149481D01*
X469918Y149498D01*
X469914Y149518D01*
X469861Y149607D01*
X469812Y149698D01*
X469798Y149712D01*
X469788Y149729D01*
X469709Y149796D01*
X469634Y149868D01*
X469616Y149876D01*
X469601Y149889D01*
X469505Y149928D01*
X469411Y149971D01*
X469391Y149973D01*
X469373Y149981D01*
X469206Y149999D01*
X465929Y149999D01*
X462999Y152929D01*
X462999Y158206D01*
X462996Y158226D01*
X462998Y158245D01*
X462976Y158347D01*
X462960Y158449D01*
X462950Y158466D01*
X462946Y158486D01*
X462893Y158575D01*
X462844Y158666D01*
X462830Y158680D01*
X462820Y158697D01*
X462741Y158764D01*
X462666Y158836D01*
X462648Y158844D01*
X462633Y158857D01*
X462537Y158896D01*
X462443Y158939D01*
X462423Y158941D01*
X462405Y158949D01*
X462238Y158967D01*
X379228Y158967D01*
X379138Y158953D01*
X379047Y158945D01*
X379018Y158933D01*
X378986Y158928D01*
X378905Y158885D01*
X378821Y158849D01*
X378789Y158823D01*
X378768Y158812D01*
X378746Y158789D01*
X378690Y158744D01*
X376046Y156100D01*
X376004Y156042D01*
X375955Y155990D01*
X375933Y155943D01*
X375903Y155901D01*
X375881Y155832D01*
X375851Y155767D01*
X375845Y155715D01*
X375830Y155665D01*
X375832Y155594D01*
X375824Y155523D01*
X375835Y155472D01*
X375837Y155420D01*
X375861Y155352D01*
X375876Y155282D01*
X375903Y155238D01*
X375921Y155189D01*
X375966Y155133D01*
X376003Y155071D01*
X376042Y155037D01*
X376075Y154997D01*
X376135Y154958D01*
X376189Y154911D01*
X376238Y154892D01*
X376282Y154864D01*
X376351Y154846D01*
X376418Y154819D01*
X376489Y154811D01*
X376520Y154803D01*
X376543Y154805D01*
X376584Y154801D01*
X400466Y154801D01*
X402703Y152564D01*
X402777Y152511D01*
X402847Y152451D01*
X402877Y152439D01*
X402903Y152420D01*
X402990Y152393D01*
X403075Y152359D01*
X403116Y152355D01*
X403138Y152348D01*
X403170Y152349D01*
X403242Y152341D01*
X405089Y152341D01*
X405553Y152217D01*
X405668Y152205D01*
X405781Y152191D01*
X405791Y152193D01*
X405798Y152192D01*
X405819Y152197D01*
X405947Y152217D01*
X406411Y152341D01*
X407833Y152341D01*
X407833Y143387D01*
X404157Y143387D01*
X404137Y143384D01*
X404118Y143386D01*
X404016Y143364D01*
X403914Y143347D01*
X403897Y143338D01*
X403877Y143333D01*
X403788Y143280D01*
X403697Y143232D01*
X403683Y143218D01*
X403666Y143207D01*
X403599Y143129D01*
X403527Y143054D01*
X403519Y143036D01*
X403506Y143020D01*
X403467Y142924D01*
X403424Y142831D01*
X403422Y142811D01*
X403414Y142792D01*
X403396Y142626D01*
X403396Y141974D01*
X403399Y141955D01*
X403397Y141935D01*
X403419Y141834D01*
X403435Y141732D01*
X403445Y141714D01*
X403449Y141695D01*
X403502Y141606D01*
X403551Y141514D01*
X403565Y141501D01*
X403575Y141484D01*
X403654Y141416D01*
X403729Y141345D01*
X403747Y141337D01*
X403762Y141324D01*
X403858Y141285D01*
X403952Y141241D01*
X403972Y141239D01*
X403990Y141232D01*
X404157Y141213D01*
X407833Y141213D01*
X407833Y132259D01*
X406411Y132259D01*
X405947Y132383D01*
X405832Y132395D01*
X405719Y132409D01*
X405709Y132407D01*
X405702Y132408D01*
X405681Y132403D01*
X405553Y132383D01*
X405106Y132264D01*
X405042Y132235D01*
X404976Y132216D01*
X404931Y132185D01*
X404882Y132162D01*
X404831Y132115D01*
X404773Y132075D01*
X404741Y132032D01*
X404701Y131995D01*
X404668Y131934D01*
X404627Y131878D01*
X404610Y131827D01*
X404584Y131779D01*
X404572Y131710D01*
X404551Y131644D01*
X404551Y131590D01*
X404542Y131537D01*
X404552Y131468D01*
X404553Y131398D01*
X404574Y131326D01*
X404579Y131293D01*
X404589Y131274D01*
X404600Y131237D01*
X405285Y129583D01*
X405285Y129262D01*
X405288Y129242D01*
X405286Y129223D01*
X405308Y129121D01*
X405324Y129019D01*
X405334Y129002D01*
X405338Y128982D01*
X405391Y128893D01*
X405440Y128802D01*
X405454Y128788D01*
X405464Y128771D01*
X405543Y128704D01*
X405618Y128632D01*
X405636Y128624D01*
X405651Y128611D01*
X405747Y128572D01*
X405841Y128529D01*
X405861Y128527D01*
X405879Y128519D01*
X406046Y128501D01*
X406571Y128501D01*
X409501Y125571D01*
X409501Y108429D01*
X409110Y108038D01*
X409099Y108022D01*
X409083Y108010D01*
X409027Y107922D01*
X408967Y107839D01*
X408961Y107820D01*
X408950Y107803D01*
X408925Y107702D01*
X408894Y107603D01*
X408895Y107584D01*
X408890Y107564D01*
X408898Y107461D01*
X408901Y107358D01*
X408908Y107339D01*
X408909Y107319D01*
X408950Y107224D01*
X408985Y107127D01*
X408998Y107111D01*
X409006Y107093D01*
X409110Y106962D01*
X409501Y106571D01*
X409501Y89429D01*
X406476Y86404D01*
X406457Y86393D01*
X406366Y86344D01*
X406352Y86330D01*
X406335Y86320D01*
X406268Y86241D01*
X406196Y86166D01*
X406188Y86148D01*
X406175Y86133D01*
X406136Y86037D01*
X406093Y85943D01*
X406091Y85923D01*
X406083Y85905D01*
X406065Y85738D01*
X406065Y67070D01*
X406079Y66980D01*
X406087Y66889D01*
X406099Y66859D01*
X406104Y66827D01*
X406147Y66747D01*
X406183Y66663D01*
X406209Y66631D01*
X406220Y66610D01*
X406243Y66588D01*
X406288Y66532D01*
X409048Y63772D01*
X409106Y63730D01*
X409158Y63681D01*
X409205Y63659D01*
X409247Y63628D01*
X409316Y63607D01*
X409381Y63577D01*
X409433Y63571D01*
X409483Y63556D01*
X409554Y63558D01*
X409625Y63550D01*
X409676Y63561D01*
X409728Y63562D01*
X409796Y63587D01*
X409866Y63602D01*
X409911Y63629D01*
X409959Y63647D01*
X410015Y63692D01*
X410077Y63728D01*
X410111Y63768D01*
X410151Y63800D01*
X410190Y63861D01*
X410237Y63915D01*
X410256Y63963D01*
X410284Y64007D01*
X410302Y64077D01*
X410329Y64143D01*
X410337Y64215D01*
X410345Y64246D01*
X410343Y64269D01*
X410347Y64310D01*
X410347Y68621D01*
X413277Y71551D01*
X436723Y71551D01*
X439685Y68589D01*
X439692Y68543D01*
X439726Y68480D01*
X439751Y68412D01*
X439783Y68372D01*
X439808Y68326D01*
X439859Y68276D01*
X439904Y68220D01*
X439948Y68192D01*
X439986Y68156D01*
X440051Y68126D01*
X440111Y68087D01*
X440162Y68074D01*
X440209Y68053D01*
X440280Y68045D01*
X440350Y68027D01*
X440402Y68031D01*
X440453Y68025D01*
X440524Y68041D01*
X440595Y68046D01*
X440643Y68067D01*
X440694Y68078D01*
X440755Y68115D01*
X440821Y68143D01*
X440877Y68187D01*
X440905Y68204D01*
X440920Y68222D01*
X440952Y68247D01*
X441288Y68583D01*
X441867Y68918D01*
X442514Y69091D01*
X450977Y69091D01*
X450977Y48262D01*
X450980Y48242D01*
X450978Y48223D01*
X451000Y48121D01*
X451017Y48019D01*
X451026Y48002D01*
X451030Y47982D01*
X451083Y47893D01*
X451132Y47802D01*
X451146Y47788D01*
X451156Y47771D01*
X451235Y47704D01*
X451310Y47633D01*
X451328Y47624D01*
X451343Y47611D01*
X451439Y47572D01*
X451533Y47529D01*
X451553Y47527D01*
X451571Y47519D01*
X451738Y47501D01*
X452501Y47501D01*
X452501Y47499D01*
X451738Y47499D01*
X451718Y47496D01*
X451699Y47498D01*
X451597Y47476D01*
X451495Y47459D01*
X451478Y47450D01*
X451458Y47446D01*
X451369Y47393D01*
X451278Y47344D01*
X451264Y47330D01*
X451247Y47320D01*
X451180Y47241D01*
X451109Y47166D01*
X451100Y47148D01*
X451087Y47133D01*
X451048Y47037D01*
X451005Y46943D01*
X451003Y46923D01*
X450995Y46905D01*
X450977Y46738D01*
X450977Y25909D01*
X442514Y25909D01*
X441867Y26082D01*
X441288Y26417D01*
X440952Y26753D01*
X440894Y26794D01*
X440842Y26844D01*
X440795Y26866D01*
X440753Y26896D01*
X440684Y26917D01*
X440619Y26947D01*
X440567Y26953D01*
X440517Y26969D01*
X440446Y26967D01*
X440375Y26975D01*
X440324Y26963D01*
X440272Y26962D01*
X440204Y26938D01*
X440134Y26922D01*
X440089Y26896D01*
X440041Y26878D01*
X439985Y26833D01*
X439923Y26796D01*
X439889Y26757D01*
X439849Y26724D01*
X439810Y26664D01*
X439763Y26609D01*
X439744Y26561D01*
X439716Y26517D01*
X439698Y26448D01*
X439682Y26408D01*
X436723Y23449D01*
X413277Y23449D01*
X410347Y26379D01*
X410347Y38071D01*
X410328Y38186D01*
X410311Y38302D01*
X410309Y38308D01*
X410308Y38314D01*
X410253Y38417D01*
X410200Y38522D01*
X410195Y38526D01*
X410192Y38532D01*
X410108Y38611D01*
X410024Y38694D01*
X410018Y38698D01*
X410014Y38701D01*
X409997Y38709D01*
X409877Y38775D01*
X407365Y39815D01*
X389315Y57865D01*
X387935Y61197D01*
X387935Y85738D01*
X387932Y85758D01*
X387934Y85777D01*
X387912Y85879D01*
X387896Y85981D01*
X387886Y85998D01*
X387882Y86018D01*
X387829Y86107D01*
X387780Y86198D01*
X387766Y86212D01*
X387756Y86229D01*
X387677Y86296D01*
X387602Y86368D01*
X387584Y86376D01*
X387569Y86389D01*
X387519Y86409D01*
X384499Y89429D01*
X384499Y96599D01*
X384488Y96670D01*
X384486Y96741D01*
X384468Y96790D01*
X384460Y96842D01*
X384426Y96905D01*
X384401Y96972D01*
X384369Y97013D01*
X384344Y97059D01*
X384293Y97108D01*
X384248Y97164D01*
X384204Y97193D01*
X384166Y97228D01*
X384101Y97259D01*
X384041Y97297D01*
X383990Y97310D01*
X383943Y97332D01*
X383872Y97340D01*
X383802Y97357D01*
X383750Y97353D01*
X383699Y97359D01*
X383628Y97344D01*
X383557Y97338D01*
X383509Y97318D01*
X383458Y97307D01*
X383397Y97270D01*
X383331Y97242D01*
X383275Y97197D01*
X383247Y97181D01*
X383232Y97163D01*
X383200Y97137D01*
X381468Y95405D01*
X381415Y95331D01*
X381355Y95262D01*
X381343Y95232D01*
X381324Y95205D01*
X381297Y95118D01*
X381263Y95034D01*
X381259Y94993D01*
X381252Y94970D01*
X381253Y94938D01*
X381245Y94867D01*
X381245Y52877D01*
X379860Y49535D01*
X379823Y49482D01*
X379763Y49413D01*
X379751Y49383D01*
X379732Y49357D01*
X379705Y49269D01*
X379671Y49185D01*
X379667Y49144D01*
X379660Y49122D01*
X379661Y49089D01*
X379653Y49018D01*
X379653Y26379D01*
X376723Y23449D01*
X353277Y23449D01*
X351788Y24938D01*
X351772Y24949D01*
X351760Y24965D01*
X351672Y25021D01*
X351589Y25081D01*
X351570Y25087D01*
X351553Y25098D01*
X351452Y25123D01*
X351353Y25154D01*
X351334Y25153D01*
X351314Y25158D01*
X351211Y25150D01*
X351108Y25147D01*
X351089Y25140D01*
X351069Y25139D01*
X350974Y25098D01*
X350877Y25063D01*
X350861Y25050D01*
X350843Y25042D01*
X350712Y24938D01*
X349223Y23449D01*
X325777Y23449D01*
X324288Y24938D01*
X324272Y24949D01*
X324260Y24965D01*
X324172Y25021D01*
X324089Y25081D01*
X324070Y25087D01*
X324053Y25098D01*
X323952Y25123D01*
X323853Y25154D01*
X323834Y25153D01*
X323814Y25158D01*
X323711Y25150D01*
X323608Y25147D01*
X323589Y25140D01*
X323569Y25139D01*
X323474Y25098D01*
X323377Y25063D01*
X323361Y25050D01*
X323343Y25042D01*
X323212Y24938D01*
X321723Y23449D01*
X298277Y23449D01*
X296788Y24938D01*
X296772Y24949D01*
X296760Y24965D01*
X296672Y25021D01*
X296589Y25081D01*
X296570Y25087D01*
X296553Y25098D01*
X296452Y25123D01*
X296353Y25154D01*
X296334Y25153D01*
X296314Y25158D01*
X296211Y25150D01*
X296108Y25147D01*
X296089Y25140D01*
X296069Y25139D01*
X295974Y25098D01*
X295877Y25063D01*
X295861Y25050D01*
X295843Y25042D01*
X295712Y24938D01*
X294223Y23449D01*
X270777Y23449D01*
X269288Y24938D01*
X269272Y24949D01*
X269260Y24965D01*
X269172Y25021D01*
X269089Y25081D01*
X269070Y25087D01*
X269053Y25098D01*
X268952Y25123D01*
X268853Y25154D01*
X268834Y25153D01*
X268814Y25158D01*
X268711Y25150D01*
X268608Y25147D01*
X268589Y25140D01*
X268569Y25139D01*
X268474Y25098D01*
X268377Y25063D01*
X268361Y25050D01*
X268343Y25042D01*
X268212Y24938D01*
X266723Y23449D01*
X243277Y23449D01*
G37*
%LPD*%
%LPC*%
G36*
X495777Y23449D02*
X495777Y23449D01*
X492815Y26411D01*
X492808Y26457D01*
X492774Y26520D01*
X492749Y26588D01*
X492717Y26628D01*
X492692Y26674D01*
X492641Y26724D01*
X492596Y26780D01*
X492552Y26808D01*
X492514Y26844D01*
X492449Y26874D01*
X492389Y26913D01*
X492338Y26926D01*
X492291Y26947D01*
X492220Y26955D01*
X492150Y26973D01*
X492098Y26969D01*
X492047Y26975D01*
X491976Y26959D01*
X491905Y26954D01*
X491857Y26933D01*
X491806Y26922D01*
X491745Y26885D01*
X491679Y26857D01*
X491623Y26813D01*
X491595Y26796D01*
X491580Y26778D01*
X491548Y26753D01*
X491212Y26417D01*
X490633Y26082D01*
X489986Y25909D01*
X481523Y25909D01*
X481523Y46738D01*
X481520Y46758D01*
X481522Y46777D01*
X481500Y46879D01*
X481483Y46981D01*
X481474Y46998D01*
X481470Y47018D01*
X481417Y47107D01*
X481368Y47198D01*
X481354Y47212D01*
X481344Y47229D01*
X481265Y47296D01*
X481190Y47367D01*
X481172Y47376D01*
X481157Y47389D01*
X481061Y47428D01*
X480967Y47471D01*
X480947Y47473D01*
X480929Y47481D01*
X480762Y47499D01*
X479999Y47499D01*
X479999Y47501D01*
X480762Y47501D01*
X480782Y47504D01*
X480801Y47502D01*
X480903Y47524D01*
X481005Y47541D01*
X481022Y47550D01*
X481042Y47554D01*
X481131Y47607D01*
X481222Y47656D01*
X481236Y47670D01*
X481253Y47680D01*
X481320Y47759D01*
X481391Y47834D01*
X481400Y47852D01*
X481413Y47867D01*
X481452Y47963D01*
X481495Y48057D01*
X481497Y48077D01*
X481505Y48095D01*
X481523Y48262D01*
X481523Y69091D01*
X489986Y69091D01*
X490633Y68918D01*
X491212Y68583D01*
X491548Y68247D01*
X491606Y68206D01*
X491658Y68156D01*
X491705Y68134D01*
X491747Y68104D01*
X491816Y68083D01*
X491881Y68053D01*
X491933Y68047D01*
X491983Y68031D01*
X492054Y68033D01*
X492125Y68025D01*
X492176Y68037D01*
X492228Y68038D01*
X492296Y68062D01*
X492366Y68078D01*
X492411Y68104D01*
X492459Y68122D01*
X492515Y68167D01*
X492577Y68204D01*
X492611Y68243D01*
X492651Y68276D01*
X492690Y68336D01*
X492737Y68391D01*
X492756Y68439D01*
X492784Y68483D01*
X492802Y68552D01*
X492818Y68592D01*
X495777Y71551D01*
X497674Y71551D01*
X497694Y71554D01*
X497713Y71552D01*
X497815Y71574D01*
X497917Y71590D01*
X497934Y71600D01*
X497954Y71604D01*
X498043Y71657D01*
X498134Y71706D01*
X498148Y71720D01*
X498165Y71730D01*
X498232Y71809D01*
X498304Y71884D01*
X498312Y71902D01*
X498325Y71917D01*
X498364Y72013D01*
X498407Y72107D01*
X498409Y72127D01*
X498417Y72145D01*
X498435Y72312D01*
X498435Y75930D01*
X498421Y76020D01*
X498413Y76111D01*
X498401Y76141D01*
X498396Y76173D01*
X498353Y76253D01*
X498317Y76337D01*
X498291Y76369D01*
X498280Y76390D01*
X498257Y76412D01*
X498212Y76468D01*
X485968Y88712D01*
X485894Y88765D01*
X485825Y88825D01*
X485795Y88837D01*
X485768Y88856D01*
X485682Y88883D01*
X485597Y88917D01*
X485556Y88921D01*
X485533Y88928D01*
X485501Y88927D01*
X485430Y88935D01*
X464423Y88935D01*
X464333Y88921D01*
X464242Y88913D01*
X464212Y88901D01*
X464180Y88896D01*
X464099Y88853D01*
X464015Y88817D01*
X463983Y88791D01*
X463963Y88780D01*
X463940Y88757D01*
X463884Y88712D01*
X461671Y86499D01*
X442529Y86499D01*
X439599Y89429D01*
X439599Y106571D01*
X439990Y106962D01*
X440001Y106978D01*
X440017Y106990D01*
X440073Y107077D01*
X440133Y107161D01*
X440139Y107180D01*
X440150Y107197D01*
X440175Y107298D01*
X440206Y107397D01*
X440205Y107416D01*
X440210Y107436D01*
X440202Y107539D01*
X440199Y107642D01*
X440192Y107661D01*
X440191Y107681D01*
X440150Y107776D01*
X440115Y107873D01*
X440102Y107889D01*
X440094Y107907D01*
X439990Y108038D01*
X439599Y108429D01*
X439599Y119766D01*
X439585Y119856D01*
X439577Y119947D01*
X439565Y119977D01*
X439560Y120009D01*
X439517Y120089D01*
X439481Y120173D01*
X439455Y120205D01*
X439444Y120226D01*
X439421Y120248D01*
X439413Y120259D01*
X439405Y120272D01*
X439397Y120279D01*
X439376Y120304D01*
X428412Y131268D01*
X428396Y131280D01*
X428383Y131296D01*
X428296Y131352D01*
X428212Y131412D01*
X428193Y131418D01*
X428177Y131429D01*
X428076Y131454D01*
X427977Y131484D01*
X427957Y131484D01*
X427938Y131489D01*
X427835Y131481D01*
X427731Y131478D01*
X427713Y131471D01*
X427693Y131470D01*
X427598Y131429D01*
X427500Y131394D01*
X427485Y131381D01*
X427467Y131373D01*
X427336Y131268D01*
X425866Y129799D01*
X417374Y129799D01*
X415137Y132036D01*
X415063Y132089D01*
X414993Y132149D01*
X414963Y132161D01*
X414937Y132180D01*
X414850Y132207D01*
X414765Y132241D01*
X414724Y132245D01*
X414702Y132252D01*
X414670Y132251D01*
X414598Y132259D01*
X412771Y132259D01*
X412297Y132386D01*
X412183Y132397D01*
X412069Y132411D01*
X412059Y132410D01*
X412052Y132411D01*
X412031Y132406D01*
X411903Y132386D01*
X411429Y132259D01*
X410007Y132259D01*
X410007Y141213D01*
X413683Y141213D01*
X413703Y141216D01*
X413722Y141214D01*
X413824Y141236D01*
X413926Y141253D01*
X413943Y141262D01*
X413963Y141266D01*
X414052Y141320D01*
X414143Y141368D01*
X414157Y141382D01*
X414174Y141393D01*
X414241Y141471D01*
X414313Y141546D01*
X414321Y141564D01*
X414334Y141580D01*
X414373Y141676D01*
X414416Y141769D01*
X414418Y141789D01*
X414426Y141808D01*
X414444Y141974D01*
X414444Y142626D01*
X414442Y142642D01*
X414443Y142658D01*
X414443Y142660D01*
X414443Y142665D01*
X414421Y142766D01*
X414405Y142868D01*
X414395Y142886D01*
X414391Y142905D01*
X414338Y142994D01*
X414289Y143086D01*
X414275Y143099D01*
X414265Y143116D01*
X414186Y143184D01*
X414111Y143255D01*
X414093Y143263D01*
X414078Y143276D01*
X413982Y143315D01*
X413888Y143359D01*
X413868Y143361D01*
X413850Y143368D01*
X413683Y143387D01*
X410007Y143387D01*
X410007Y152341D01*
X411429Y152341D01*
X411903Y152214D01*
X412017Y152202D01*
X412131Y152189D01*
X412141Y152190D01*
X412148Y152189D01*
X412169Y152194D01*
X412297Y152214D01*
X412771Y152341D01*
X414598Y152341D01*
X414688Y152355D01*
X414779Y152363D01*
X414809Y152375D01*
X414841Y152380D01*
X414922Y152423D01*
X415006Y152459D01*
X415038Y152485D01*
X415058Y152496D01*
X415081Y152519D01*
X415137Y152564D01*
X417374Y154801D01*
X425866Y154801D01*
X428891Y151776D01*
X428902Y151757D01*
X428951Y151666D01*
X428965Y151652D01*
X428975Y151635D01*
X429054Y151568D01*
X429129Y151496D01*
X429147Y151488D01*
X429162Y151475D01*
X429258Y151436D01*
X429352Y151393D01*
X429372Y151391D01*
X429390Y151383D01*
X429557Y151365D01*
X432003Y151365D01*
X435335Y149985D01*
X456596Y128724D01*
X456670Y128671D01*
X456739Y128611D01*
X456769Y128599D01*
X456796Y128580D01*
X456882Y128553D01*
X456967Y128519D01*
X457008Y128515D01*
X457031Y128508D01*
X457063Y128509D01*
X457134Y128501D01*
X461671Y128501D01*
X464601Y125571D01*
X464601Y108429D01*
X464536Y108364D01*
X464495Y108306D01*
X464445Y108254D01*
X464423Y108207D01*
X464393Y108165D01*
X464372Y108096D01*
X464342Y108031D01*
X464336Y107979D01*
X464320Y107929D01*
X464322Y107858D01*
X464314Y107787D01*
X464325Y107736D01*
X464327Y107684D01*
X464351Y107616D01*
X464367Y107546D01*
X464393Y107501D01*
X464411Y107453D01*
X464456Y107397D01*
X464493Y107335D01*
X464532Y107301D01*
X464565Y107261D01*
X464625Y107222D01*
X464680Y107175D01*
X464728Y107156D01*
X464772Y107128D01*
X464841Y107110D01*
X464908Y107083D01*
X464979Y107075D01*
X465010Y107067D01*
X465034Y107069D01*
X465075Y107065D01*
X491303Y107065D01*
X494635Y105685D01*
X515185Y85135D01*
X516565Y81803D01*
X516565Y72312D01*
X516568Y72292D01*
X516566Y72273D01*
X516588Y72171D01*
X516604Y72069D01*
X516614Y72052D01*
X516618Y72032D01*
X516671Y71943D01*
X516720Y71852D01*
X516734Y71838D01*
X516744Y71821D01*
X516823Y71754D01*
X516898Y71682D01*
X516916Y71674D01*
X516931Y71661D01*
X517027Y71622D01*
X517121Y71579D01*
X517141Y71577D01*
X517159Y71569D01*
X517326Y71551D01*
X519223Y71551D01*
X522153Y68621D01*
X522153Y26379D01*
X519223Y23449D01*
X495777Y23449D01*
G37*
%LPD*%
%LPC*%
G36*
X234729Y248899D02*
X234729Y248899D01*
X231799Y251829D01*
X231799Y271971D01*
X234729Y274901D01*
X240174Y274901D01*
X240194Y274904D01*
X240213Y274902D01*
X240315Y274924D01*
X240417Y274940D01*
X240434Y274950D01*
X240454Y274954D01*
X240543Y275007D01*
X240634Y275056D01*
X240648Y275070D01*
X240665Y275080D01*
X240732Y275159D01*
X240804Y275234D01*
X240812Y275252D01*
X240825Y275267D01*
X240864Y275363D01*
X240907Y275457D01*
X240909Y275477D01*
X240917Y275495D01*
X240935Y275662D01*
X240935Y280188D01*
X240932Y280208D01*
X240934Y280227D01*
X240912Y280329D01*
X240896Y280431D01*
X240886Y280448D01*
X240882Y280468D01*
X240829Y280557D01*
X240780Y280648D01*
X240766Y280662D01*
X240756Y280679D01*
X240677Y280746D01*
X240602Y280818D01*
X240584Y280826D01*
X240569Y280839D01*
X240473Y280878D01*
X240379Y280921D01*
X240359Y280923D01*
X240341Y280931D01*
X240174Y280949D01*
X238277Y280949D01*
X235347Y283879D01*
X235347Y326121D01*
X238277Y329051D01*
X261723Y329051D01*
X264653Y326121D01*
X264653Y283879D01*
X261723Y280949D01*
X259826Y280949D01*
X259806Y280946D01*
X259787Y280948D01*
X259685Y280926D01*
X259583Y280910D01*
X259566Y280900D01*
X259546Y280896D01*
X259457Y280843D01*
X259366Y280794D01*
X259352Y280780D01*
X259335Y280770D01*
X259268Y280691D01*
X259196Y280616D01*
X259188Y280598D01*
X259175Y280583D01*
X259136Y280487D01*
X259093Y280393D01*
X259091Y280373D01*
X259083Y280355D01*
X259065Y280188D01*
X259065Y275662D01*
X259068Y275642D01*
X259066Y275623D01*
X259088Y275521D01*
X259104Y275419D01*
X259114Y275402D01*
X259118Y275382D01*
X259171Y275293D01*
X259220Y275202D01*
X259234Y275188D01*
X259244Y275171D01*
X259323Y275104D01*
X259398Y275032D01*
X259416Y275024D01*
X259431Y275011D01*
X259527Y274972D01*
X259621Y274929D01*
X259641Y274927D01*
X259659Y274919D01*
X259826Y274901D01*
X265871Y274901D01*
X268801Y271971D01*
X268801Y251829D01*
X265871Y248899D01*
X234729Y248899D01*
G37*
%LPD*%
%LPC*%
G36*
X295729Y249399D02*
X295729Y249399D01*
X292799Y252329D01*
X292799Y272471D01*
X295729Y275401D01*
X301474Y275401D01*
X301494Y275404D01*
X301513Y275402D01*
X301615Y275424D01*
X301717Y275440D01*
X301734Y275450D01*
X301754Y275454D01*
X301843Y275507D01*
X301934Y275556D01*
X301948Y275570D01*
X301965Y275580D01*
X302032Y275659D01*
X302104Y275734D01*
X302112Y275752D01*
X302125Y275767D01*
X302164Y275863D01*
X302207Y275957D01*
X302209Y275977D01*
X302217Y275995D01*
X302235Y276162D01*
X302235Y280188D01*
X302232Y280208D01*
X302234Y280227D01*
X302212Y280329D01*
X302196Y280431D01*
X302186Y280448D01*
X302182Y280468D01*
X302129Y280557D01*
X302080Y280648D01*
X302066Y280662D01*
X302056Y280679D01*
X301977Y280746D01*
X301902Y280818D01*
X301884Y280826D01*
X301869Y280839D01*
X301773Y280878D01*
X301679Y280921D01*
X301659Y280923D01*
X301641Y280931D01*
X301474Y280949D01*
X298277Y280949D01*
X295347Y283879D01*
X295347Y326121D01*
X298277Y329051D01*
X321723Y329051D01*
X324653Y326121D01*
X324653Y283879D01*
X321723Y280949D01*
X321126Y280949D01*
X321106Y280946D01*
X321087Y280948D01*
X320985Y280926D01*
X320883Y280910D01*
X320866Y280900D01*
X320846Y280896D01*
X320757Y280843D01*
X320666Y280794D01*
X320652Y280780D01*
X320635Y280770D01*
X320568Y280691D01*
X320496Y280616D01*
X320488Y280598D01*
X320475Y280583D01*
X320436Y280487D01*
X320393Y280393D01*
X320391Y280373D01*
X320383Y280355D01*
X320365Y280188D01*
X320365Y276162D01*
X320368Y276142D01*
X320366Y276123D01*
X320388Y276021D01*
X320404Y275919D01*
X320414Y275902D01*
X320418Y275882D01*
X320471Y275793D01*
X320520Y275702D01*
X320534Y275688D01*
X320544Y275671D01*
X320623Y275604D01*
X320698Y275532D01*
X320716Y275524D01*
X320731Y275511D01*
X320827Y275472D01*
X320921Y275429D01*
X320941Y275427D01*
X320959Y275419D01*
X321126Y275401D01*
X326871Y275401D01*
X329801Y272471D01*
X329801Y252329D01*
X326871Y249399D01*
X295729Y249399D01*
G37*
%LPD*%
%LPC*%
G36*
X219516Y64999D02*
X219516Y64999D01*
X214003Y67283D01*
X209783Y71503D01*
X207499Y77016D01*
X207499Y82984D01*
X209783Y88497D01*
X214003Y92717D01*
X219516Y95001D01*
X225138Y95001D01*
X225158Y95004D01*
X225177Y95002D01*
X225279Y95024D01*
X225381Y95040D01*
X225398Y95050D01*
X225418Y95054D01*
X225507Y95107D01*
X225598Y95156D01*
X225612Y95170D01*
X225629Y95180D01*
X225696Y95259D01*
X225768Y95334D01*
X225776Y95352D01*
X225789Y95367D01*
X225828Y95463D01*
X225871Y95557D01*
X225873Y95577D01*
X225881Y95595D01*
X225899Y95762D01*
X225899Y108371D01*
X228288Y110760D01*
X228328Y110815D01*
X228375Y110864D01*
X228399Y110914D01*
X228432Y110960D01*
X228452Y111025D01*
X228481Y111086D01*
X228488Y111141D01*
X228504Y111195D01*
X228502Y111263D01*
X228510Y111330D01*
X228499Y111408D01*
X228498Y111441D01*
X228491Y111461D01*
X228485Y111496D01*
X228359Y111966D01*
X228359Y117277D01*
X237638Y117277D01*
X237658Y117280D01*
X237677Y117278D01*
X237779Y117300D01*
X237881Y117317D01*
X237898Y117326D01*
X237918Y117330D01*
X238007Y117383D01*
X238098Y117432D01*
X238112Y117446D01*
X238129Y117456D01*
X238196Y117535D01*
X238267Y117610D01*
X238276Y117628D01*
X238289Y117643D01*
X238328Y117739D01*
X238371Y117833D01*
X238373Y117853D01*
X238381Y117871D01*
X238399Y118038D01*
X238399Y118801D01*
X238401Y118801D01*
X238401Y118038D01*
X238404Y118018D01*
X238402Y117999D01*
X238424Y117897D01*
X238441Y117795D01*
X238450Y117778D01*
X238454Y117758D01*
X238507Y117669D01*
X238556Y117578D01*
X238570Y117564D01*
X238580Y117547D01*
X238659Y117480D01*
X238734Y117409D01*
X238752Y117400D01*
X238767Y117387D01*
X238863Y117348D01*
X238957Y117305D01*
X238977Y117303D01*
X238995Y117295D01*
X239162Y117277D01*
X248441Y117277D01*
X248441Y111966D01*
X248315Y111496D01*
X248308Y111428D01*
X248292Y111363D01*
X248296Y111307D01*
X248290Y111251D01*
X248305Y111185D01*
X248311Y111118D01*
X248333Y111066D01*
X248345Y111011D01*
X248381Y110953D01*
X248407Y110891D01*
X248456Y110829D01*
X248474Y110801D01*
X248490Y110788D01*
X248512Y110760D01*
X250901Y108371D01*
X250901Y91229D01*
X247876Y88204D01*
X247857Y88193D01*
X247766Y88144D01*
X247752Y88130D01*
X247735Y88120D01*
X247668Y88041D01*
X247596Y87966D01*
X247588Y87948D01*
X247575Y87933D01*
X247536Y87837D01*
X247493Y87743D01*
X247491Y87723D01*
X247483Y87705D01*
X247465Y87538D01*
X247465Y86597D01*
X246085Y83265D01*
X235957Y73137D01*
X235919Y73084D01*
X235873Y73037D01*
X235832Y72964D01*
X235813Y72938D01*
X235808Y72919D01*
X235792Y72890D01*
X235217Y71503D01*
X230997Y67283D01*
X225484Y64999D01*
X219516Y64999D01*
G37*
%LPD*%
%LPC*%
G36*
X564023Y306523D02*
X564023Y306523D01*
X564023Y326591D01*
X572486Y326591D01*
X573133Y326418D01*
X573712Y326083D01*
X574185Y325610D01*
X574520Y325031D01*
X574693Y324384D01*
X574693Y306523D01*
X564023Y306523D01*
G37*
%LPD*%
%LPC*%
G36*
X354023Y306523D02*
X354023Y306523D01*
X354023Y326591D01*
X362486Y326591D01*
X363133Y326418D01*
X363712Y326083D01*
X364185Y325610D01*
X364520Y325031D01*
X364693Y324384D01*
X364693Y306523D01*
X354023Y306523D01*
G37*
%LPD*%
%LPC*%
G36*
X281523Y306523D02*
X281523Y306523D01*
X281523Y326591D01*
X289986Y326591D01*
X290633Y326418D01*
X291212Y326083D01*
X291685Y325610D01*
X292020Y325031D01*
X292193Y324384D01*
X292193Y306523D01*
X281523Y306523D01*
G37*
%LPD*%
%LPC*%
G36*
X454023Y49023D02*
X454023Y49023D01*
X454023Y69091D01*
X462486Y69091D01*
X463133Y68918D01*
X463712Y68583D01*
X464185Y68110D01*
X464520Y67531D01*
X464693Y66884D01*
X464693Y49023D01*
X454023Y49023D01*
G37*
%LPD*%
%LPC*%
G36*
X564023Y283409D02*
X564023Y283409D01*
X564023Y303477D01*
X574693Y303477D01*
X574693Y285616D01*
X574520Y284969D01*
X574185Y284390D01*
X573712Y283917D01*
X573133Y283582D01*
X572486Y283409D01*
X564023Y283409D01*
G37*
%LPD*%
%LPC*%
G36*
X354023Y283409D02*
X354023Y283409D01*
X354023Y303477D01*
X364693Y303477D01*
X364693Y285616D01*
X364520Y284969D01*
X364185Y284390D01*
X363712Y283917D01*
X363133Y283582D01*
X362486Y283409D01*
X354023Y283409D01*
G37*
%LPD*%
%LPC*%
G36*
X281523Y283409D02*
X281523Y283409D01*
X281523Y303477D01*
X292193Y303477D01*
X292193Y285616D01*
X292020Y284969D01*
X291685Y284390D01*
X291212Y283917D01*
X290633Y283582D01*
X289986Y283409D01*
X281523Y283409D01*
G37*
%LPD*%
%LPC*%
G36*
X454023Y25909D02*
X454023Y25909D01*
X454023Y45977D01*
X464693Y45977D01*
X464693Y28116D01*
X464520Y27469D01*
X464185Y26890D01*
X463712Y26417D01*
X463133Y26082D01*
X462486Y25909D01*
X454023Y25909D01*
G37*
%LPD*%
%LPC*%
G36*
X340307Y306523D02*
X340307Y306523D01*
X340307Y324384D01*
X340480Y325031D01*
X340815Y325610D01*
X341288Y326083D01*
X341867Y326418D01*
X342514Y326591D01*
X350977Y326591D01*
X350977Y306523D01*
X340307Y306523D01*
G37*
%LPD*%
%LPC*%
G36*
X267807Y306523D02*
X267807Y306523D01*
X267807Y324384D01*
X267980Y325031D01*
X268315Y325610D01*
X268788Y326083D01*
X269367Y326418D01*
X270014Y326591D01*
X278477Y326591D01*
X278477Y306523D01*
X267807Y306523D01*
G37*
%LPD*%
%LPC*%
G36*
X467807Y49023D02*
X467807Y49023D01*
X467807Y66884D01*
X467980Y67531D01*
X468315Y68110D01*
X468788Y68583D01*
X469367Y68918D01*
X470014Y69091D01*
X478477Y69091D01*
X478477Y49023D01*
X467807Y49023D01*
G37*
%LPD*%
%LPC*%
G36*
X270014Y283409D02*
X270014Y283409D01*
X269367Y283582D01*
X268788Y283917D01*
X268315Y284390D01*
X267980Y284969D01*
X267807Y285616D01*
X267807Y303477D01*
X278477Y303477D01*
X278477Y283409D01*
X270014Y283409D01*
G37*
%LPD*%
%LPC*%
G36*
X342514Y283409D02*
X342514Y283409D01*
X341867Y283582D01*
X341288Y283917D01*
X340815Y284390D01*
X340480Y284969D01*
X340307Y285616D01*
X340307Y303477D01*
X350977Y303477D01*
X350977Y283409D01*
X342514Y283409D01*
G37*
%LPD*%
%LPC*%
G36*
X470014Y25909D02*
X470014Y25909D01*
X469367Y26082D01*
X468788Y26417D01*
X468315Y26890D01*
X467980Y27469D01*
X467807Y28116D01*
X467807Y45977D01*
X478477Y45977D01*
X478477Y25909D01*
X470014Y25909D01*
G37*
%LPD*%
%LPC*%
G36*
X515423Y201223D02*
X515423Y201223D01*
X515423Y209741D01*
X520734Y209741D01*
X521381Y209568D01*
X521960Y209233D01*
X522433Y208760D01*
X522768Y208181D01*
X522941Y207534D01*
X522941Y201223D01*
X515423Y201223D01*
G37*
%LPD*%
%LPC*%
G36*
X515423Y144223D02*
X515423Y144223D01*
X515423Y152741D01*
X520734Y152741D01*
X521381Y152568D01*
X521960Y152233D01*
X522433Y151760D01*
X522768Y151181D01*
X522941Y150534D01*
X522941Y144223D01*
X515423Y144223D01*
G37*
%LPD*%
%LPC*%
G36*
X239923Y120323D02*
X239923Y120323D01*
X239923Y127841D01*
X246234Y127841D01*
X246881Y127668D01*
X247460Y127333D01*
X247933Y126860D01*
X248268Y126281D01*
X248441Y125634D01*
X248441Y120323D01*
X239923Y120323D01*
G37*
%LPD*%
%LPC*%
G36*
X515423Y189659D02*
X515423Y189659D01*
X515423Y198177D01*
X522941Y198177D01*
X522941Y191866D01*
X522768Y191219D01*
X522433Y190640D01*
X521960Y190167D01*
X521381Y189832D01*
X520734Y189659D01*
X515423Y189659D01*
G37*
%LPD*%
%LPC*%
G36*
X515423Y132659D02*
X515423Y132659D01*
X515423Y141177D01*
X522941Y141177D01*
X522941Y134866D01*
X522768Y134219D01*
X522433Y133640D01*
X521960Y133167D01*
X521381Y132832D01*
X520734Y132659D01*
X515423Y132659D01*
G37*
%LPD*%
%LPC*%
G36*
X228359Y120323D02*
X228359Y120323D01*
X228359Y125634D01*
X228532Y126281D01*
X228867Y126860D01*
X229340Y127333D01*
X229919Y127668D01*
X230566Y127841D01*
X236877Y127841D01*
X236877Y120323D01*
X228359Y120323D01*
G37*
%LPD*%
%LPC*%
G36*
X342759Y242123D02*
X342759Y242123D01*
X342759Y248434D01*
X342932Y249081D01*
X343267Y249660D01*
X343740Y250133D01*
X344319Y250468D01*
X344966Y250641D01*
X350277Y250641D01*
X350277Y242123D01*
X342759Y242123D01*
G37*
%LPD*%
%LPC*%
G36*
X344966Y230559D02*
X344966Y230559D01*
X344319Y230732D01*
X343740Y231067D01*
X343267Y231540D01*
X342932Y232119D01*
X342759Y232766D01*
X342759Y239077D01*
X350277Y239077D01*
X350277Y230559D01*
X344966Y230559D01*
G37*
%LPD*%
%LPC*%
G36*
X422707Y197387D02*
X422707Y197387D01*
X422707Y206341D01*
X424129Y206341D01*
X424776Y206168D01*
X425355Y205833D01*
X425828Y205360D01*
X426163Y204781D01*
X426336Y204134D01*
X426336Y197387D01*
X422707Y197387D01*
G37*
%LPD*%
%LPC*%
G36*
X352499Y304999D02*
X352499Y304999D01*
X352499Y305001D01*
X352501Y305001D01*
X352501Y304999D01*
X352499Y304999D01*
G37*
%LPD*%
%LPC*%
G36*
X279999Y304999D02*
X279999Y304999D01*
X279999Y305001D01*
X280001Y305001D01*
X280001Y304999D01*
X279999Y304999D01*
G37*
%LPD*%
D10*
X337000Y153000D02*
X337002Y153063D01*
X337008Y153125D01*
X337018Y153187D01*
X337031Y153249D01*
X337049Y153309D01*
X337070Y153368D01*
X337095Y153426D01*
X337124Y153482D01*
X337156Y153536D01*
X337191Y153588D01*
X337229Y153637D01*
X337271Y153685D01*
X337315Y153729D01*
X337363Y153771D01*
X337412Y153809D01*
X337464Y153844D01*
X337518Y153876D01*
X337574Y153905D01*
X337632Y153930D01*
X337691Y153951D01*
X337751Y153969D01*
X337813Y153982D01*
X337875Y153992D01*
X337937Y153998D01*
X338000Y154000D01*
X338063Y153998D01*
X338125Y153992D01*
X338187Y153982D01*
X338249Y153969D01*
X338309Y153951D01*
X338368Y153930D01*
X338426Y153905D01*
X338482Y153876D01*
X338536Y153844D01*
X338588Y153809D01*
X338637Y153771D01*
X338685Y153729D01*
X338729Y153685D01*
X338771Y153637D01*
X338809Y153588D01*
X338844Y153536D01*
X338876Y153482D01*
X338905Y153426D01*
X338930Y153368D01*
X338951Y153309D01*
X338969Y153249D01*
X338982Y153187D01*
X338992Y153125D01*
X338998Y153063D01*
X339000Y153000D01*
X338998Y152937D01*
X338992Y152875D01*
X338982Y152813D01*
X338969Y152751D01*
X338951Y152691D01*
X338930Y152632D01*
X338905Y152574D01*
X338876Y152518D01*
X338844Y152464D01*
X338809Y152412D01*
X338771Y152363D01*
X338729Y152315D01*
X338685Y152271D01*
X338637Y152229D01*
X338588Y152191D01*
X338536Y152156D01*
X338482Y152124D01*
X338426Y152095D01*
X338368Y152070D01*
X338309Y152049D01*
X338249Y152031D01*
X338187Y152018D01*
X338125Y152008D01*
X338063Y152002D01*
X338000Y152000D01*
X337937Y152002D01*
X337875Y152008D01*
X337813Y152018D01*
X337751Y152031D01*
X337691Y152049D01*
X337632Y152070D01*
X337574Y152095D01*
X337518Y152124D01*
X337464Y152156D01*
X337412Y152191D01*
X337363Y152229D01*
X337315Y152271D01*
X337271Y152315D01*
X337229Y152363D01*
X337191Y152412D01*
X337156Y152464D01*
X337124Y152518D01*
X337095Y152574D01*
X337070Y152632D01*
X337049Y152691D01*
X337031Y152751D01*
X337018Y152813D01*
X337008Y152875D01*
X337002Y152937D01*
X337000Y153000D01*
D11*
X370800Y240600D03*
X351800Y240600D03*
X494900Y199700D03*
X513900Y199700D03*
D12*
X311300Y234400D03*
X311300Y262400D03*
X250300Y233900D03*
X250300Y261900D03*
D13*
X238400Y118800D03*
X238400Y99800D03*
X397000Y98000D03*
X397000Y117000D03*
X452100Y98000D03*
X452100Y117000D03*
X315300Y160900D03*
X315300Y179900D03*
D11*
X494900Y142700D03*
X513900Y142700D03*
D14*
X351780Y142300D03*
X358120Y142300D03*
X364480Y142300D03*
X370820Y142300D03*
X377180Y142300D03*
X383520Y142300D03*
X389880Y142300D03*
X396220Y142300D03*
X402580Y142300D03*
X408920Y142300D03*
X415280Y142300D03*
X421620Y142300D03*
X421620Y196300D03*
X415280Y196300D03*
X408920Y196300D03*
X402580Y196300D03*
X396220Y196300D03*
X389880Y196300D03*
X383520Y196300D03*
X377180Y196300D03*
X370820Y196300D03*
X364480Y196300D03*
X358120Y196300D03*
X351780Y196300D03*
D15*
X477000Y160000D03*
X477000Y185000D03*
D13*
X267100Y100500D03*
X267100Y119500D03*
X294100Y100500D03*
X294100Y119500D03*
X320600Y100500D03*
X320600Y119500D03*
D16*
X381300Y273500D03*
X457500Y273500D03*
X381300Y253000D03*
X457500Y253000D03*
D17*
X255000Y47500D03*
X282500Y47500D03*
X310000Y47500D03*
X337500Y47500D03*
X365000Y47500D03*
X425000Y47500D03*
X452500Y47500D03*
X480000Y47500D03*
X507500Y47500D03*
X382500Y305000D03*
X352500Y305000D03*
X250000Y305000D03*
X280000Y305000D03*
X310000Y305000D03*
X425000Y305000D03*
X452500Y305000D03*
X480000Y305000D03*
X507500Y305000D03*
X535000Y305000D03*
X562500Y305000D03*
D18*
X267100Y129600D02*
X267100Y119500D01*
X267100Y129600D02*
X282500Y145000D01*
X351580Y145000D01*
X351780Y144800D02*
X351780Y142300D01*
X351780Y144800D02*
X351580Y145000D01*
X358120Y142300D02*
X358120Y130620D01*
X355000Y127500D01*
X342500Y127500D01*
X335000Y135000D01*
X302500Y135000D01*
X294100Y126600D01*
X294100Y119500D01*
X364480Y142300D02*
X364480Y154480D01*
X376000Y166000D01*
X364480Y142300D02*
X364480Y124480D01*
X359500Y119500D01*
X376000Y166000D02*
X471000Y166000D01*
X477000Y160000D01*
X484800Y142700D02*
X494900Y142700D01*
X477000Y150500D02*
X477000Y160000D01*
X477000Y150500D02*
X484800Y142700D01*
X359500Y119500D02*
X320600Y119500D01*
D19*
X255000Y72500D02*
X255000Y47500D01*
X267100Y84600D02*
X267100Y100500D01*
X267100Y84600D02*
X255000Y72500D01*
D20*
X287500Y80000D03*
X222500Y80000D03*
D19*
X230000Y80000D01*
X238400Y88400D02*
X238400Y99800D01*
X238400Y88400D02*
X230000Y80000D01*
X282500Y75000D02*
X282500Y47500D01*
X282500Y75000D02*
X287500Y80000D01*
X294100Y86600D01*
X294100Y100500D01*
X310000Y72500D02*
X310000Y47500D01*
X320600Y83100D02*
X320600Y100500D01*
X320600Y83100D02*
X310000Y72500D01*
D18*
X370820Y118320D02*
X370820Y142300D01*
X370820Y118320D02*
X360000Y107500D01*
X357500Y107500D01*
D19*
X352500Y107500D01*
X342500Y97500D01*
X342500Y77500D02*
X337500Y72500D01*
X337500Y47500D01*
X342500Y77500D02*
X342500Y97500D01*
D18*
X377180Y102500D02*
X377180Y142300D01*
D21*
X372180Y54680D02*
X365000Y47500D01*
X372180Y97500D02*
X377180Y102500D01*
D19*
X372180Y97500D02*
X372180Y54680D01*
D18*
X388088Y180000D02*
X383588Y184500D01*
X383588Y196232D02*
X383520Y196300D01*
X383588Y196232D02*
X383588Y184500D01*
X383520Y196300D02*
X383520Y233520D01*
X388088Y180000D02*
X472000Y180000D01*
X477000Y185000D01*
X477000Y192000D01*
X485000Y200000D01*
X494600Y200000D01*
X494900Y199700D01*
X425000Y275000D02*
X425000Y305000D01*
X425000Y275000D02*
X383520Y233520D01*
X389880Y227380D02*
X389880Y196300D01*
X436000Y273500D02*
X457500Y273500D01*
X436000Y273500D02*
X389880Y227380D01*
D19*
X452500Y278500D02*
X457500Y273500D01*
X452500Y278500D02*
X452500Y305000D01*
D18*
X396349Y196429D02*
X396220Y196300D01*
X396349Y196429D02*
X396349Y221773D01*
X427576Y253000D02*
X457500Y253000D01*
X427576Y253000D02*
X396349Y221773D01*
D19*
X457500Y253000D02*
X465500Y253000D01*
X480000Y267500D02*
X480000Y305000D01*
X480000Y267500D02*
X465500Y253000D01*
D18*
X402580Y215080D02*
X402580Y196300D01*
X402580Y215080D02*
X425000Y237500D01*
X472500Y237500D01*
X507500Y272500D02*
X507500Y305000D01*
X507500Y272500D02*
X472500Y237500D01*
X408920Y208420D02*
X408920Y196300D01*
X408920Y208420D02*
X428000Y227500D01*
X482500Y227500D01*
X535000Y280000D02*
X535000Y305000D01*
X535000Y280000D02*
X482500Y227500D01*
X358120Y208880D02*
X358120Y196300D01*
X358120Y208880D02*
X352000Y215000D01*
X340000Y215000D01*
D19*
X320000Y215000D01*
X311300Y223700D02*
X311300Y234400D01*
X311300Y223700D02*
X320000Y215000D01*
X311300Y262400D02*
X311300Y303700D01*
X310000Y305000D01*
D18*
X251100Y233900D02*
X250300Y233900D01*
X349280Y198800D02*
X351780Y196300D01*
X349280Y198800D02*
X345700Y198800D01*
X345500Y199000D01*
D19*
X268500Y199000D01*
X250300Y217200D01*
X250300Y233900D01*
X250300Y261900D02*
X250000Y262200D01*
X250000Y305000D01*
D18*
X377000Y182000D02*
X356000Y161000D01*
X377000Y182000D02*
X377000Y195980D01*
X356000Y161000D02*
X315400Y161000D01*
X315300Y160900D01*
X370820Y196300D02*
X372500Y196300D01*
X376680Y196300D01*
X377000Y195980D01*
X374000Y197800D02*
X372500Y196300D01*
X374000Y197800D02*
X374000Y208000D01*
D19*
X370800Y240600D02*
X374000Y243800D01*
X381300Y251100D01*
X381300Y253000D01*
X381300Y273500D01*
X381300Y303800D01*
X382500Y305000D01*
X374000Y243800D02*
X374000Y208000D01*
X397000Y98000D02*
X396900Y97900D01*
X397000Y63000D02*
X412500Y47500D01*
X397000Y63000D02*
X397000Y98000D01*
X412500Y47500D02*
X425000Y47500D01*
D18*
X396220Y127780D02*
X396220Y142300D01*
D19*
X396220Y127780D02*
X396220Y123780D01*
X397000Y123000D02*
X397000Y117000D01*
X397000Y123000D02*
X396220Y123780D01*
D18*
X421620Y142300D02*
X430200Y142300D01*
D19*
X452100Y120400D01*
X452100Y117000D01*
X452100Y98000D02*
X489500Y98000D01*
X507500Y80000D02*
X507500Y47500D01*
X507500Y80000D02*
X489500Y98000D01*
D18*
X364480Y184480D02*
X364480Y196300D01*
X364480Y184480D02*
X360000Y180000D01*
X315400Y180000D01*
X315300Y179900D01*
M02*
