M48
;GenerationSoftware,Autodesk,EAGLE,9.6.2*%
;CreationDate,2022-06-20T11:39:29Z*%
FMAT,2
ICI,OFF
METRIC,TZ,000.000
T3C1.000
T2C2.800
T1C3.000
%
G90
M71
T1
X47000Y39000
X14000Y39000
T2
X55000Y5000
X55000Y30000
T3
X25500Y19825
X11100Y19850
X25500Y16600
X6500Y16500
X23500Y24500
X11000Y24500
X31700Y27300
X28300Y27300
X20970Y27137
X16260Y27137
X19700Y4050
X16300Y4050
X9000Y30400
X9000Y27000
X9000Y10000
X9000Y6600
M30