G04 EAGLE Gerber RS-274X export*
G75*
%MOMM*%
%FSLAX34Y34*%
%LPD*%
%INTop Copper*%
%IPPOS*%
%AMOC8*
5,1,8,0,0,1.08239X$1,22.5*%
G01*
%ADD10C,0.300000*%
%ADD11R,1.525000X0.650000*%
%ADD12R,1.930400X3.810000*%
%ADD13C,2.000000*%
%ADD14C,5.842000*%
%ADD15R,3.810000X1.930400*%
%ADD16C,5.334000*%
%ADD17C,1.000000*%
%ADD18C,0.609600*%
%ADD19C,0.508000*%
%ADD20C,1.016000*%


D10*
X276500Y219870D02*
X276500Y231870D01*
X291500Y231870D01*
X291500Y219870D01*
X276500Y219870D01*
X276500Y222720D02*
X291500Y222720D01*
X291500Y225570D02*
X276500Y225570D01*
X276500Y228420D02*
X291500Y228420D01*
X291500Y231270D02*
X276500Y231270D01*
X276500Y204330D02*
X276500Y192330D01*
X276500Y204330D02*
X291500Y204330D01*
X291500Y192330D01*
X276500Y192330D01*
X276500Y195180D02*
X291500Y195180D01*
X291500Y198030D02*
X276500Y198030D01*
X276500Y200880D02*
X291500Y200880D01*
X291500Y203730D02*
X276500Y203730D01*
X163370Y130800D02*
X151370Y130800D01*
X163370Y130800D02*
X163370Y115800D01*
X151370Y115800D01*
X151370Y130800D01*
X151370Y118650D02*
X163370Y118650D01*
X163370Y121500D02*
X151370Y121500D01*
X151370Y124350D02*
X163370Y124350D01*
X163370Y127200D02*
X151370Y127200D01*
X151370Y130050D02*
X163370Y130050D01*
X135830Y130800D02*
X123830Y130800D01*
X135830Y130800D02*
X135830Y115800D01*
X123830Y115800D01*
X123830Y130800D01*
X123830Y118650D02*
X135830Y118650D01*
X135830Y121500D02*
X123830Y121500D01*
X123830Y124350D02*
X135830Y124350D01*
X135830Y127200D02*
X123830Y127200D01*
X123830Y130050D02*
X135830Y130050D01*
D11*
X207620Y166100D03*
X207620Y178800D03*
X207620Y191500D03*
X207620Y204200D03*
X207620Y216900D03*
X207620Y229600D03*
X207620Y242300D03*
X153380Y242300D03*
X153380Y229600D03*
X153380Y216900D03*
X153380Y204200D03*
X153380Y191500D03*
X153380Y178800D03*
X153380Y166100D03*
D12*
X317000Y303000D03*
X283000Y303000D03*
D13*
X317000Y273000D03*
X283000Y273000D03*
D10*
X265125Y131500D02*
X253125Y131500D01*
X265125Y131500D02*
X265125Y116500D01*
X253125Y116500D01*
X253125Y131500D01*
X253125Y119350D02*
X265125Y119350D01*
X265125Y122200D02*
X253125Y122200D01*
X253125Y125050D02*
X265125Y125050D01*
X265125Y127900D02*
X253125Y127900D01*
X253125Y130750D02*
X265125Y130750D01*
X240075Y131500D02*
X228075Y131500D01*
X240075Y131500D02*
X240075Y116500D01*
X228075Y116500D01*
X228075Y131500D01*
X228075Y119350D02*
X240075Y119350D01*
X240075Y122200D02*
X228075Y122200D01*
X228075Y125050D02*
X240075Y125050D01*
X240075Y127900D02*
X228075Y127900D01*
X228075Y130750D02*
X240075Y130750D01*
X238575Y78000D02*
X226575Y78000D01*
X226575Y93000D01*
X238575Y93000D01*
X238575Y78000D01*
X238575Y80850D02*
X226575Y80850D01*
X226575Y83700D02*
X238575Y83700D01*
X238575Y86550D02*
X226575Y86550D01*
X226575Y89400D02*
X238575Y89400D01*
X238575Y92250D02*
X226575Y92250D01*
X251625Y78000D02*
X263625Y78000D01*
X251625Y78000D02*
X251625Y93000D01*
X263625Y93000D01*
X263625Y78000D01*
X263625Y80850D02*
X251625Y80850D01*
X251625Y83700D02*
X263625Y83700D01*
X263625Y86550D02*
X251625Y86550D01*
X251625Y89400D02*
X263625Y89400D01*
X263625Y92250D02*
X251625Y92250D01*
D12*
X209700Y303000D03*
D13*
X209700Y271370D03*
D12*
X162600Y303000D03*
D13*
X162600Y271370D03*
D14*
X470000Y390000D03*
X140000Y390000D03*
D12*
X197000Y70500D03*
X163000Y70500D03*
D13*
X197000Y40500D03*
X163000Y40500D03*
D15*
X60000Y304000D03*
X60000Y270000D03*
D13*
X90000Y304000D03*
X90000Y270000D03*
D15*
X60000Y100000D03*
X60000Y66000D03*
D13*
X90000Y100000D03*
X90000Y66000D03*
D16*
X550000Y50000D03*
X550000Y300000D03*
D17*
X197000Y70500D02*
X197000Y58040D01*
X197000Y70500D02*
X197000Y70500D01*
X197000Y40500D01*
X197000Y40500D01*
X197000Y58040D01*
X317000Y290540D02*
X317000Y303000D01*
X317000Y303000D01*
X317000Y273000D01*
X317000Y273000D01*
X317000Y290540D01*
X72460Y304000D02*
X60000Y304000D01*
X60000Y304000D01*
X90000Y304000D01*
X90000Y304000D01*
X72460Y304000D01*
X60000Y48808D02*
X40207Y48808D01*
X60000Y48808D02*
X60000Y66000D01*
X60000Y66000D01*
X60000Y48808D01*
X79793Y48808D01*
X81249Y49098D01*
X82622Y49666D01*
X82996Y49916D01*
X84350Y49355D01*
X86571Y48760D01*
X88850Y48460D01*
X90000Y48460D01*
X90000Y66000D01*
X90000Y66000D01*
X90000Y48460D01*
X91150Y48460D01*
X93429Y48760D01*
X95650Y49355D01*
X97774Y50235D01*
X99766Y51385D01*
X101590Y52784D01*
X103216Y54410D01*
X104615Y56234D01*
X105765Y58226D01*
X106645Y60350D01*
X107240Y62571D01*
X107540Y64850D01*
X107540Y66000D01*
X90000Y66000D01*
X90000Y66000D01*
X107540Y66000D01*
X107540Y67150D01*
X107240Y69429D01*
X106645Y71650D01*
X105765Y73774D01*
X104615Y75766D01*
X103216Y77590D01*
X101590Y79216D01*
X101006Y79664D01*
X103028Y80502D01*
X109498Y86972D01*
X113000Y95425D01*
X113000Y104575D01*
X109498Y113028D01*
X106080Y116447D01*
X106080Y147920D01*
X124596Y147920D01*
X131241Y150673D01*
X135395Y154826D01*
X138391Y151829D01*
X143169Y149850D01*
X145366Y149850D01*
X149784Y148020D01*
X159662Y148020D01*
X159904Y147920D01*
X161920Y147920D01*
X161920Y145300D01*
X148486Y145300D01*
X143156Y143092D01*
X139237Y139173D01*
X138467Y139493D01*
X136720Y139840D01*
X129830Y139840D01*
X129830Y123300D01*
X129830Y123300D01*
X129830Y139840D01*
X122940Y139840D01*
X121193Y139493D01*
X119548Y138811D01*
X118067Y137822D01*
X116808Y136563D01*
X115819Y135082D01*
X115137Y133437D01*
X114790Y131690D01*
X114790Y123300D01*
X129830Y123300D01*
X129830Y123300D01*
X114790Y123300D01*
X114790Y114910D01*
X115137Y113163D01*
X115819Y111518D01*
X116808Y110037D01*
X118067Y108778D01*
X119548Y107789D01*
X121193Y107107D01*
X122940Y106760D01*
X129830Y106760D01*
X129830Y123300D01*
X129830Y123300D01*
X129830Y106760D01*
X136720Y106760D01*
X138467Y107107D01*
X139237Y107427D01*
X143156Y103508D01*
X146221Y102238D01*
X145210Y99797D01*
X142327Y96914D01*
X140348Y92136D01*
X140348Y48864D01*
X140959Y47390D01*
X140000Y45075D01*
X140000Y35925D01*
X143502Y27472D01*
X149972Y21002D01*
X158039Y17660D01*
X17660Y17660D01*
X17660Y432340D01*
X582340Y432340D01*
X582340Y311239D01*
X582249Y311539D01*
X580963Y314644D01*
X579378Y317609D01*
X577511Y320403D01*
X575378Y323002D01*
X573002Y325378D01*
X570403Y327511D01*
X567609Y329378D01*
X564644Y330963D01*
X561539Y332249D01*
X558322Y333225D01*
X555026Y333881D01*
X552000Y334179D01*
X552000Y302000D01*
X548000Y302000D01*
X548000Y334179D01*
X544974Y333881D01*
X541678Y333225D01*
X538461Y332249D01*
X535356Y330963D01*
X532391Y329378D01*
X529597Y327511D01*
X526998Y325378D01*
X524622Y323002D01*
X522489Y320403D01*
X520622Y317609D01*
X519037Y314644D01*
X517751Y311539D01*
X516775Y308322D01*
X516119Y305026D01*
X515821Y302000D01*
X548000Y302000D01*
X548000Y298000D01*
X515821Y298000D01*
X516119Y294974D01*
X516775Y291678D01*
X517751Y288461D01*
X519037Y285356D01*
X520622Y282391D01*
X522489Y279597D01*
X524622Y276998D01*
X526998Y274622D01*
X529597Y272489D01*
X532391Y270622D01*
X535356Y269037D01*
X538461Y267751D01*
X541678Y266775D01*
X544974Y266119D01*
X548000Y265821D01*
X548000Y298000D01*
X552000Y298000D01*
X552000Y265821D01*
X555026Y266119D01*
X558322Y266775D01*
X561539Y267751D01*
X564644Y269037D01*
X567609Y270622D01*
X570403Y272489D01*
X573002Y274622D01*
X575378Y276998D01*
X577511Y279597D01*
X579378Y282391D01*
X580963Y285356D01*
X582249Y288461D01*
X582340Y288761D01*
X582340Y61239D01*
X582249Y61539D01*
X580963Y64644D01*
X579378Y67609D01*
X577511Y70403D01*
X575378Y73002D01*
X573002Y75378D01*
X570403Y77511D01*
X567609Y79378D01*
X564644Y80963D01*
X561539Y82249D01*
X558322Y83225D01*
X555026Y83881D01*
X552000Y84179D01*
X552000Y52000D01*
X548000Y52000D01*
X548000Y84179D01*
X544974Y83881D01*
X541678Y83225D01*
X538461Y82249D01*
X535356Y80963D01*
X532391Y79378D01*
X529597Y77511D01*
X526998Y75378D01*
X524622Y73002D01*
X522489Y70403D01*
X520622Y67609D01*
X519037Y64644D01*
X517751Y61539D01*
X516775Y58322D01*
X516119Y55026D01*
X515821Y52000D01*
X548000Y52000D01*
X548000Y48000D01*
X515821Y48000D01*
X516119Y44974D01*
X516775Y41678D01*
X517751Y38461D01*
X519037Y35356D01*
X520622Y32391D01*
X522489Y29597D01*
X524622Y26998D01*
X526998Y24622D01*
X529597Y22489D01*
X532391Y20622D01*
X535356Y19037D01*
X538461Y17751D01*
X538761Y17660D01*
X167961Y17660D01*
X176028Y21002D01*
X182498Y27472D01*
X183336Y29494D01*
X183784Y28910D01*
X185410Y27284D01*
X187234Y25885D01*
X189226Y24735D01*
X191350Y23855D01*
X193571Y23260D01*
X195850Y22960D01*
X197000Y22960D01*
X197000Y40500D01*
X197000Y40500D01*
X197000Y22960D01*
X198150Y22960D01*
X200429Y23260D01*
X202650Y23855D01*
X204774Y24735D01*
X206766Y25885D01*
X208590Y27284D01*
X210216Y28910D01*
X211615Y30734D01*
X212765Y32726D01*
X213645Y34850D01*
X214240Y37071D01*
X214540Y39350D01*
X214540Y40500D01*
X197000Y40500D01*
X197000Y40500D01*
X214540Y40500D01*
X214540Y41650D01*
X214240Y43929D01*
X213645Y46150D01*
X213084Y47504D01*
X213334Y47878D01*
X213902Y49251D01*
X214192Y50707D01*
X214192Y70500D01*
X197000Y70500D01*
X197000Y70500D01*
X214192Y70500D01*
X214192Y90293D01*
X213902Y91749D01*
X213334Y93122D01*
X212509Y94356D01*
X211458Y95407D01*
X210224Y96232D01*
X208851Y96800D01*
X207395Y97090D01*
X197000Y97090D01*
X197000Y70500D01*
X197000Y70500D01*
X197000Y97090D01*
X190159Y97090D01*
X195327Y102259D01*
X196844Y105920D01*
X218149Y105920D01*
X219861Y104208D01*
X225191Y102000D01*
X225484Y102000D01*
X223938Y101693D01*
X222293Y101011D01*
X220812Y100022D01*
X219553Y98763D01*
X218564Y97282D01*
X217882Y95637D01*
X217535Y93890D01*
X217535Y85500D01*
X232575Y85500D01*
X232575Y85500D01*
X217535Y85500D01*
X217535Y77110D01*
X217882Y75363D01*
X218564Y73718D01*
X219553Y72237D01*
X220812Y70978D01*
X222293Y69989D01*
X223938Y69307D01*
X225685Y68960D01*
X232575Y68960D01*
X232575Y85500D01*
X232575Y85500D01*
X232575Y68960D01*
X239465Y68960D01*
X240044Y69075D01*
X243411Y65708D01*
X248741Y63500D01*
X266509Y63500D01*
X271839Y65708D01*
X275917Y69786D01*
X278125Y75116D01*
X278125Y95884D01*
X277205Y98105D01*
X277205Y106920D01*
X287596Y106920D01*
X294241Y109673D01*
X299327Y114759D01*
X302080Y121404D01*
X302080Y182404D01*
X303792Y184116D01*
X306000Y189446D01*
X306000Y207214D01*
X303976Y212100D01*
X306000Y216986D01*
X306000Y234754D01*
X303792Y240084D01*
X301080Y242796D01*
X301080Y258553D01*
X302498Y259972D01*
X303336Y261994D01*
X303784Y261410D01*
X305410Y259784D01*
X307234Y258385D01*
X309226Y257235D01*
X311350Y256355D01*
X313571Y255760D01*
X315850Y255460D01*
X317000Y255460D01*
X317000Y273000D01*
X317000Y273000D01*
X317000Y255460D01*
X318150Y255460D01*
X320429Y255760D01*
X322650Y256355D01*
X324774Y257235D01*
X326766Y258385D01*
X328590Y259784D01*
X330216Y261410D01*
X331615Y263234D01*
X332765Y265226D01*
X333645Y267350D01*
X334240Y269571D01*
X334540Y271850D01*
X334540Y273000D01*
X317000Y273000D01*
X317000Y273000D01*
X334540Y273000D01*
X334540Y274150D01*
X334240Y276429D01*
X333645Y278650D01*
X333084Y280004D01*
X333334Y280378D01*
X333902Y281751D01*
X334192Y283207D01*
X334192Y303000D01*
X317000Y303000D01*
X317000Y303000D01*
X334192Y303000D01*
X334192Y322793D01*
X333902Y324249D01*
X333334Y325622D01*
X332509Y326856D01*
X331458Y327907D01*
X330224Y328732D01*
X328851Y329300D01*
X327395Y329590D01*
X317000Y329590D01*
X317000Y303000D01*
X317000Y303000D01*
X317000Y329590D01*
X306605Y329590D01*
X305149Y329300D01*
X303929Y328795D01*
X303673Y329414D01*
X300016Y333071D01*
X295238Y335050D01*
X270762Y335050D01*
X265984Y333071D01*
X262327Y329414D01*
X260348Y324636D01*
X260348Y282108D01*
X255826Y286630D01*
X249210Y289370D01*
X232352Y289370D01*
X232352Y324636D01*
X230373Y329414D01*
X226716Y333071D01*
X221938Y335050D01*
X197462Y335050D01*
X192684Y333071D01*
X189027Y329414D01*
X187048Y324636D01*
X187048Y281364D01*
X187996Y279075D01*
X186700Y275945D01*
X186700Y266795D01*
X190202Y258342D01*
X196356Y252187D01*
X195189Y251407D01*
X194138Y250356D01*
X193313Y249122D01*
X192745Y247749D01*
X192455Y246293D01*
X192455Y243695D01*
X188974Y240214D01*
X186995Y235436D01*
X186995Y225700D01*
X182190Y230505D01*
X176292Y232948D01*
X174005Y232948D01*
X174005Y235436D01*
X173792Y235950D01*
X174005Y236464D01*
X174005Y248136D01*
X172922Y250750D01*
X175628Y251872D01*
X182098Y258342D01*
X185600Y266795D01*
X185600Y275945D01*
X184304Y279075D01*
X185252Y281364D01*
X185252Y324636D01*
X183273Y329414D01*
X179616Y333071D01*
X174838Y335050D01*
X150362Y335050D01*
X145584Y333071D01*
X141927Y329414D01*
X139948Y324636D01*
X139948Y281364D01*
X140896Y279075D01*
X139607Y275962D01*
X130241Y285327D01*
X123596Y288080D01*
X104447Y288080D01*
X103028Y289498D01*
X101006Y290336D01*
X101590Y290784D01*
X103216Y292410D01*
X104615Y294234D01*
X105765Y296226D01*
X106645Y298350D01*
X107240Y300571D01*
X107540Y302850D01*
X107540Y304000D01*
X90000Y304000D01*
X90000Y304000D01*
X107540Y304000D01*
X107540Y305150D01*
X107240Y307429D01*
X106645Y309650D01*
X105765Y311774D01*
X104615Y313766D01*
X103216Y315590D01*
X101590Y317216D01*
X99766Y318615D01*
X97774Y319765D01*
X95650Y320645D01*
X93429Y321240D01*
X91150Y321540D01*
X90000Y321540D01*
X90000Y304000D01*
X90000Y304000D01*
X90000Y321540D01*
X88850Y321540D01*
X86571Y321240D01*
X84350Y320645D01*
X82996Y320084D01*
X82622Y320334D01*
X81249Y320902D01*
X79793Y321192D01*
X60000Y321192D01*
X60000Y304000D01*
X60000Y304000D01*
X60000Y321192D01*
X40207Y321192D01*
X38751Y320902D01*
X37378Y320334D01*
X36144Y319509D01*
X35093Y318458D01*
X34268Y317224D01*
X33700Y315851D01*
X33410Y314395D01*
X33410Y304000D01*
X60000Y304000D01*
X60000Y304000D01*
X33410Y304000D01*
X33410Y293605D01*
X33700Y292149D01*
X34205Y290929D01*
X33586Y290673D01*
X29929Y287016D01*
X27950Y282238D01*
X27950Y257762D01*
X29929Y252984D01*
X33586Y249327D01*
X38364Y247348D01*
X46920Y247348D01*
X46920Y179447D01*
X45502Y178028D01*
X42000Y169575D01*
X42000Y160425D01*
X45502Y151972D01*
X51972Y145502D01*
X60425Y142000D01*
X69575Y142000D01*
X69920Y142143D01*
X69920Y122652D01*
X38364Y122652D01*
X33586Y120673D01*
X29929Y117016D01*
X27950Y112238D01*
X27950Y87762D01*
X29929Y82984D01*
X33586Y79327D01*
X34205Y79071D01*
X33700Y77851D01*
X33410Y76395D01*
X33410Y66000D01*
X60000Y66000D01*
X60000Y66000D01*
X33410Y66000D01*
X33410Y55605D01*
X33700Y54149D01*
X34268Y52776D01*
X35093Y51542D01*
X36144Y50491D01*
X37378Y49666D01*
X38751Y49098D01*
X40207Y48808D01*
X472500Y392500D02*
X472500Y426682D01*
X472500Y392500D02*
X467500Y392500D01*
X467500Y426682D01*
X464601Y426396D01*
X461060Y425692D01*
X457604Y424643D01*
X454268Y423262D01*
X451084Y421560D01*
X448082Y419553D01*
X445290Y417263D01*
X442737Y414710D01*
X440447Y411918D01*
X438440Y408916D01*
X436738Y405732D01*
X435357Y402396D01*
X434308Y398940D01*
X433604Y395399D01*
X433318Y392500D01*
X467500Y392500D01*
X467500Y387500D01*
X433318Y387500D01*
X433604Y384601D01*
X434308Y381060D01*
X435357Y377604D01*
X436738Y374268D01*
X438440Y371084D01*
X440447Y368082D01*
X442737Y365290D01*
X445290Y362737D01*
X448082Y360447D01*
X451084Y358440D01*
X454268Y356738D01*
X457604Y355357D01*
X461060Y354308D01*
X464601Y353604D01*
X467500Y353318D01*
X467500Y387500D01*
X472500Y387500D01*
X472500Y353318D01*
X475399Y353604D01*
X478940Y354308D01*
X482396Y355357D01*
X485732Y356738D01*
X488916Y358440D01*
X491918Y360447D01*
X494710Y362737D01*
X497263Y365290D01*
X499553Y368082D01*
X501560Y371084D01*
X503262Y374268D01*
X504643Y377604D01*
X505692Y381060D01*
X506396Y384601D01*
X506682Y387500D01*
X472500Y387500D01*
X472500Y392500D01*
X506682Y392500D01*
X506396Y395399D01*
X505692Y398940D01*
X504643Y402396D01*
X503262Y405732D01*
X501560Y408916D01*
X499553Y411918D01*
X497263Y414710D01*
X494710Y417263D01*
X491918Y419553D01*
X488916Y421560D01*
X485732Y423262D01*
X482396Y424643D01*
X478940Y425692D01*
X475399Y426396D01*
X472500Y426682D01*
X142500Y426682D02*
X142500Y392500D01*
X137500Y392500D01*
X137500Y426682D01*
X134601Y426396D01*
X131060Y425692D01*
X127604Y424643D01*
X124268Y423262D01*
X121084Y421560D01*
X118082Y419553D01*
X115290Y417263D01*
X112737Y414710D01*
X110447Y411918D01*
X108440Y408916D01*
X106738Y405732D01*
X105357Y402396D01*
X104308Y398940D01*
X103604Y395399D01*
X103318Y392500D01*
X137500Y392500D01*
X137500Y387500D01*
X103318Y387500D01*
X103604Y384601D01*
X104308Y381060D01*
X105357Y377604D01*
X106738Y374268D01*
X108440Y371084D01*
X110447Y368082D01*
X112737Y365290D01*
X115290Y362737D01*
X118082Y360447D01*
X121084Y358440D01*
X124268Y356738D01*
X127604Y355357D01*
X131060Y354308D01*
X134601Y353604D01*
X137500Y353318D01*
X137500Y387500D01*
X142500Y387500D01*
X142500Y353318D01*
X145399Y353604D01*
X148940Y354308D01*
X152396Y355357D01*
X155732Y356738D01*
X158916Y358440D01*
X161918Y360447D01*
X164710Y362737D01*
X167263Y365290D01*
X169553Y368082D01*
X171560Y371084D01*
X173262Y374268D01*
X174643Y377604D01*
X175692Y381060D01*
X176396Y384601D01*
X176682Y387500D01*
X142500Y387500D01*
X142500Y392500D01*
X176682Y392500D01*
X176396Y395399D01*
X175692Y398940D01*
X174643Y402396D01*
X173262Y405732D01*
X171560Y408916D01*
X169553Y411918D01*
X167263Y414710D01*
X164710Y417263D01*
X161918Y419553D01*
X158916Y421560D01*
X155732Y423262D01*
X152396Y424643D01*
X148940Y425692D01*
X145399Y426396D01*
X142500Y426682D01*
X72460Y66000D02*
X60000Y66000D01*
X60000Y66000D01*
X90000Y66000D01*
X90000Y66000D01*
X72460Y66000D01*
X17660Y18000D02*
X157218Y18000D01*
X168782Y18000D02*
X537860Y18000D01*
X140000Y36000D02*
X17660Y36000D01*
X197000Y36000D02*
X197000Y36000D01*
X213953Y36000D02*
X518770Y36000D01*
X33761Y54000D02*
X17660Y54000D01*
X60000Y54000D02*
X60000Y54000D01*
X90000Y54000D02*
X90000Y54000D01*
X102805Y54000D02*
X140348Y54000D01*
X197000Y54000D02*
X197000Y54000D01*
X214192Y54000D02*
X516018Y54000D01*
X548000Y54000D02*
X552000Y54000D01*
X33410Y72000D02*
X17660Y72000D01*
X106500Y72000D02*
X140348Y72000D01*
X197000Y72000D02*
X197000Y72000D01*
X214192Y72000D02*
X219790Y72000D01*
X232575Y72000D02*
X232575Y72000D01*
X276834Y72000D02*
X523799Y72000D01*
X548000Y72000D02*
X552000Y72000D01*
X576201Y72000D02*
X582340Y72000D01*
X27950Y90000D02*
X17660Y90000D01*
X110753Y90000D02*
X140348Y90000D01*
X197000Y90000D02*
X197000Y90000D01*
X214192Y90000D02*
X217535Y90000D01*
X278125Y90000D02*
X582340Y90000D01*
X27950Y108000D02*
X17660Y108000D01*
X111581Y108000D02*
X119232Y108000D01*
X129830Y108000D02*
X129830Y108000D01*
X290204Y108000D02*
X582340Y108000D01*
X69920Y126000D02*
X17660Y126000D01*
X106080Y126000D02*
X114790Y126000D01*
X129830Y126000D02*
X129830Y126000D01*
X302080Y126000D02*
X582340Y126000D01*
X55597Y144000D02*
X17660Y144000D01*
X106080Y144000D02*
X145347Y144000D01*
X302080Y144000D02*
X582340Y144000D01*
X42000Y162000D02*
X17660Y162000D01*
X302080Y162000D02*
X582340Y162000D01*
X46920Y180000D02*
X17660Y180000D01*
X302080Y180000D02*
X582340Y180000D01*
X46920Y198000D02*
X17660Y198000D01*
X306000Y198000D02*
X582340Y198000D01*
X46920Y216000D02*
X17660Y216000D01*
X305592Y216000D02*
X582340Y216000D01*
X46920Y234000D02*
X17660Y234000D01*
X174005Y234000D02*
X186995Y234000D01*
X306000Y234000D02*
X582340Y234000D01*
X30913Y252000D02*
X17660Y252000D01*
X175757Y252000D02*
X196077Y252000D01*
X301080Y252000D02*
X582340Y252000D01*
X27950Y270000D02*
X17660Y270000D01*
X185600Y270000D02*
X186700Y270000D01*
X317000Y270000D02*
X317000Y270000D01*
X334296Y270000D02*
X533554Y270000D01*
X548000Y270000D02*
X552000Y270000D01*
X566446Y270000D02*
X582340Y270000D01*
X30913Y288000D02*
X17660Y288000D01*
X123789Y288000D02*
X139948Y288000D01*
X185252Y288000D02*
X187048Y288000D01*
X252518Y288000D02*
X260348Y288000D01*
X317000Y288000D02*
X317000Y288000D01*
X334192Y288000D02*
X517942Y288000D01*
X548000Y288000D02*
X552000Y288000D01*
X582058Y288000D02*
X582340Y288000D01*
X33410Y306000D02*
X17660Y306000D01*
X60000Y306000D02*
X60000Y306000D01*
X90000Y306000D02*
X90000Y306000D01*
X107428Y306000D02*
X139948Y306000D01*
X185252Y306000D02*
X187048Y306000D01*
X232352Y306000D02*
X260348Y306000D01*
X317000Y306000D02*
X317000Y306000D01*
X334192Y306000D02*
X516313Y306000D01*
X548000Y306000D02*
X552000Y306000D01*
X139948Y324000D02*
X17660Y324000D01*
X185252Y324000D02*
X187048Y324000D01*
X232352Y324000D02*
X260348Y324000D01*
X317000Y324000D02*
X317000Y324000D01*
X333952Y324000D02*
X525620Y324000D01*
X548000Y324000D02*
X552000Y324000D01*
X574380Y324000D02*
X582340Y324000D01*
X582340Y342000D02*
X17660Y342000D01*
X17660Y360000D02*
X118750Y360000D01*
X137500Y360000D02*
X142500Y360000D01*
X161250Y360000D02*
X448750Y360000D01*
X467500Y360000D02*
X472500Y360000D01*
X491250Y360000D02*
X582340Y360000D01*
X105237Y378000D02*
X17660Y378000D01*
X137500Y378000D02*
X142500Y378000D01*
X174763Y378000D02*
X435237Y378000D01*
X467500Y378000D02*
X472500Y378000D01*
X504763Y378000D02*
X582340Y378000D01*
X103724Y396000D02*
X17660Y396000D01*
X137500Y396000D02*
X142500Y396000D01*
X176276Y396000D02*
X433724Y396000D01*
X467500Y396000D02*
X472500Y396000D01*
X506276Y396000D02*
X582340Y396000D01*
X112155Y414000D02*
X17660Y414000D01*
X137500Y414000D02*
X142500Y414000D01*
X167845Y414000D02*
X442155Y414000D01*
X467500Y414000D02*
X472500Y414000D01*
X497845Y414000D02*
X582340Y414000D01*
X582340Y432000D02*
X17660Y432000D01*
X18000Y432340D02*
X18000Y17660D01*
X36000Y17660D02*
X36000Y50635D01*
X36000Y66000D02*
X36000Y66000D01*
X36000Y121673D02*
X36000Y248327D01*
X36000Y304000D02*
X36000Y304000D01*
X36000Y319365D02*
X36000Y432340D01*
X54000Y48808D02*
X54000Y17660D01*
X54000Y66000D02*
X54000Y66000D01*
X54000Y122652D02*
X54000Y144661D01*
X54000Y304000D02*
X54000Y304000D01*
X54000Y321192D02*
X54000Y432340D01*
X72000Y48808D02*
X72000Y17660D01*
X72000Y66000D02*
X72000Y66000D01*
X72000Y304000D02*
X72000Y304000D01*
X72000Y321192D02*
X72000Y432340D01*
X90000Y66000D02*
X90000Y17660D01*
X90000Y304000D02*
X90000Y432340D01*
X108000Y85473D02*
X108000Y17660D01*
X108000Y114527D02*
X108000Y147920D01*
X108000Y288080D02*
X108000Y371908D01*
X108000Y387500D02*
X108000Y392500D01*
X108000Y408092D02*
X108000Y432340D01*
X126000Y106760D02*
X126000Y17660D01*
X126000Y123300D02*
X126000Y123300D01*
X126000Y139840D02*
X126000Y148501D01*
X126000Y287084D02*
X126000Y356021D01*
X126000Y387500D02*
X126000Y392500D01*
X126000Y423979D02*
X126000Y432340D01*
X144000Y26973D02*
X144000Y17660D01*
X144000Y98587D02*
X144000Y103158D01*
X144000Y143442D02*
X144000Y149850D01*
X144000Y331487D02*
X144000Y353466D01*
X144000Y387500D02*
X144000Y392500D01*
X144000Y426534D02*
X144000Y432340D01*
X162000Y360514D02*
X162000Y335050D01*
X162000Y387500D02*
X162000Y392500D01*
X162000Y419486D02*
X162000Y432340D01*
X180000Y24973D02*
X180000Y17660D01*
X180000Y231412D02*
X180000Y256243D01*
X180000Y332687D02*
X180000Y432340D01*
X198000Y22960D02*
X198000Y17660D01*
X198000Y40500D02*
X198000Y40500D01*
X198000Y70500D02*
X198000Y70500D01*
X198000Y97090D02*
X198000Y105920D01*
X198000Y335050D02*
X198000Y432340D01*
X216000Y105920D02*
X216000Y17660D01*
X216000Y335050D02*
X216000Y432340D01*
X234000Y68960D02*
X234000Y17660D01*
X234000Y289370D02*
X234000Y432340D01*
X252000Y63500D02*
X252000Y17660D01*
X252000Y288214D02*
X252000Y432340D01*
X270000Y64946D02*
X270000Y17660D01*
X270000Y334734D02*
X270000Y432340D01*
X288000Y107087D02*
X288000Y17660D01*
X288000Y335050D02*
X288000Y432340D01*
X306000Y259332D02*
X306000Y17660D01*
X306000Y329470D02*
X306000Y432340D01*
X324000Y256914D02*
X324000Y17660D01*
X324000Y273000D02*
X324000Y273000D01*
X324000Y303000D02*
X324000Y303000D01*
X324000Y329590D02*
X324000Y432340D01*
X342000Y432340D02*
X342000Y17660D01*
X360000Y17660D02*
X360000Y432340D01*
X378000Y432340D02*
X378000Y17660D01*
X396000Y17660D02*
X396000Y432340D01*
X414000Y432340D02*
X414000Y17660D01*
X432000Y17660D02*
X432000Y432340D01*
X450000Y359165D02*
X450000Y17660D01*
X450000Y387500D02*
X450000Y392500D01*
X450000Y420835D02*
X450000Y432340D01*
X468000Y387500D02*
X468000Y17660D01*
X468000Y392500D02*
X468000Y432340D01*
X486000Y356882D02*
X486000Y17660D01*
X486000Y387500D02*
X486000Y392500D01*
X486000Y423118D02*
X486000Y432340D01*
X504000Y376051D02*
X504000Y17660D01*
X504000Y387500D02*
X504000Y392500D01*
X504000Y403949D02*
X504000Y432340D01*
X522000Y30329D02*
X522000Y17660D01*
X522000Y48000D02*
X522000Y52000D01*
X522000Y69671D02*
X522000Y280329D01*
X522000Y298000D02*
X522000Y302000D01*
X522000Y319671D02*
X522000Y432340D01*
X540000Y52000D02*
X540000Y48000D01*
X540000Y82716D02*
X540000Y267284D01*
X540000Y298000D02*
X540000Y302000D01*
X540000Y332716D02*
X540000Y432340D01*
X558000Y266711D02*
X558000Y83289D01*
X558000Y333289D02*
X558000Y432340D01*
X576000Y277756D02*
X576000Y72244D01*
X576000Y322244D02*
X576000Y432340D01*
D18*
X207620Y242300D02*
X197700Y242300D01*
X185000Y255000D01*
D19*
X153380Y170000D02*
X153380Y166100D01*
X153380Y175000D02*
X153380Y178800D01*
X205000Y166100D02*
X207620Y166100D01*
D18*
X205000Y166100D01*
X173100Y216900D02*
X153380Y216900D01*
X185800Y204200D02*
X207620Y204200D01*
X180000Y210000D02*
X173100Y216900D01*
X180000Y210000D02*
X185800Y204200D01*
X180000Y170000D02*
X180000Y166100D01*
D20*
X180000Y170000D02*
X180000Y200000D01*
D18*
X180000Y210000D01*
X160000Y166100D02*
X155000Y166100D01*
X153380Y166100D01*
X163400Y166100D02*
X163500Y166000D01*
D20*
X179900Y166000D01*
X180000Y166100D01*
X180100Y166000D01*
X194000Y166000D01*
D18*
X207520Y166000D02*
X207620Y166100D01*
D20*
X153380Y166100D02*
X153380Y175000D01*
X153380Y166100D01*
X153380Y175000D01*
X160000Y166100D02*
X163400Y166100D01*
X233575Y124500D02*
X234075Y124000D01*
D18*
X207620Y166000D02*
X207620Y166100D01*
X207620Y166000D02*
X194000Y166000D01*
D20*
X180000Y166100D02*
X180000Y120000D01*
X180000Y112500D01*
X163000Y95500D01*
X163000Y70500D01*
X184000Y124000D02*
X234075Y124000D01*
X184000Y124000D02*
X180000Y120000D01*
X183300Y123300D02*
X157370Y123300D01*
X183300Y123300D02*
X184000Y124000D01*
X163000Y70500D02*
X163000Y40500D01*
D18*
X153380Y216900D02*
X140500Y216900D01*
X140500Y217000D01*
X207620Y204200D02*
X221500Y204200D01*
X221500Y204000D01*
D13*
X255000Y198250D03*
X111000Y198500D03*
D18*
X207620Y191500D02*
X244000Y191500D01*
D19*
X255000Y198250D01*
X153380Y204200D02*
X125200Y204200D01*
X125000Y204000D01*
D17*
X116500Y204000D01*
X111000Y198500D01*
D20*
X250800Y198300D02*
X255000Y198250D01*
X255080Y198330D02*
X284000Y198330D01*
X255080Y198330D02*
X255000Y198250D01*
X284000Y198330D02*
X284000Y125000D01*
X260125Y125000D02*
X259125Y124000D01*
X260125Y125000D02*
X284000Y125000D01*
X259125Y87000D02*
X257625Y85500D01*
X259125Y87000D02*
X259125Y124000D01*
D19*
X153380Y229600D02*
X135400Y229600D01*
D18*
X132500Y232500D01*
D17*
X132500Y257500D01*
D18*
X207620Y178800D02*
X226200Y178800D01*
D13*
X255000Y166000D03*
X65000Y165000D03*
D18*
X226200Y178800D02*
X231200Y178800D01*
X235000Y175000D01*
D20*
X244000Y166000D01*
X255000Y166000D01*
X120000Y270000D02*
X90000Y270000D01*
X65000Y270000D02*
X65000Y165000D01*
X65000Y270000D02*
X90000Y270000D01*
X120000Y270000D02*
X132500Y257500D01*
D18*
X207620Y229600D02*
X229600Y229600D01*
D13*
X235000Y245000D03*
X110000Y245000D03*
D19*
X136500Y191500D02*
X153380Y191500D01*
X136500Y191500D02*
X133500Y188500D01*
D20*
X235000Y235000D02*
X235000Y245000D01*
D18*
X235000Y235000D02*
X229600Y229600D01*
D20*
X110000Y245000D02*
X100000Y245000D01*
X88000Y233000D01*
X90000Y100000D02*
X60000Y100000D01*
X130000Y185000D02*
X133500Y188500D01*
X130000Y185000D02*
X130000Y175000D01*
X121000Y166000D01*
X88000Y166000D02*
X88000Y233000D01*
X88000Y166000D02*
X121000Y166000D01*
X90000Y100000D02*
X88000Y100000D01*
X88000Y166000D01*
D19*
X207620Y216900D02*
X241900Y216900D01*
D20*
X209700Y271370D02*
X209700Y303000D01*
D17*
X246900Y221900D02*
X251400Y221900D01*
X246900Y221900D02*
X241900Y216900D01*
X251400Y221900D02*
X258500Y229000D01*
X245630Y271370D02*
X209700Y271370D01*
X258500Y258500D02*
X258500Y229000D01*
X258500Y258500D02*
X245630Y271370D01*
D20*
X162600Y271370D02*
X162600Y303000D01*
D19*
X163380Y280590D02*
X163380Y272150D01*
X162600Y271370D01*
D18*
X153380Y260380D02*
X153380Y242300D01*
X153380Y260380D02*
X163500Y270500D01*
D20*
X163500Y280470D01*
X163380Y280590D01*
X283000Y273000D02*
X283000Y303000D01*
X284000Y236000D02*
X284000Y225870D01*
X283000Y237000D02*
X283000Y273000D01*
X283000Y237000D02*
X284000Y236000D01*
M02*
