G04 EAGLE Gerber RS-274X export*
G75*
%MOMM*%
%FSLAX34Y34*%
%LPD*%
%INSilkscreen Top*%
%IPPOS*%
%AMOC8*
5,1,8,0,0,1.08239X$1,22.5*%
G01*
%ADD10C,0.101600*%
%ADD11C,0.200000*%
%ADD12C,0.152400*%
%ADD13C,0.203200*%
%ADD14C,0.050800*%

G36*
X580155Y14930D02*
X580155Y14930D01*
X580310Y14930D01*
X580472Y14950D01*
X580636Y14961D01*
X580788Y14990D01*
X580942Y15009D01*
X581101Y15049D01*
X581262Y15080D01*
X581409Y15128D01*
X581559Y15166D01*
X581712Y15226D01*
X581868Y15277D01*
X582008Y15343D01*
X582152Y15399D01*
X582296Y15478D01*
X582444Y15548D01*
X582575Y15630D01*
X582711Y15705D01*
X582844Y15801D01*
X582983Y15889D01*
X583102Y15987D01*
X583228Y16078D01*
X583347Y16190D01*
X583474Y16294D01*
X583580Y16407D01*
X583693Y16513D01*
X583798Y16639D01*
X583910Y16758D01*
X584002Y16884D01*
X584101Y17003D01*
X584189Y17141D01*
X584285Y17274D01*
X584360Y17409D01*
X584444Y17540D01*
X584514Y17688D01*
X584593Y17831D01*
X584650Y17975D01*
X584717Y18115D01*
X584768Y18271D01*
X584828Y18424D01*
X584867Y18574D01*
X584916Y18721D01*
X584947Y18882D01*
X584988Y19040D01*
X585007Y19194D01*
X585037Y19346D01*
X585047Y19505D01*
X585069Y19672D01*
X585069Y19841D01*
X585079Y20000D01*
X585079Y330000D01*
X585070Y330155D01*
X585070Y330310D01*
X585050Y330472D01*
X585039Y330636D01*
X585010Y330788D01*
X584991Y330942D01*
X584951Y331101D01*
X584920Y331262D01*
X584872Y331409D01*
X584834Y331559D01*
X584774Y331712D01*
X584723Y331868D01*
X584658Y332008D01*
X584601Y332152D01*
X584522Y332296D01*
X584452Y332444D01*
X584370Y332575D01*
X584295Y332711D01*
X584199Y332844D01*
X584111Y332983D01*
X584013Y333102D01*
X583922Y333228D01*
X583810Y333347D01*
X583706Y333474D01*
X583593Y333580D01*
X583487Y333693D01*
X583361Y333798D01*
X583242Y333910D01*
X583116Y334002D01*
X582997Y334101D01*
X582859Y334189D01*
X582727Y334285D01*
X582591Y334360D01*
X582460Y334444D01*
X582312Y334514D01*
X582169Y334593D01*
X582025Y334650D01*
X581885Y334717D01*
X581729Y334768D01*
X581576Y334828D01*
X581426Y334867D01*
X581279Y334916D01*
X581118Y334947D01*
X580960Y334988D01*
X580806Y335007D01*
X580654Y335037D01*
X580495Y335047D01*
X580328Y335069D01*
X580159Y335069D01*
X580000Y335079D01*
X360000Y335079D01*
X359846Y335070D01*
X359690Y335070D01*
X359528Y335050D01*
X359364Y335039D01*
X359212Y335010D01*
X359058Y334991D01*
X358899Y334951D01*
X358738Y334920D01*
X358591Y334872D01*
X358441Y334834D01*
X358288Y334774D01*
X358132Y334723D01*
X357992Y334658D01*
X357848Y334601D01*
X357704Y334522D01*
X357556Y334452D01*
X357425Y334370D01*
X357289Y334295D01*
X357156Y334199D01*
X357017Y334111D01*
X356898Y334013D01*
X356772Y333922D01*
X356653Y333810D01*
X356526Y333706D01*
X356420Y333593D01*
X356307Y333487D01*
X356202Y333361D01*
X356090Y333242D01*
X355998Y333116D01*
X355899Y332997D01*
X355811Y332859D01*
X355715Y332727D01*
X355640Y332591D01*
X355556Y332460D01*
X355486Y332312D01*
X355407Y332169D01*
X355350Y332025D01*
X355283Y331885D01*
X355232Y331729D01*
X355172Y331576D01*
X355133Y331426D01*
X355085Y331279D01*
X355053Y331118D01*
X355012Y330960D01*
X354993Y330806D01*
X354963Y330654D01*
X354953Y330495D01*
X354931Y330328D01*
X354931Y330159D01*
X354921Y330000D01*
X354921Y20000D01*
X354930Y19846D01*
X354930Y19690D01*
X354950Y19528D01*
X354961Y19364D01*
X354990Y19212D01*
X355009Y19058D01*
X355049Y18899D01*
X355080Y18738D01*
X355128Y18591D01*
X355166Y18441D01*
X355226Y18288D01*
X355277Y18132D01*
X355343Y17992D01*
X355399Y17848D01*
X355478Y17704D01*
X355548Y17556D01*
X355630Y17425D01*
X355705Y17289D01*
X355801Y17156D01*
X355889Y17017D01*
X355987Y16898D01*
X356078Y16772D01*
X356190Y16653D01*
X356294Y16526D01*
X356407Y16420D01*
X356513Y16307D01*
X356639Y16202D01*
X356758Y16090D01*
X356884Y15998D01*
X357003Y15899D01*
X357141Y15811D01*
X357274Y15715D01*
X357409Y15640D01*
X357540Y15556D01*
X357688Y15486D01*
X357831Y15407D01*
X357975Y15350D01*
X358115Y15283D01*
X358271Y15232D01*
X358424Y15172D01*
X358574Y15133D01*
X358721Y15085D01*
X358882Y15053D01*
X359040Y15012D01*
X359194Y14993D01*
X359346Y14963D01*
X359505Y14953D01*
X359672Y14931D01*
X359841Y14931D01*
X360000Y14921D01*
X580000Y14921D01*
X580155Y14930D01*
G37*
D10*
X308892Y213436D02*
X308892Y210839D01*
X308890Y210740D01*
X308884Y210640D01*
X308875Y210541D01*
X308862Y210443D01*
X308845Y210345D01*
X308824Y210247D01*
X308799Y210151D01*
X308771Y210056D01*
X308739Y209962D01*
X308704Y209869D01*
X308665Y209777D01*
X308622Y209687D01*
X308577Y209599D01*
X308527Y209512D01*
X308475Y209428D01*
X308419Y209345D01*
X308361Y209265D01*
X308299Y209187D01*
X308234Y209112D01*
X308166Y209039D01*
X308096Y208969D01*
X308023Y208901D01*
X307948Y208836D01*
X307870Y208774D01*
X307790Y208716D01*
X307707Y208660D01*
X307623Y208608D01*
X307536Y208558D01*
X307448Y208513D01*
X307358Y208470D01*
X307266Y208431D01*
X307173Y208396D01*
X307079Y208364D01*
X306984Y208336D01*
X306888Y208311D01*
X306790Y208290D01*
X306692Y208273D01*
X306594Y208260D01*
X306495Y208251D01*
X306395Y208245D01*
X306296Y208243D01*
X299804Y208243D01*
X299804Y208242D02*
X299705Y208244D01*
X299605Y208250D01*
X299506Y208259D01*
X299408Y208272D01*
X299310Y208290D01*
X299212Y208310D01*
X299116Y208335D01*
X299020Y208363D01*
X298926Y208395D01*
X298833Y208430D01*
X298742Y208469D01*
X298652Y208512D01*
X298563Y208557D01*
X298477Y208607D01*
X298392Y208659D01*
X298310Y208715D01*
X298230Y208774D01*
X298152Y208835D01*
X298076Y208900D01*
X298003Y208968D01*
X297933Y209038D01*
X297865Y209111D01*
X297800Y209187D01*
X297739Y209265D01*
X297680Y209345D01*
X297624Y209427D01*
X297572Y209512D01*
X297523Y209598D01*
X297477Y209687D01*
X297434Y209777D01*
X297395Y209868D01*
X297360Y209961D01*
X297328Y210055D01*
X297300Y210151D01*
X297275Y210247D01*
X297255Y210345D01*
X297237Y210443D01*
X297224Y210541D01*
X297215Y210640D01*
X297209Y210739D01*
X297207Y210839D01*
X297208Y210839D02*
X297208Y213436D01*
X299804Y217801D02*
X297208Y221046D01*
X308892Y221046D01*
X308892Y217801D02*
X308892Y224292D01*
X144936Y98408D02*
X142339Y98408D01*
X142240Y98410D01*
X142140Y98416D01*
X142041Y98425D01*
X141943Y98438D01*
X141845Y98455D01*
X141747Y98476D01*
X141651Y98501D01*
X141556Y98529D01*
X141462Y98561D01*
X141369Y98596D01*
X141277Y98635D01*
X141187Y98678D01*
X141099Y98723D01*
X141012Y98773D01*
X140928Y98825D01*
X140845Y98881D01*
X140765Y98939D01*
X140687Y99001D01*
X140612Y99066D01*
X140539Y99134D01*
X140469Y99204D01*
X140401Y99277D01*
X140336Y99352D01*
X140274Y99430D01*
X140216Y99510D01*
X140160Y99593D01*
X140108Y99677D01*
X140058Y99764D01*
X140013Y99852D01*
X139970Y99942D01*
X139931Y100034D01*
X139896Y100127D01*
X139864Y100221D01*
X139836Y100316D01*
X139811Y100412D01*
X139790Y100510D01*
X139773Y100608D01*
X139760Y100706D01*
X139751Y100805D01*
X139745Y100905D01*
X139743Y101004D01*
X139743Y107496D01*
X139745Y107595D01*
X139751Y107695D01*
X139760Y107794D01*
X139773Y107892D01*
X139790Y107990D01*
X139811Y108088D01*
X139836Y108184D01*
X139864Y108279D01*
X139896Y108373D01*
X139931Y108466D01*
X139970Y108558D01*
X140013Y108648D01*
X140058Y108736D01*
X140108Y108823D01*
X140160Y108907D01*
X140216Y108990D01*
X140274Y109070D01*
X140336Y109148D01*
X140401Y109223D01*
X140469Y109296D01*
X140539Y109366D01*
X140612Y109434D01*
X140687Y109499D01*
X140765Y109561D01*
X140845Y109619D01*
X140928Y109675D01*
X141012Y109727D01*
X141099Y109777D01*
X141187Y109822D01*
X141277Y109865D01*
X141369Y109904D01*
X141461Y109939D01*
X141556Y109971D01*
X141651Y109999D01*
X141747Y110024D01*
X141845Y110045D01*
X141943Y110062D01*
X142041Y110075D01*
X142140Y110084D01*
X142240Y110090D01*
X142339Y110092D01*
X144936Y110092D01*
X152871Y110092D02*
X152978Y110090D01*
X153084Y110084D01*
X153190Y110074D01*
X153296Y110061D01*
X153402Y110043D01*
X153506Y110022D01*
X153610Y109997D01*
X153713Y109968D01*
X153814Y109936D01*
X153914Y109899D01*
X154013Y109859D01*
X154111Y109816D01*
X154207Y109769D01*
X154301Y109718D01*
X154393Y109664D01*
X154483Y109607D01*
X154571Y109547D01*
X154656Y109483D01*
X154739Y109416D01*
X154820Y109346D01*
X154898Y109274D01*
X154974Y109198D01*
X155046Y109120D01*
X155116Y109039D01*
X155183Y108956D01*
X155247Y108871D01*
X155307Y108783D01*
X155364Y108693D01*
X155418Y108601D01*
X155469Y108507D01*
X155516Y108411D01*
X155559Y108313D01*
X155599Y108214D01*
X155636Y108114D01*
X155668Y108013D01*
X155697Y107910D01*
X155722Y107806D01*
X155743Y107702D01*
X155761Y107596D01*
X155774Y107490D01*
X155784Y107384D01*
X155790Y107278D01*
X155792Y107171D01*
X152871Y110092D02*
X152750Y110090D01*
X152629Y110084D01*
X152509Y110074D01*
X152388Y110061D01*
X152269Y110043D01*
X152149Y110022D01*
X152031Y109997D01*
X151914Y109968D01*
X151797Y109935D01*
X151682Y109899D01*
X151568Y109858D01*
X151455Y109815D01*
X151343Y109767D01*
X151234Y109716D01*
X151126Y109661D01*
X151019Y109603D01*
X150915Y109542D01*
X150813Y109477D01*
X150713Y109409D01*
X150615Y109338D01*
X150519Y109264D01*
X150426Y109187D01*
X150336Y109106D01*
X150248Y109023D01*
X150163Y108937D01*
X150080Y108848D01*
X150001Y108757D01*
X149924Y108663D01*
X149851Y108567D01*
X149781Y108469D01*
X149714Y108368D01*
X149650Y108265D01*
X149590Y108160D01*
X149533Y108053D01*
X149479Y107945D01*
X149429Y107835D01*
X149383Y107723D01*
X149340Y107610D01*
X149301Y107495D01*
X154819Y104899D02*
X154898Y104976D01*
X154974Y105057D01*
X155047Y105140D01*
X155117Y105225D01*
X155184Y105313D01*
X155248Y105403D01*
X155308Y105495D01*
X155365Y105590D01*
X155419Y105686D01*
X155470Y105784D01*
X155517Y105884D01*
X155561Y105986D01*
X155601Y106089D01*
X155637Y106193D01*
X155669Y106299D01*
X155698Y106405D01*
X155723Y106513D01*
X155745Y106621D01*
X155762Y106731D01*
X155776Y106840D01*
X155785Y106950D01*
X155791Y107061D01*
X155793Y107171D01*
X154818Y104899D02*
X149301Y98408D01*
X155792Y98408D01*
D11*
X164500Y160950D02*
X196500Y160950D01*
X164500Y160950D02*
X164500Y247450D01*
X196500Y247450D01*
X196500Y160950D01*
X200000Y159350D02*
X215250Y159350D01*
D10*
X170192Y168358D02*
X170192Y180042D01*
X168894Y168358D02*
X171490Y168358D01*
X171490Y180042D02*
X168894Y180042D01*
X178654Y168358D02*
X181250Y168358D01*
X178654Y168358D02*
X178555Y168360D01*
X178455Y168366D01*
X178356Y168375D01*
X178258Y168388D01*
X178160Y168405D01*
X178062Y168426D01*
X177966Y168451D01*
X177871Y168479D01*
X177777Y168511D01*
X177684Y168546D01*
X177592Y168585D01*
X177502Y168628D01*
X177414Y168673D01*
X177327Y168723D01*
X177243Y168775D01*
X177160Y168831D01*
X177080Y168889D01*
X177002Y168951D01*
X176927Y169016D01*
X176854Y169084D01*
X176784Y169154D01*
X176716Y169227D01*
X176651Y169302D01*
X176589Y169380D01*
X176531Y169460D01*
X176475Y169543D01*
X176423Y169627D01*
X176373Y169714D01*
X176328Y169802D01*
X176285Y169892D01*
X176246Y169984D01*
X176211Y170077D01*
X176179Y170171D01*
X176151Y170266D01*
X176126Y170362D01*
X176105Y170460D01*
X176088Y170558D01*
X176075Y170656D01*
X176066Y170755D01*
X176060Y170855D01*
X176058Y170954D01*
X176057Y170954D02*
X176057Y177446D01*
X176058Y177446D02*
X176060Y177545D01*
X176066Y177645D01*
X176075Y177744D01*
X176088Y177842D01*
X176105Y177940D01*
X176126Y178038D01*
X176151Y178134D01*
X176179Y178229D01*
X176211Y178323D01*
X176246Y178416D01*
X176285Y178508D01*
X176328Y178598D01*
X176373Y178686D01*
X176423Y178773D01*
X176475Y178857D01*
X176531Y178940D01*
X176589Y179020D01*
X176651Y179098D01*
X176716Y179173D01*
X176784Y179246D01*
X176854Y179316D01*
X176927Y179384D01*
X177002Y179449D01*
X177080Y179511D01*
X177160Y179569D01*
X177243Y179625D01*
X177327Y179677D01*
X177414Y179727D01*
X177502Y179772D01*
X177592Y179815D01*
X177684Y179854D01*
X177776Y179889D01*
X177871Y179921D01*
X177966Y179949D01*
X178062Y179974D01*
X178160Y179995D01*
X178258Y180012D01*
X178356Y180025D01*
X178455Y180034D01*
X178555Y180040D01*
X178654Y180042D01*
X181250Y180042D01*
X185615Y177446D02*
X188861Y180042D01*
X188861Y168358D01*
X192106Y168358D02*
X185615Y168358D01*
X209095Y149292D02*
X209095Y137608D01*
X209095Y149292D02*
X212340Y149292D01*
X212453Y149290D01*
X212566Y149284D01*
X212679Y149274D01*
X212792Y149260D01*
X212904Y149243D01*
X213015Y149221D01*
X213125Y149196D01*
X213235Y149166D01*
X213343Y149133D01*
X213450Y149096D01*
X213556Y149056D01*
X213660Y149011D01*
X213763Y148963D01*
X213864Y148912D01*
X213963Y148857D01*
X214060Y148799D01*
X214155Y148737D01*
X214248Y148672D01*
X214338Y148604D01*
X214426Y148533D01*
X214512Y148458D01*
X214595Y148381D01*
X214675Y148301D01*
X214752Y148218D01*
X214827Y148132D01*
X214898Y148044D01*
X214966Y147954D01*
X215031Y147861D01*
X215093Y147766D01*
X215151Y147669D01*
X215206Y147570D01*
X215257Y147469D01*
X215305Y147366D01*
X215350Y147262D01*
X215390Y147156D01*
X215427Y147049D01*
X215460Y146941D01*
X215490Y146831D01*
X215515Y146721D01*
X215537Y146610D01*
X215554Y146498D01*
X215568Y146385D01*
X215578Y146272D01*
X215584Y146159D01*
X215586Y146046D01*
X215584Y145933D01*
X215578Y145820D01*
X215568Y145707D01*
X215554Y145594D01*
X215537Y145482D01*
X215515Y145371D01*
X215490Y145261D01*
X215460Y145151D01*
X215427Y145043D01*
X215390Y144936D01*
X215350Y144830D01*
X215305Y144726D01*
X215257Y144623D01*
X215206Y144522D01*
X215151Y144423D01*
X215093Y144326D01*
X215031Y144231D01*
X214966Y144138D01*
X214898Y144048D01*
X214827Y143960D01*
X214752Y143874D01*
X214675Y143791D01*
X214595Y143711D01*
X214512Y143634D01*
X214426Y143559D01*
X214338Y143488D01*
X214248Y143420D01*
X214155Y143355D01*
X214060Y143293D01*
X213963Y143235D01*
X213864Y143180D01*
X213763Y143129D01*
X213660Y143081D01*
X213556Y143036D01*
X213450Y142996D01*
X213343Y142959D01*
X213235Y142926D01*
X213125Y142896D01*
X213015Y142871D01*
X212904Y142849D01*
X212792Y142832D01*
X212679Y142818D01*
X212566Y142808D01*
X212453Y142802D01*
X212340Y142800D01*
X212340Y142801D02*
X209095Y142801D01*
X212989Y142801D02*
X215586Y137608D01*
X220451Y146696D02*
X223696Y149292D01*
X223696Y137608D01*
X220451Y137608D02*
X226942Y137608D01*
X209258Y70392D02*
X209258Y58708D01*
X209258Y70392D02*
X212504Y70392D01*
X212617Y70390D01*
X212730Y70384D01*
X212843Y70374D01*
X212956Y70360D01*
X213068Y70343D01*
X213179Y70321D01*
X213289Y70296D01*
X213399Y70266D01*
X213507Y70233D01*
X213614Y70196D01*
X213720Y70156D01*
X213824Y70111D01*
X213927Y70063D01*
X214028Y70012D01*
X214127Y69957D01*
X214224Y69899D01*
X214319Y69837D01*
X214412Y69772D01*
X214502Y69704D01*
X214590Y69633D01*
X214676Y69558D01*
X214759Y69481D01*
X214839Y69401D01*
X214916Y69318D01*
X214991Y69232D01*
X215062Y69144D01*
X215130Y69054D01*
X215195Y68961D01*
X215257Y68866D01*
X215315Y68769D01*
X215370Y68670D01*
X215421Y68569D01*
X215469Y68466D01*
X215514Y68362D01*
X215554Y68256D01*
X215591Y68149D01*
X215624Y68041D01*
X215654Y67931D01*
X215679Y67821D01*
X215701Y67710D01*
X215718Y67598D01*
X215732Y67485D01*
X215742Y67372D01*
X215748Y67259D01*
X215750Y67146D01*
X215748Y67033D01*
X215742Y66920D01*
X215732Y66807D01*
X215718Y66694D01*
X215701Y66582D01*
X215679Y66471D01*
X215654Y66361D01*
X215624Y66251D01*
X215591Y66143D01*
X215554Y66036D01*
X215514Y65930D01*
X215469Y65826D01*
X215421Y65723D01*
X215370Y65622D01*
X215315Y65523D01*
X215257Y65426D01*
X215195Y65331D01*
X215130Y65238D01*
X215062Y65148D01*
X214991Y65060D01*
X214916Y64974D01*
X214839Y64891D01*
X214759Y64811D01*
X214676Y64734D01*
X214590Y64659D01*
X214502Y64588D01*
X214412Y64520D01*
X214319Y64455D01*
X214224Y64393D01*
X214127Y64335D01*
X214028Y64280D01*
X213927Y64229D01*
X213824Y64181D01*
X213720Y64136D01*
X213614Y64096D01*
X213507Y64059D01*
X213399Y64026D01*
X213289Y63996D01*
X213179Y63971D01*
X213068Y63949D01*
X212956Y63932D01*
X212843Y63918D01*
X212730Y63908D01*
X212617Y63902D01*
X212504Y63900D01*
X212504Y63901D02*
X209258Y63901D01*
X213153Y63901D02*
X215749Y58708D01*
X227105Y67471D02*
X227103Y67578D01*
X227097Y67684D01*
X227087Y67790D01*
X227074Y67896D01*
X227056Y68002D01*
X227035Y68106D01*
X227010Y68210D01*
X226981Y68313D01*
X226949Y68414D01*
X226912Y68514D01*
X226872Y68613D01*
X226829Y68711D01*
X226782Y68807D01*
X226731Y68901D01*
X226677Y68993D01*
X226620Y69083D01*
X226560Y69171D01*
X226496Y69256D01*
X226429Y69339D01*
X226359Y69420D01*
X226287Y69498D01*
X226211Y69574D01*
X226133Y69646D01*
X226052Y69716D01*
X225969Y69783D01*
X225884Y69847D01*
X225796Y69907D01*
X225706Y69964D01*
X225614Y70018D01*
X225520Y70069D01*
X225424Y70116D01*
X225326Y70159D01*
X225227Y70199D01*
X225127Y70236D01*
X225026Y70268D01*
X224923Y70297D01*
X224819Y70322D01*
X224715Y70343D01*
X224609Y70361D01*
X224503Y70374D01*
X224397Y70384D01*
X224291Y70390D01*
X224184Y70392D01*
X224063Y70390D01*
X223942Y70384D01*
X223822Y70374D01*
X223701Y70361D01*
X223582Y70343D01*
X223462Y70322D01*
X223344Y70297D01*
X223227Y70268D01*
X223110Y70235D01*
X222995Y70199D01*
X222881Y70158D01*
X222768Y70115D01*
X222656Y70067D01*
X222547Y70016D01*
X222439Y69961D01*
X222332Y69903D01*
X222228Y69842D01*
X222126Y69777D01*
X222026Y69709D01*
X221928Y69638D01*
X221832Y69564D01*
X221739Y69487D01*
X221649Y69406D01*
X221561Y69323D01*
X221476Y69237D01*
X221393Y69148D01*
X221314Y69057D01*
X221237Y68963D01*
X221164Y68867D01*
X221094Y68769D01*
X221027Y68668D01*
X220963Y68565D01*
X220903Y68460D01*
X220846Y68353D01*
X220792Y68245D01*
X220742Y68135D01*
X220696Y68023D01*
X220653Y67910D01*
X220614Y67795D01*
X226132Y65199D02*
X226211Y65276D01*
X226287Y65357D01*
X226360Y65440D01*
X226430Y65525D01*
X226497Y65613D01*
X226561Y65703D01*
X226621Y65795D01*
X226678Y65890D01*
X226732Y65986D01*
X226783Y66084D01*
X226830Y66184D01*
X226874Y66286D01*
X226914Y66389D01*
X226950Y66493D01*
X226982Y66599D01*
X227011Y66705D01*
X227036Y66813D01*
X227058Y66921D01*
X227075Y67031D01*
X227089Y67140D01*
X227098Y67250D01*
X227104Y67361D01*
X227106Y67471D01*
X226132Y65199D02*
X220614Y58708D01*
X227105Y58708D01*
D12*
X435710Y390000D02*
X435720Y390842D01*
X435751Y391683D01*
X435803Y392523D01*
X435875Y393361D01*
X435968Y394197D01*
X436081Y395031D01*
X436215Y395862D01*
X436369Y396690D01*
X436543Y397513D01*
X436738Y398332D01*
X436952Y399146D01*
X437187Y399954D01*
X437441Y400756D01*
X437714Y401552D01*
X438008Y402341D01*
X438320Y403122D01*
X438652Y403896D01*
X439002Y404661D01*
X439371Y405417D01*
X439759Y406164D01*
X440165Y406901D01*
X440588Y407629D01*
X441030Y408345D01*
X441489Y409051D01*
X441965Y409744D01*
X442458Y410427D01*
X442968Y411096D01*
X443493Y411753D01*
X444035Y412397D01*
X444593Y413028D01*
X445166Y413644D01*
X445753Y414247D01*
X446356Y414834D01*
X446972Y415407D01*
X447603Y415965D01*
X448247Y416507D01*
X448904Y417032D01*
X449573Y417542D01*
X450256Y418035D01*
X450949Y418511D01*
X451655Y418970D01*
X452371Y419412D01*
X453099Y419835D01*
X453836Y420241D01*
X454583Y420629D01*
X455339Y420998D01*
X456104Y421348D01*
X456878Y421680D01*
X457659Y421992D01*
X458448Y422286D01*
X459244Y422559D01*
X460046Y422813D01*
X460854Y423048D01*
X461668Y423262D01*
X462487Y423457D01*
X463310Y423631D01*
X464138Y423785D01*
X464969Y423919D01*
X465803Y424032D01*
X466639Y424125D01*
X467477Y424197D01*
X468317Y424249D01*
X469158Y424280D01*
X470000Y424290D01*
X470842Y424280D01*
X471683Y424249D01*
X472523Y424197D01*
X473361Y424125D01*
X474197Y424032D01*
X475031Y423919D01*
X475862Y423785D01*
X476690Y423631D01*
X477513Y423457D01*
X478332Y423262D01*
X479146Y423048D01*
X479954Y422813D01*
X480756Y422559D01*
X481552Y422286D01*
X482341Y421992D01*
X483122Y421680D01*
X483896Y421348D01*
X484661Y420998D01*
X485417Y420629D01*
X486164Y420241D01*
X486901Y419835D01*
X487629Y419412D01*
X488345Y418970D01*
X489051Y418511D01*
X489744Y418035D01*
X490427Y417542D01*
X491096Y417032D01*
X491753Y416507D01*
X492397Y415965D01*
X493028Y415407D01*
X493644Y414834D01*
X494247Y414247D01*
X494834Y413644D01*
X495407Y413028D01*
X495965Y412397D01*
X496507Y411753D01*
X497032Y411096D01*
X497542Y410427D01*
X498035Y409744D01*
X498511Y409051D01*
X498970Y408345D01*
X499412Y407629D01*
X499835Y406901D01*
X500241Y406164D01*
X500629Y405417D01*
X500998Y404661D01*
X501348Y403896D01*
X501680Y403122D01*
X501992Y402341D01*
X502286Y401552D01*
X502559Y400756D01*
X502813Y399954D01*
X503048Y399146D01*
X503262Y398332D01*
X503457Y397513D01*
X503631Y396690D01*
X503785Y395862D01*
X503919Y395031D01*
X504032Y394197D01*
X504125Y393361D01*
X504197Y392523D01*
X504249Y391683D01*
X504280Y390842D01*
X504290Y390000D01*
X504280Y389158D01*
X504249Y388317D01*
X504197Y387477D01*
X504125Y386639D01*
X504032Y385803D01*
X503919Y384969D01*
X503785Y384138D01*
X503631Y383310D01*
X503457Y382487D01*
X503262Y381668D01*
X503048Y380854D01*
X502813Y380046D01*
X502559Y379244D01*
X502286Y378448D01*
X501992Y377659D01*
X501680Y376878D01*
X501348Y376104D01*
X500998Y375339D01*
X500629Y374583D01*
X500241Y373836D01*
X499835Y373099D01*
X499412Y372371D01*
X498970Y371655D01*
X498511Y370949D01*
X498035Y370256D01*
X497542Y369573D01*
X497032Y368904D01*
X496507Y368247D01*
X495965Y367603D01*
X495407Y366972D01*
X494834Y366356D01*
X494247Y365753D01*
X493644Y365166D01*
X493028Y364593D01*
X492397Y364035D01*
X491753Y363493D01*
X491096Y362968D01*
X490427Y362458D01*
X489744Y361965D01*
X489051Y361489D01*
X488345Y361030D01*
X487629Y360588D01*
X486901Y360165D01*
X486164Y359759D01*
X485417Y359371D01*
X484661Y359002D01*
X483896Y358652D01*
X483122Y358320D01*
X482341Y358008D01*
X481552Y357714D01*
X480756Y357441D01*
X479954Y357187D01*
X479146Y356952D01*
X478332Y356738D01*
X477513Y356543D01*
X476690Y356369D01*
X475862Y356215D01*
X475031Y356081D01*
X474197Y355968D01*
X473361Y355875D01*
X472523Y355803D01*
X471683Y355751D01*
X470842Y355720D01*
X470000Y355710D01*
X469158Y355720D01*
X468317Y355751D01*
X467477Y355803D01*
X466639Y355875D01*
X465803Y355968D01*
X464969Y356081D01*
X464138Y356215D01*
X463310Y356369D01*
X462487Y356543D01*
X461668Y356738D01*
X460854Y356952D01*
X460046Y357187D01*
X459244Y357441D01*
X458448Y357714D01*
X457659Y358008D01*
X456878Y358320D01*
X456104Y358652D01*
X455339Y359002D01*
X454583Y359371D01*
X453836Y359759D01*
X453099Y360165D01*
X452371Y360588D01*
X451655Y361030D01*
X450949Y361489D01*
X450256Y361965D01*
X449573Y362458D01*
X448904Y362968D01*
X448247Y363493D01*
X447603Y364035D01*
X446972Y364593D01*
X446356Y365166D01*
X445753Y365753D01*
X445166Y366356D01*
X444593Y366972D01*
X444035Y367603D01*
X443493Y368247D01*
X442968Y368904D01*
X442458Y369573D01*
X441965Y370256D01*
X441489Y370949D01*
X441030Y371655D01*
X440588Y372371D01*
X440165Y373099D01*
X439759Y373836D01*
X439371Y374583D01*
X439002Y375339D01*
X438652Y376104D01*
X438320Y376878D01*
X438008Y377659D01*
X437714Y378448D01*
X437441Y379244D01*
X437187Y380046D01*
X436952Y380854D01*
X436738Y381668D01*
X436543Y382487D01*
X436369Y383310D01*
X436215Y384138D01*
X436081Y384969D01*
X435968Y385803D01*
X435875Y386639D01*
X435803Y387477D01*
X435751Y388317D01*
X435720Y389158D01*
X435710Y390000D01*
D13*
X454000Y390000D02*
X454005Y390393D01*
X454019Y390785D01*
X454043Y391177D01*
X454077Y391568D01*
X454120Y391959D01*
X454173Y392348D01*
X454236Y392735D01*
X454307Y393121D01*
X454389Y393506D01*
X454479Y393888D01*
X454580Y394267D01*
X454689Y394645D01*
X454808Y395019D01*
X454935Y395390D01*
X455072Y395758D01*
X455218Y396123D01*
X455373Y396484D01*
X455536Y396841D01*
X455708Y397194D01*
X455889Y397542D01*
X456079Y397886D01*
X456276Y398226D01*
X456482Y398560D01*
X456696Y398889D01*
X456919Y399213D01*
X457149Y399531D01*
X457386Y399844D01*
X457632Y400150D01*
X457885Y400451D01*
X458145Y400745D01*
X458412Y401033D01*
X458686Y401314D01*
X458967Y401588D01*
X459255Y401855D01*
X459549Y402115D01*
X459850Y402368D01*
X460156Y402614D01*
X460469Y402851D01*
X460787Y403081D01*
X461111Y403304D01*
X461440Y403518D01*
X461774Y403724D01*
X462114Y403921D01*
X462458Y404111D01*
X462806Y404292D01*
X463159Y404464D01*
X463516Y404627D01*
X463877Y404782D01*
X464242Y404928D01*
X464610Y405065D01*
X464981Y405192D01*
X465355Y405311D01*
X465733Y405420D01*
X466112Y405521D01*
X466494Y405611D01*
X466879Y405693D01*
X467265Y405764D01*
X467652Y405827D01*
X468041Y405880D01*
X468432Y405923D01*
X468823Y405957D01*
X469215Y405981D01*
X469607Y405995D01*
X470000Y406000D01*
X470393Y405995D01*
X470785Y405981D01*
X471177Y405957D01*
X471568Y405923D01*
X471959Y405880D01*
X472348Y405827D01*
X472735Y405764D01*
X473121Y405693D01*
X473506Y405611D01*
X473888Y405521D01*
X474267Y405420D01*
X474645Y405311D01*
X475019Y405192D01*
X475390Y405065D01*
X475758Y404928D01*
X476123Y404782D01*
X476484Y404627D01*
X476841Y404464D01*
X477194Y404292D01*
X477542Y404111D01*
X477886Y403921D01*
X478226Y403724D01*
X478560Y403518D01*
X478889Y403304D01*
X479213Y403081D01*
X479531Y402851D01*
X479844Y402614D01*
X480150Y402368D01*
X480451Y402115D01*
X480745Y401855D01*
X481033Y401588D01*
X481314Y401314D01*
X481588Y401033D01*
X481855Y400745D01*
X482115Y400451D01*
X482368Y400150D01*
X482614Y399844D01*
X482851Y399531D01*
X483081Y399213D01*
X483304Y398889D01*
X483518Y398560D01*
X483724Y398226D01*
X483921Y397886D01*
X484111Y397542D01*
X484292Y397194D01*
X484464Y396841D01*
X484627Y396484D01*
X484782Y396123D01*
X484928Y395758D01*
X485065Y395390D01*
X485192Y395019D01*
X485311Y394645D01*
X485420Y394267D01*
X485521Y393888D01*
X485611Y393506D01*
X485693Y393121D01*
X485764Y392735D01*
X485827Y392348D01*
X485880Y391959D01*
X485923Y391568D01*
X485957Y391177D01*
X485981Y390785D01*
X485995Y390393D01*
X486000Y390000D01*
X485995Y389607D01*
X485981Y389215D01*
X485957Y388823D01*
X485923Y388432D01*
X485880Y388041D01*
X485827Y387652D01*
X485764Y387265D01*
X485693Y386879D01*
X485611Y386494D01*
X485521Y386112D01*
X485420Y385733D01*
X485311Y385355D01*
X485192Y384981D01*
X485065Y384610D01*
X484928Y384242D01*
X484782Y383877D01*
X484627Y383516D01*
X484464Y383159D01*
X484292Y382806D01*
X484111Y382458D01*
X483921Y382114D01*
X483724Y381774D01*
X483518Y381440D01*
X483304Y381111D01*
X483081Y380787D01*
X482851Y380469D01*
X482614Y380156D01*
X482368Y379850D01*
X482115Y379549D01*
X481855Y379255D01*
X481588Y378967D01*
X481314Y378686D01*
X481033Y378412D01*
X480745Y378145D01*
X480451Y377885D01*
X480150Y377632D01*
X479844Y377386D01*
X479531Y377149D01*
X479213Y376919D01*
X478889Y376696D01*
X478560Y376482D01*
X478226Y376276D01*
X477886Y376079D01*
X477542Y375889D01*
X477194Y375708D01*
X476841Y375536D01*
X476484Y375373D01*
X476123Y375218D01*
X475758Y375072D01*
X475390Y374935D01*
X475019Y374808D01*
X474645Y374689D01*
X474267Y374580D01*
X473888Y374479D01*
X473506Y374389D01*
X473121Y374307D01*
X472735Y374236D01*
X472348Y374173D01*
X471959Y374120D01*
X471568Y374077D01*
X471177Y374043D01*
X470785Y374019D01*
X470393Y374005D01*
X470000Y374000D01*
X469607Y374005D01*
X469215Y374019D01*
X468823Y374043D01*
X468432Y374077D01*
X468041Y374120D01*
X467652Y374173D01*
X467265Y374236D01*
X466879Y374307D01*
X466494Y374389D01*
X466112Y374479D01*
X465733Y374580D01*
X465355Y374689D01*
X464981Y374808D01*
X464610Y374935D01*
X464242Y375072D01*
X463877Y375218D01*
X463516Y375373D01*
X463159Y375536D01*
X462806Y375708D01*
X462458Y375889D01*
X462114Y376079D01*
X461774Y376276D01*
X461440Y376482D01*
X461111Y376696D01*
X460787Y376919D01*
X460469Y377149D01*
X460156Y377386D01*
X459850Y377632D01*
X459549Y377885D01*
X459255Y378145D01*
X458967Y378412D01*
X458686Y378686D01*
X458412Y378967D01*
X458145Y379255D01*
X457885Y379549D01*
X457632Y379850D01*
X457386Y380156D01*
X457149Y380469D01*
X456919Y380787D01*
X456696Y381111D01*
X456482Y381440D01*
X456276Y381774D01*
X456079Y382114D01*
X455889Y382458D01*
X455708Y382806D01*
X455536Y383159D01*
X455373Y383516D01*
X455218Y383877D01*
X455072Y384242D01*
X454935Y384610D01*
X454808Y384981D01*
X454689Y385355D01*
X454580Y385733D01*
X454479Y386112D01*
X454389Y386494D01*
X454307Y386879D01*
X454236Y387265D01*
X454173Y387652D01*
X454120Y388041D01*
X454077Y388432D01*
X454043Y388823D01*
X454019Y389215D01*
X454005Y389607D01*
X454000Y390000D01*
D12*
X105710Y390000D02*
X105720Y390842D01*
X105751Y391683D01*
X105803Y392523D01*
X105875Y393361D01*
X105968Y394197D01*
X106081Y395031D01*
X106215Y395862D01*
X106369Y396690D01*
X106543Y397513D01*
X106738Y398332D01*
X106952Y399146D01*
X107187Y399954D01*
X107441Y400756D01*
X107714Y401552D01*
X108008Y402341D01*
X108320Y403122D01*
X108652Y403896D01*
X109002Y404661D01*
X109371Y405417D01*
X109759Y406164D01*
X110165Y406901D01*
X110588Y407629D01*
X111030Y408345D01*
X111489Y409051D01*
X111965Y409744D01*
X112458Y410427D01*
X112968Y411096D01*
X113493Y411753D01*
X114035Y412397D01*
X114593Y413028D01*
X115166Y413644D01*
X115753Y414247D01*
X116356Y414834D01*
X116972Y415407D01*
X117603Y415965D01*
X118247Y416507D01*
X118904Y417032D01*
X119573Y417542D01*
X120256Y418035D01*
X120949Y418511D01*
X121655Y418970D01*
X122371Y419412D01*
X123099Y419835D01*
X123836Y420241D01*
X124583Y420629D01*
X125339Y420998D01*
X126104Y421348D01*
X126878Y421680D01*
X127659Y421992D01*
X128448Y422286D01*
X129244Y422559D01*
X130046Y422813D01*
X130854Y423048D01*
X131668Y423262D01*
X132487Y423457D01*
X133310Y423631D01*
X134138Y423785D01*
X134969Y423919D01*
X135803Y424032D01*
X136639Y424125D01*
X137477Y424197D01*
X138317Y424249D01*
X139158Y424280D01*
X140000Y424290D01*
X140842Y424280D01*
X141683Y424249D01*
X142523Y424197D01*
X143361Y424125D01*
X144197Y424032D01*
X145031Y423919D01*
X145862Y423785D01*
X146690Y423631D01*
X147513Y423457D01*
X148332Y423262D01*
X149146Y423048D01*
X149954Y422813D01*
X150756Y422559D01*
X151552Y422286D01*
X152341Y421992D01*
X153122Y421680D01*
X153896Y421348D01*
X154661Y420998D01*
X155417Y420629D01*
X156164Y420241D01*
X156901Y419835D01*
X157629Y419412D01*
X158345Y418970D01*
X159051Y418511D01*
X159744Y418035D01*
X160427Y417542D01*
X161096Y417032D01*
X161753Y416507D01*
X162397Y415965D01*
X163028Y415407D01*
X163644Y414834D01*
X164247Y414247D01*
X164834Y413644D01*
X165407Y413028D01*
X165965Y412397D01*
X166507Y411753D01*
X167032Y411096D01*
X167542Y410427D01*
X168035Y409744D01*
X168511Y409051D01*
X168970Y408345D01*
X169412Y407629D01*
X169835Y406901D01*
X170241Y406164D01*
X170629Y405417D01*
X170998Y404661D01*
X171348Y403896D01*
X171680Y403122D01*
X171992Y402341D01*
X172286Y401552D01*
X172559Y400756D01*
X172813Y399954D01*
X173048Y399146D01*
X173262Y398332D01*
X173457Y397513D01*
X173631Y396690D01*
X173785Y395862D01*
X173919Y395031D01*
X174032Y394197D01*
X174125Y393361D01*
X174197Y392523D01*
X174249Y391683D01*
X174280Y390842D01*
X174290Y390000D01*
X174280Y389158D01*
X174249Y388317D01*
X174197Y387477D01*
X174125Y386639D01*
X174032Y385803D01*
X173919Y384969D01*
X173785Y384138D01*
X173631Y383310D01*
X173457Y382487D01*
X173262Y381668D01*
X173048Y380854D01*
X172813Y380046D01*
X172559Y379244D01*
X172286Y378448D01*
X171992Y377659D01*
X171680Y376878D01*
X171348Y376104D01*
X170998Y375339D01*
X170629Y374583D01*
X170241Y373836D01*
X169835Y373099D01*
X169412Y372371D01*
X168970Y371655D01*
X168511Y370949D01*
X168035Y370256D01*
X167542Y369573D01*
X167032Y368904D01*
X166507Y368247D01*
X165965Y367603D01*
X165407Y366972D01*
X164834Y366356D01*
X164247Y365753D01*
X163644Y365166D01*
X163028Y364593D01*
X162397Y364035D01*
X161753Y363493D01*
X161096Y362968D01*
X160427Y362458D01*
X159744Y361965D01*
X159051Y361489D01*
X158345Y361030D01*
X157629Y360588D01*
X156901Y360165D01*
X156164Y359759D01*
X155417Y359371D01*
X154661Y359002D01*
X153896Y358652D01*
X153122Y358320D01*
X152341Y358008D01*
X151552Y357714D01*
X150756Y357441D01*
X149954Y357187D01*
X149146Y356952D01*
X148332Y356738D01*
X147513Y356543D01*
X146690Y356369D01*
X145862Y356215D01*
X145031Y356081D01*
X144197Y355968D01*
X143361Y355875D01*
X142523Y355803D01*
X141683Y355751D01*
X140842Y355720D01*
X140000Y355710D01*
X139158Y355720D01*
X138317Y355751D01*
X137477Y355803D01*
X136639Y355875D01*
X135803Y355968D01*
X134969Y356081D01*
X134138Y356215D01*
X133310Y356369D01*
X132487Y356543D01*
X131668Y356738D01*
X130854Y356952D01*
X130046Y357187D01*
X129244Y357441D01*
X128448Y357714D01*
X127659Y358008D01*
X126878Y358320D01*
X126104Y358652D01*
X125339Y359002D01*
X124583Y359371D01*
X123836Y359759D01*
X123099Y360165D01*
X122371Y360588D01*
X121655Y361030D01*
X120949Y361489D01*
X120256Y361965D01*
X119573Y362458D01*
X118904Y362968D01*
X118247Y363493D01*
X117603Y364035D01*
X116972Y364593D01*
X116356Y365166D01*
X115753Y365753D01*
X115166Y366356D01*
X114593Y366972D01*
X114035Y367603D01*
X113493Y368247D01*
X112968Y368904D01*
X112458Y369573D01*
X111965Y370256D01*
X111489Y370949D01*
X111030Y371655D01*
X110588Y372371D01*
X110165Y373099D01*
X109759Y373836D01*
X109371Y374583D01*
X109002Y375339D01*
X108652Y376104D01*
X108320Y376878D01*
X108008Y377659D01*
X107714Y378448D01*
X107441Y379244D01*
X107187Y380046D01*
X106952Y380854D01*
X106738Y381668D01*
X106543Y382487D01*
X106369Y383310D01*
X106215Y384138D01*
X106081Y384969D01*
X105968Y385803D01*
X105875Y386639D01*
X105803Y387477D01*
X105751Y388317D01*
X105720Y389158D01*
X105710Y390000D01*
D13*
X124000Y390000D02*
X124005Y390393D01*
X124019Y390785D01*
X124043Y391177D01*
X124077Y391568D01*
X124120Y391959D01*
X124173Y392348D01*
X124236Y392735D01*
X124307Y393121D01*
X124389Y393506D01*
X124479Y393888D01*
X124580Y394267D01*
X124689Y394645D01*
X124808Y395019D01*
X124935Y395390D01*
X125072Y395758D01*
X125218Y396123D01*
X125373Y396484D01*
X125536Y396841D01*
X125708Y397194D01*
X125889Y397542D01*
X126079Y397886D01*
X126276Y398226D01*
X126482Y398560D01*
X126696Y398889D01*
X126919Y399213D01*
X127149Y399531D01*
X127386Y399844D01*
X127632Y400150D01*
X127885Y400451D01*
X128145Y400745D01*
X128412Y401033D01*
X128686Y401314D01*
X128967Y401588D01*
X129255Y401855D01*
X129549Y402115D01*
X129850Y402368D01*
X130156Y402614D01*
X130469Y402851D01*
X130787Y403081D01*
X131111Y403304D01*
X131440Y403518D01*
X131774Y403724D01*
X132114Y403921D01*
X132458Y404111D01*
X132806Y404292D01*
X133159Y404464D01*
X133516Y404627D01*
X133877Y404782D01*
X134242Y404928D01*
X134610Y405065D01*
X134981Y405192D01*
X135355Y405311D01*
X135733Y405420D01*
X136112Y405521D01*
X136494Y405611D01*
X136879Y405693D01*
X137265Y405764D01*
X137652Y405827D01*
X138041Y405880D01*
X138432Y405923D01*
X138823Y405957D01*
X139215Y405981D01*
X139607Y405995D01*
X140000Y406000D01*
X140393Y405995D01*
X140785Y405981D01*
X141177Y405957D01*
X141568Y405923D01*
X141959Y405880D01*
X142348Y405827D01*
X142735Y405764D01*
X143121Y405693D01*
X143506Y405611D01*
X143888Y405521D01*
X144267Y405420D01*
X144645Y405311D01*
X145019Y405192D01*
X145390Y405065D01*
X145758Y404928D01*
X146123Y404782D01*
X146484Y404627D01*
X146841Y404464D01*
X147194Y404292D01*
X147542Y404111D01*
X147886Y403921D01*
X148226Y403724D01*
X148560Y403518D01*
X148889Y403304D01*
X149213Y403081D01*
X149531Y402851D01*
X149844Y402614D01*
X150150Y402368D01*
X150451Y402115D01*
X150745Y401855D01*
X151033Y401588D01*
X151314Y401314D01*
X151588Y401033D01*
X151855Y400745D01*
X152115Y400451D01*
X152368Y400150D01*
X152614Y399844D01*
X152851Y399531D01*
X153081Y399213D01*
X153304Y398889D01*
X153518Y398560D01*
X153724Y398226D01*
X153921Y397886D01*
X154111Y397542D01*
X154292Y397194D01*
X154464Y396841D01*
X154627Y396484D01*
X154782Y396123D01*
X154928Y395758D01*
X155065Y395390D01*
X155192Y395019D01*
X155311Y394645D01*
X155420Y394267D01*
X155521Y393888D01*
X155611Y393506D01*
X155693Y393121D01*
X155764Y392735D01*
X155827Y392348D01*
X155880Y391959D01*
X155923Y391568D01*
X155957Y391177D01*
X155981Y390785D01*
X155995Y390393D01*
X156000Y390000D01*
X155995Y389607D01*
X155981Y389215D01*
X155957Y388823D01*
X155923Y388432D01*
X155880Y388041D01*
X155827Y387652D01*
X155764Y387265D01*
X155693Y386879D01*
X155611Y386494D01*
X155521Y386112D01*
X155420Y385733D01*
X155311Y385355D01*
X155192Y384981D01*
X155065Y384610D01*
X154928Y384242D01*
X154782Y383877D01*
X154627Y383516D01*
X154464Y383159D01*
X154292Y382806D01*
X154111Y382458D01*
X153921Y382114D01*
X153724Y381774D01*
X153518Y381440D01*
X153304Y381111D01*
X153081Y380787D01*
X152851Y380469D01*
X152614Y380156D01*
X152368Y379850D01*
X152115Y379549D01*
X151855Y379255D01*
X151588Y378967D01*
X151314Y378686D01*
X151033Y378412D01*
X150745Y378145D01*
X150451Y377885D01*
X150150Y377632D01*
X149844Y377386D01*
X149531Y377149D01*
X149213Y376919D01*
X148889Y376696D01*
X148560Y376482D01*
X148226Y376276D01*
X147886Y376079D01*
X147542Y375889D01*
X147194Y375708D01*
X146841Y375536D01*
X146484Y375373D01*
X146123Y375218D01*
X145758Y375072D01*
X145390Y374935D01*
X145019Y374808D01*
X144645Y374689D01*
X144267Y374580D01*
X143888Y374479D01*
X143506Y374389D01*
X143121Y374307D01*
X142735Y374236D01*
X142348Y374173D01*
X141959Y374120D01*
X141568Y374077D01*
X141177Y374043D01*
X140785Y374019D01*
X140393Y374005D01*
X140000Y374000D01*
X139607Y374005D01*
X139215Y374019D01*
X138823Y374043D01*
X138432Y374077D01*
X138041Y374120D01*
X137652Y374173D01*
X137265Y374236D01*
X136879Y374307D01*
X136494Y374389D01*
X136112Y374479D01*
X135733Y374580D01*
X135355Y374689D01*
X134981Y374808D01*
X134610Y374935D01*
X134242Y375072D01*
X133877Y375218D01*
X133516Y375373D01*
X133159Y375536D01*
X132806Y375708D01*
X132458Y375889D01*
X132114Y376079D01*
X131774Y376276D01*
X131440Y376482D01*
X131111Y376696D01*
X130787Y376919D01*
X130469Y377149D01*
X130156Y377386D01*
X129850Y377632D01*
X129549Y377885D01*
X129255Y378145D01*
X128967Y378412D01*
X128686Y378686D01*
X128412Y378967D01*
X128145Y379255D01*
X127885Y379549D01*
X127632Y379850D01*
X127386Y380156D01*
X127149Y380469D01*
X126919Y380787D01*
X126696Y381111D01*
X126482Y381440D01*
X126276Y381774D01*
X126079Y382114D01*
X125889Y382458D01*
X125708Y382806D01*
X125536Y383159D01*
X125373Y383516D01*
X125218Y383877D01*
X125072Y384242D01*
X124935Y384610D01*
X124808Y384981D01*
X124689Y385355D01*
X124580Y385733D01*
X124479Y386112D01*
X124389Y386494D01*
X124307Y386879D01*
X124236Y387265D01*
X124173Y387652D01*
X124120Y388041D01*
X124077Y388432D01*
X124043Y388823D01*
X124019Y389215D01*
X124005Y389607D01*
X124000Y390000D01*
D14*
X550000Y79210D02*
X550000Y76670D01*
X550000Y23330D02*
X550000Y20790D01*
D12*
X520790Y50000D02*
X520799Y50717D01*
X520825Y51433D01*
X520869Y52149D01*
X520931Y52863D01*
X521010Y53576D01*
X521106Y54286D01*
X521220Y54994D01*
X521351Y55699D01*
X521500Y56400D01*
X521665Y57097D01*
X521848Y57791D01*
X522048Y58479D01*
X522264Y59163D01*
X522497Y59841D01*
X522747Y60513D01*
X523013Y61178D01*
X523296Y61837D01*
X523594Y62489D01*
X523909Y63133D01*
X524239Y63769D01*
X524585Y64398D01*
X524946Y65017D01*
X525322Y65627D01*
X525713Y66228D01*
X526118Y66819D01*
X526538Y67400D01*
X526972Y67971D01*
X527420Y68531D01*
X527882Y69079D01*
X528357Y69616D01*
X528845Y70141D01*
X529345Y70655D01*
X529859Y71155D01*
X530384Y71643D01*
X530921Y72118D01*
X531469Y72580D01*
X532029Y73028D01*
X532600Y73462D01*
X533181Y73882D01*
X533772Y74287D01*
X534373Y74678D01*
X534983Y75054D01*
X535602Y75415D01*
X536231Y75761D01*
X536867Y76091D01*
X537511Y76406D01*
X538163Y76704D01*
X538822Y76987D01*
X539487Y77253D01*
X540159Y77503D01*
X540837Y77736D01*
X541521Y77952D01*
X542209Y78152D01*
X542903Y78335D01*
X543600Y78500D01*
X544301Y78649D01*
X545006Y78780D01*
X545714Y78894D01*
X546424Y78990D01*
X547137Y79069D01*
X547851Y79131D01*
X548567Y79175D01*
X549283Y79201D01*
X550000Y79210D01*
X550717Y79201D01*
X551433Y79175D01*
X552149Y79131D01*
X552863Y79069D01*
X553576Y78990D01*
X554286Y78894D01*
X554994Y78780D01*
X555699Y78649D01*
X556400Y78500D01*
X557097Y78335D01*
X557791Y78152D01*
X558479Y77952D01*
X559163Y77736D01*
X559841Y77503D01*
X560513Y77253D01*
X561178Y76987D01*
X561837Y76704D01*
X562489Y76406D01*
X563133Y76091D01*
X563769Y75761D01*
X564398Y75415D01*
X565017Y75054D01*
X565627Y74678D01*
X566228Y74287D01*
X566819Y73882D01*
X567400Y73462D01*
X567971Y73028D01*
X568531Y72580D01*
X569079Y72118D01*
X569616Y71643D01*
X570141Y71155D01*
X570655Y70655D01*
X571155Y70141D01*
X571643Y69616D01*
X572118Y69079D01*
X572580Y68531D01*
X573028Y67971D01*
X573462Y67400D01*
X573882Y66819D01*
X574287Y66228D01*
X574678Y65627D01*
X575054Y65017D01*
X575415Y64398D01*
X575761Y63769D01*
X576091Y63133D01*
X576406Y62489D01*
X576704Y61837D01*
X576987Y61178D01*
X577253Y60513D01*
X577503Y59841D01*
X577736Y59163D01*
X577952Y58479D01*
X578152Y57791D01*
X578335Y57097D01*
X578500Y56400D01*
X578649Y55699D01*
X578780Y54994D01*
X578894Y54286D01*
X578990Y53576D01*
X579069Y52863D01*
X579131Y52149D01*
X579175Y51433D01*
X579201Y50717D01*
X579210Y50000D01*
X579201Y49283D01*
X579175Y48567D01*
X579131Y47851D01*
X579069Y47137D01*
X578990Y46424D01*
X578894Y45714D01*
X578780Y45006D01*
X578649Y44301D01*
X578500Y43600D01*
X578335Y42903D01*
X578152Y42209D01*
X577952Y41521D01*
X577736Y40837D01*
X577503Y40159D01*
X577253Y39487D01*
X576987Y38822D01*
X576704Y38163D01*
X576406Y37511D01*
X576091Y36867D01*
X575761Y36231D01*
X575415Y35602D01*
X575054Y34983D01*
X574678Y34373D01*
X574287Y33772D01*
X573882Y33181D01*
X573462Y32600D01*
X573028Y32029D01*
X572580Y31469D01*
X572118Y30921D01*
X571643Y30384D01*
X571155Y29859D01*
X570655Y29345D01*
X570141Y28845D01*
X569616Y28357D01*
X569079Y27882D01*
X568531Y27420D01*
X567971Y26972D01*
X567400Y26538D01*
X566819Y26118D01*
X566228Y25713D01*
X565627Y25322D01*
X565017Y24946D01*
X564398Y24585D01*
X563769Y24239D01*
X563133Y23909D01*
X562489Y23594D01*
X561837Y23296D01*
X561178Y23013D01*
X560513Y22747D01*
X559841Y22497D01*
X559163Y22264D01*
X558479Y22048D01*
X557791Y21848D01*
X557097Y21665D01*
X556400Y21500D01*
X555699Y21351D01*
X554994Y21220D01*
X554286Y21106D01*
X553576Y21010D01*
X552863Y20931D01*
X552149Y20869D01*
X551433Y20825D01*
X550717Y20799D01*
X550000Y20790D01*
X549283Y20799D01*
X548567Y20825D01*
X547851Y20869D01*
X547137Y20931D01*
X546424Y21010D01*
X545714Y21106D01*
X545006Y21220D01*
X544301Y21351D01*
X543600Y21500D01*
X542903Y21665D01*
X542209Y21848D01*
X541521Y22048D01*
X540837Y22264D01*
X540159Y22497D01*
X539487Y22747D01*
X538822Y23013D01*
X538163Y23296D01*
X537511Y23594D01*
X536867Y23909D01*
X536231Y24239D01*
X535602Y24585D01*
X534983Y24946D01*
X534373Y25322D01*
X533772Y25713D01*
X533181Y26118D01*
X532600Y26538D01*
X532029Y26972D01*
X531469Y27420D01*
X530921Y27882D01*
X530384Y28357D01*
X529859Y28845D01*
X529345Y29345D01*
X528845Y29859D01*
X528357Y30384D01*
X527882Y30921D01*
X527420Y31469D01*
X526972Y32029D01*
X526538Y32600D01*
X526118Y33181D01*
X525713Y33772D01*
X525322Y34373D01*
X524946Y34983D01*
X524585Y35602D01*
X524239Y36231D01*
X523909Y36867D01*
X523594Y37511D01*
X523296Y38163D01*
X523013Y38822D01*
X522747Y39487D01*
X522497Y40159D01*
X522264Y40837D01*
X522048Y41521D01*
X521848Y42209D01*
X521665Y42903D01*
X521500Y43600D01*
X521351Y44301D01*
X521220Y45006D01*
X521106Y45714D01*
X521010Y46424D01*
X520931Y47137D01*
X520869Y47851D01*
X520825Y48567D01*
X520799Y49283D01*
X520790Y50000D01*
D13*
X535000Y50000D02*
X535005Y50368D01*
X535018Y50736D01*
X535041Y51103D01*
X535072Y51470D01*
X535113Y51836D01*
X535162Y52201D01*
X535221Y52564D01*
X535288Y52926D01*
X535364Y53287D01*
X535450Y53645D01*
X535543Y54001D01*
X535646Y54354D01*
X535757Y54705D01*
X535877Y55053D01*
X536005Y55398D01*
X536142Y55740D01*
X536287Y56079D01*
X536440Y56413D01*
X536602Y56744D01*
X536771Y57071D01*
X536949Y57393D01*
X537134Y57712D01*
X537327Y58025D01*
X537528Y58334D01*
X537736Y58637D01*
X537952Y58935D01*
X538175Y59228D01*
X538405Y59516D01*
X538642Y59798D01*
X538886Y60073D01*
X539136Y60343D01*
X539393Y60607D01*
X539657Y60864D01*
X539927Y61114D01*
X540202Y61358D01*
X540484Y61595D01*
X540772Y61825D01*
X541065Y62048D01*
X541363Y62264D01*
X541666Y62472D01*
X541975Y62673D01*
X542288Y62866D01*
X542607Y63051D01*
X542929Y63229D01*
X543256Y63398D01*
X543587Y63560D01*
X543921Y63713D01*
X544260Y63858D01*
X544602Y63995D01*
X544947Y64123D01*
X545295Y64243D01*
X545646Y64354D01*
X545999Y64457D01*
X546355Y64550D01*
X546713Y64636D01*
X547074Y64712D01*
X547436Y64779D01*
X547799Y64838D01*
X548164Y64887D01*
X548530Y64928D01*
X548897Y64959D01*
X549264Y64982D01*
X549632Y64995D01*
X550000Y65000D01*
X550368Y64995D01*
X550736Y64982D01*
X551103Y64959D01*
X551470Y64928D01*
X551836Y64887D01*
X552201Y64838D01*
X552564Y64779D01*
X552926Y64712D01*
X553287Y64636D01*
X553645Y64550D01*
X554001Y64457D01*
X554354Y64354D01*
X554705Y64243D01*
X555053Y64123D01*
X555398Y63995D01*
X555740Y63858D01*
X556079Y63713D01*
X556413Y63560D01*
X556744Y63398D01*
X557071Y63229D01*
X557393Y63051D01*
X557712Y62866D01*
X558025Y62673D01*
X558334Y62472D01*
X558637Y62264D01*
X558935Y62048D01*
X559228Y61825D01*
X559516Y61595D01*
X559798Y61358D01*
X560073Y61114D01*
X560343Y60864D01*
X560607Y60607D01*
X560864Y60343D01*
X561114Y60073D01*
X561358Y59798D01*
X561595Y59516D01*
X561825Y59228D01*
X562048Y58935D01*
X562264Y58637D01*
X562472Y58334D01*
X562673Y58025D01*
X562866Y57712D01*
X563051Y57393D01*
X563229Y57071D01*
X563398Y56744D01*
X563560Y56413D01*
X563713Y56079D01*
X563858Y55740D01*
X563995Y55398D01*
X564123Y55053D01*
X564243Y54705D01*
X564354Y54354D01*
X564457Y54001D01*
X564550Y53645D01*
X564636Y53287D01*
X564712Y52926D01*
X564779Y52564D01*
X564838Y52201D01*
X564887Y51836D01*
X564928Y51470D01*
X564959Y51103D01*
X564982Y50736D01*
X564995Y50368D01*
X565000Y50000D01*
X564995Y49632D01*
X564982Y49264D01*
X564959Y48897D01*
X564928Y48530D01*
X564887Y48164D01*
X564838Y47799D01*
X564779Y47436D01*
X564712Y47074D01*
X564636Y46713D01*
X564550Y46355D01*
X564457Y45999D01*
X564354Y45646D01*
X564243Y45295D01*
X564123Y44947D01*
X563995Y44602D01*
X563858Y44260D01*
X563713Y43921D01*
X563560Y43587D01*
X563398Y43256D01*
X563229Y42929D01*
X563051Y42607D01*
X562866Y42288D01*
X562673Y41975D01*
X562472Y41666D01*
X562264Y41363D01*
X562048Y41065D01*
X561825Y40772D01*
X561595Y40484D01*
X561358Y40202D01*
X561114Y39927D01*
X560864Y39657D01*
X560607Y39393D01*
X560343Y39136D01*
X560073Y38886D01*
X559798Y38642D01*
X559516Y38405D01*
X559228Y38175D01*
X558935Y37952D01*
X558637Y37736D01*
X558334Y37528D01*
X558025Y37327D01*
X557712Y37134D01*
X557393Y36949D01*
X557071Y36771D01*
X556744Y36602D01*
X556413Y36440D01*
X556079Y36287D01*
X555740Y36142D01*
X555398Y36005D01*
X555053Y35877D01*
X554705Y35757D01*
X554354Y35646D01*
X554001Y35543D01*
X553645Y35450D01*
X553287Y35364D01*
X552926Y35288D01*
X552564Y35221D01*
X552201Y35162D01*
X551836Y35113D01*
X551470Y35072D01*
X551103Y35041D01*
X550736Y35018D01*
X550368Y35005D01*
X550000Y35000D01*
X549632Y35005D01*
X549264Y35018D01*
X548897Y35041D01*
X548530Y35072D01*
X548164Y35113D01*
X547799Y35162D01*
X547436Y35221D01*
X547074Y35288D01*
X546713Y35364D01*
X546355Y35450D01*
X545999Y35543D01*
X545646Y35646D01*
X545295Y35757D01*
X544947Y35877D01*
X544602Y36005D01*
X544260Y36142D01*
X543921Y36287D01*
X543587Y36440D01*
X543256Y36602D01*
X542929Y36771D01*
X542607Y36949D01*
X542288Y37134D01*
X541975Y37327D01*
X541666Y37528D01*
X541363Y37736D01*
X541065Y37952D01*
X540772Y38175D01*
X540484Y38405D01*
X540202Y38642D01*
X539927Y38886D01*
X539657Y39136D01*
X539393Y39393D01*
X539136Y39657D01*
X538886Y39927D01*
X538642Y40202D01*
X538405Y40484D01*
X538175Y40772D01*
X537952Y41065D01*
X537736Y41363D01*
X537528Y41666D01*
X537327Y41975D01*
X537134Y42288D01*
X536949Y42607D01*
X536771Y42929D01*
X536602Y43256D01*
X536440Y43587D01*
X536287Y43921D01*
X536142Y44260D01*
X536005Y44602D01*
X535877Y44947D01*
X535757Y45295D01*
X535646Y45646D01*
X535543Y45999D01*
X535450Y46355D01*
X535364Y46713D01*
X535288Y47074D01*
X535221Y47436D01*
X535162Y47799D01*
X535113Y48164D01*
X535072Y48530D01*
X535041Y48897D01*
X535018Y49264D01*
X535005Y49632D01*
X535000Y50000D01*
D14*
X550000Y326670D02*
X550000Y329210D01*
X550000Y273330D02*
X550000Y270790D01*
D12*
X520790Y300000D02*
X520799Y300717D01*
X520825Y301433D01*
X520869Y302149D01*
X520931Y302863D01*
X521010Y303576D01*
X521106Y304286D01*
X521220Y304994D01*
X521351Y305699D01*
X521500Y306400D01*
X521665Y307097D01*
X521848Y307791D01*
X522048Y308479D01*
X522264Y309163D01*
X522497Y309841D01*
X522747Y310513D01*
X523013Y311178D01*
X523296Y311837D01*
X523594Y312489D01*
X523909Y313133D01*
X524239Y313769D01*
X524585Y314398D01*
X524946Y315017D01*
X525322Y315627D01*
X525713Y316228D01*
X526118Y316819D01*
X526538Y317400D01*
X526972Y317971D01*
X527420Y318531D01*
X527882Y319079D01*
X528357Y319616D01*
X528845Y320141D01*
X529345Y320655D01*
X529859Y321155D01*
X530384Y321643D01*
X530921Y322118D01*
X531469Y322580D01*
X532029Y323028D01*
X532600Y323462D01*
X533181Y323882D01*
X533772Y324287D01*
X534373Y324678D01*
X534983Y325054D01*
X535602Y325415D01*
X536231Y325761D01*
X536867Y326091D01*
X537511Y326406D01*
X538163Y326704D01*
X538822Y326987D01*
X539487Y327253D01*
X540159Y327503D01*
X540837Y327736D01*
X541521Y327952D01*
X542209Y328152D01*
X542903Y328335D01*
X543600Y328500D01*
X544301Y328649D01*
X545006Y328780D01*
X545714Y328894D01*
X546424Y328990D01*
X547137Y329069D01*
X547851Y329131D01*
X548567Y329175D01*
X549283Y329201D01*
X550000Y329210D01*
X550717Y329201D01*
X551433Y329175D01*
X552149Y329131D01*
X552863Y329069D01*
X553576Y328990D01*
X554286Y328894D01*
X554994Y328780D01*
X555699Y328649D01*
X556400Y328500D01*
X557097Y328335D01*
X557791Y328152D01*
X558479Y327952D01*
X559163Y327736D01*
X559841Y327503D01*
X560513Y327253D01*
X561178Y326987D01*
X561837Y326704D01*
X562489Y326406D01*
X563133Y326091D01*
X563769Y325761D01*
X564398Y325415D01*
X565017Y325054D01*
X565627Y324678D01*
X566228Y324287D01*
X566819Y323882D01*
X567400Y323462D01*
X567971Y323028D01*
X568531Y322580D01*
X569079Y322118D01*
X569616Y321643D01*
X570141Y321155D01*
X570655Y320655D01*
X571155Y320141D01*
X571643Y319616D01*
X572118Y319079D01*
X572580Y318531D01*
X573028Y317971D01*
X573462Y317400D01*
X573882Y316819D01*
X574287Y316228D01*
X574678Y315627D01*
X575054Y315017D01*
X575415Y314398D01*
X575761Y313769D01*
X576091Y313133D01*
X576406Y312489D01*
X576704Y311837D01*
X576987Y311178D01*
X577253Y310513D01*
X577503Y309841D01*
X577736Y309163D01*
X577952Y308479D01*
X578152Y307791D01*
X578335Y307097D01*
X578500Y306400D01*
X578649Y305699D01*
X578780Y304994D01*
X578894Y304286D01*
X578990Y303576D01*
X579069Y302863D01*
X579131Y302149D01*
X579175Y301433D01*
X579201Y300717D01*
X579210Y300000D01*
X579201Y299283D01*
X579175Y298567D01*
X579131Y297851D01*
X579069Y297137D01*
X578990Y296424D01*
X578894Y295714D01*
X578780Y295006D01*
X578649Y294301D01*
X578500Y293600D01*
X578335Y292903D01*
X578152Y292209D01*
X577952Y291521D01*
X577736Y290837D01*
X577503Y290159D01*
X577253Y289487D01*
X576987Y288822D01*
X576704Y288163D01*
X576406Y287511D01*
X576091Y286867D01*
X575761Y286231D01*
X575415Y285602D01*
X575054Y284983D01*
X574678Y284373D01*
X574287Y283772D01*
X573882Y283181D01*
X573462Y282600D01*
X573028Y282029D01*
X572580Y281469D01*
X572118Y280921D01*
X571643Y280384D01*
X571155Y279859D01*
X570655Y279345D01*
X570141Y278845D01*
X569616Y278357D01*
X569079Y277882D01*
X568531Y277420D01*
X567971Y276972D01*
X567400Y276538D01*
X566819Y276118D01*
X566228Y275713D01*
X565627Y275322D01*
X565017Y274946D01*
X564398Y274585D01*
X563769Y274239D01*
X563133Y273909D01*
X562489Y273594D01*
X561837Y273296D01*
X561178Y273013D01*
X560513Y272747D01*
X559841Y272497D01*
X559163Y272264D01*
X558479Y272048D01*
X557791Y271848D01*
X557097Y271665D01*
X556400Y271500D01*
X555699Y271351D01*
X554994Y271220D01*
X554286Y271106D01*
X553576Y271010D01*
X552863Y270931D01*
X552149Y270869D01*
X551433Y270825D01*
X550717Y270799D01*
X550000Y270790D01*
X549283Y270799D01*
X548567Y270825D01*
X547851Y270869D01*
X547137Y270931D01*
X546424Y271010D01*
X545714Y271106D01*
X545006Y271220D01*
X544301Y271351D01*
X543600Y271500D01*
X542903Y271665D01*
X542209Y271848D01*
X541521Y272048D01*
X540837Y272264D01*
X540159Y272497D01*
X539487Y272747D01*
X538822Y273013D01*
X538163Y273296D01*
X537511Y273594D01*
X536867Y273909D01*
X536231Y274239D01*
X535602Y274585D01*
X534983Y274946D01*
X534373Y275322D01*
X533772Y275713D01*
X533181Y276118D01*
X532600Y276538D01*
X532029Y276972D01*
X531469Y277420D01*
X530921Y277882D01*
X530384Y278357D01*
X529859Y278845D01*
X529345Y279345D01*
X528845Y279859D01*
X528357Y280384D01*
X527882Y280921D01*
X527420Y281469D01*
X526972Y282029D01*
X526538Y282600D01*
X526118Y283181D01*
X525713Y283772D01*
X525322Y284373D01*
X524946Y284983D01*
X524585Y285602D01*
X524239Y286231D01*
X523909Y286867D01*
X523594Y287511D01*
X523296Y288163D01*
X523013Y288822D01*
X522747Y289487D01*
X522497Y290159D01*
X522264Y290837D01*
X522048Y291521D01*
X521848Y292209D01*
X521665Y292903D01*
X521500Y293600D01*
X521351Y294301D01*
X521220Y295006D01*
X521106Y295714D01*
X521010Y296424D01*
X520931Y297137D01*
X520869Y297851D01*
X520825Y298567D01*
X520799Y299283D01*
X520790Y300000D01*
D13*
X535000Y300000D02*
X535005Y300368D01*
X535018Y300736D01*
X535041Y301103D01*
X535072Y301470D01*
X535113Y301836D01*
X535162Y302201D01*
X535221Y302564D01*
X535288Y302926D01*
X535364Y303287D01*
X535450Y303645D01*
X535543Y304001D01*
X535646Y304354D01*
X535757Y304705D01*
X535877Y305053D01*
X536005Y305398D01*
X536142Y305740D01*
X536287Y306079D01*
X536440Y306413D01*
X536602Y306744D01*
X536771Y307071D01*
X536949Y307393D01*
X537134Y307712D01*
X537327Y308025D01*
X537528Y308334D01*
X537736Y308637D01*
X537952Y308935D01*
X538175Y309228D01*
X538405Y309516D01*
X538642Y309798D01*
X538886Y310073D01*
X539136Y310343D01*
X539393Y310607D01*
X539657Y310864D01*
X539927Y311114D01*
X540202Y311358D01*
X540484Y311595D01*
X540772Y311825D01*
X541065Y312048D01*
X541363Y312264D01*
X541666Y312472D01*
X541975Y312673D01*
X542288Y312866D01*
X542607Y313051D01*
X542929Y313229D01*
X543256Y313398D01*
X543587Y313560D01*
X543921Y313713D01*
X544260Y313858D01*
X544602Y313995D01*
X544947Y314123D01*
X545295Y314243D01*
X545646Y314354D01*
X545999Y314457D01*
X546355Y314550D01*
X546713Y314636D01*
X547074Y314712D01*
X547436Y314779D01*
X547799Y314838D01*
X548164Y314887D01*
X548530Y314928D01*
X548897Y314959D01*
X549264Y314982D01*
X549632Y314995D01*
X550000Y315000D01*
X550368Y314995D01*
X550736Y314982D01*
X551103Y314959D01*
X551470Y314928D01*
X551836Y314887D01*
X552201Y314838D01*
X552564Y314779D01*
X552926Y314712D01*
X553287Y314636D01*
X553645Y314550D01*
X554001Y314457D01*
X554354Y314354D01*
X554705Y314243D01*
X555053Y314123D01*
X555398Y313995D01*
X555740Y313858D01*
X556079Y313713D01*
X556413Y313560D01*
X556744Y313398D01*
X557071Y313229D01*
X557393Y313051D01*
X557712Y312866D01*
X558025Y312673D01*
X558334Y312472D01*
X558637Y312264D01*
X558935Y312048D01*
X559228Y311825D01*
X559516Y311595D01*
X559798Y311358D01*
X560073Y311114D01*
X560343Y310864D01*
X560607Y310607D01*
X560864Y310343D01*
X561114Y310073D01*
X561358Y309798D01*
X561595Y309516D01*
X561825Y309228D01*
X562048Y308935D01*
X562264Y308637D01*
X562472Y308334D01*
X562673Y308025D01*
X562866Y307712D01*
X563051Y307393D01*
X563229Y307071D01*
X563398Y306744D01*
X563560Y306413D01*
X563713Y306079D01*
X563858Y305740D01*
X563995Y305398D01*
X564123Y305053D01*
X564243Y304705D01*
X564354Y304354D01*
X564457Y304001D01*
X564550Y303645D01*
X564636Y303287D01*
X564712Y302926D01*
X564779Y302564D01*
X564838Y302201D01*
X564887Y301836D01*
X564928Y301470D01*
X564959Y301103D01*
X564982Y300736D01*
X564995Y300368D01*
X565000Y300000D01*
X564995Y299632D01*
X564982Y299264D01*
X564959Y298897D01*
X564928Y298530D01*
X564887Y298164D01*
X564838Y297799D01*
X564779Y297436D01*
X564712Y297074D01*
X564636Y296713D01*
X564550Y296355D01*
X564457Y295999D01*
X564354Y295646D01*
X564243Y295295D01*
X564123Y294947D01*
X563995Y294602D01*
X563858Y294260D01*
X563713Y293921D01*
X563560Y293587D01*
X563398Y293256D01*
X563229Y292929D01*
X563051Y292607D01*
X562866Y292288D01*
X562673Y291975D01*
X562472Y291666D01*
X562264Y291363D01*
X562048Y291065D01*
X561825Y290772D01*
X561595Y290484D01*
X561358Y290202D01*
X561114Y289927D01*
X560864Y289657D01*
X560607Y289393D01*
X560343Y289136D01*
X560073Y288886D01*
X559798Y288642D01*
X559516Y288405D01*
X559228Y288175D01*
X558935Y287952D01*
X558637Y287736D01*
X558334Y287528D01*
X558025Y287327D01*
X557712Y287134D01*
X557393Y286949D01*
X557071Y286771D01*
X556744Y286602D01*
X556413Y286440D01*
X556079Y286287D01*
X555740Y286142D01*
X555398Y286005D01*
X555053Y285877D01*
X554705Y285757D01*
X554354Y285646D01*
X554001Y285543D01*
X553645Y285450D01*
X553287Y285364D01*
X552926Y285288D01*
X552564Y285221D01*
X552201Y285162D01*
X551836Y285113D01*
X551470Y285072D01*
X551103Y285041D01*
X550736Y285018D01*
X550368Y285005D01*
X550000Y285000D01*
X549632Y285005D01*
X549264Y285018D01*
X548897Y285041D01*
X548530Y285072D01*
X548164Y285113D01*
X547799Y285162D01*
X547436Y285221D01*
X547074Y285288D01*
X546713Y285364D01*
X546355Y285450D01*
X545999Y285543D01*
X545646Y285646D01*
X545295Y285757D01*
X544947Y285877D01*
X544602Y286005D01*
X544260Y286142D01*
X543921Y286287D01*
X543587Y286440D01*
X543256Y286602D01*
X542929Y286771D01*
X542607Y286949D01*
X542288Y287134D01*
X541975Y287327D01*
X541666Y287528D01*
X541363Y287736D01*
X541065Y287952D01*
X540772Y288175D01*
X540484Y288405D01*
X540202Y288642D01*
X539927Y288886D01*
X539657Y289136D01*
X539393Y289393D01*
X539136Y289657D01*
X538886Y289927D01*
X538642Y290202D01*
X538405Y290484D01*
X538175Y290772D01*
X537952Y291065D01*
X537736Y291363D01*
X537528Y291666D01*
X537327Y291975D01*
X537134Y292288D01*
X536949Y292607D01*
X536771Y292929D01*
X536602Y293256D01*
X536440Y293587D01*
X536287Y293921D01*
X536142Y294260D01*
X536005Y294602D01*
X535877Y294947D01*
X535757Y295295D01*
X535646Y295646D01*
X535543Y295999D01*
X535450Y296355D01*
X535364Y296713D01*
X535288Y297074D01*
X535221Y297436D01*
X535162Y297799D01*
X535113Y298164D01*
X535072Y298530D01*
X535041Y298897D01*
X535018Y299264D01*
X535005Y299632D01*
X535000Y300000D01*
M02*
