G04 EAGLE Gerber RS-274X export*
G75*
%MOMM*%
%FSLAX34Y34*%
%LPD*%
%INSoldermask Top*%
%IPPOS*%
%AMOC8*
5,1,8,0,0,1.08239X$1,22.5*%
G01*
%ADD10C,0.510959*%
%ADD11R,1.728200X0.853200*%
%ADD12R,2.133600X4.013200*%
%ADD13C,2.203200*%
%ADD14C,6.045200*%
%ADD15R,4.013200X2.133600*%
%ADD16C,5.537200*%


D10*
X276539Y219909D02*
X276539Y231831D01*
X291461Y231831D01*
X291461Y219909D01*
X276539Y219909D01*
X276539Y224763D02*
X291461Y224763D01*
X291461Y229617D02*
X276539Y229617D01*
X276539Y204291D02*
X276539Y192369D01*
X276539Y204291D02*
X291461Y204291D01*
X291461Y192369D01*
X276539Y192369D01*
X276539Y197223D02*
X291461Y197223D01*
X291461Y202077D02*
X276539Y202077D01*
X163331Y130761D02*
X151409Y130761D01*
X163331Y130761D02*
X163331Y115839D01*
X151409Y115839D01*
X151409Y130761D01*
X151409Y120693D02*
X163331Y120693D01*
X163331Y125547D02*
X151409Y125547D01*
X151409Y130401D02*
X163331Y130401D01*
X135791Y130761D02*
X123869Y130761D01*
X135791Y130761D02*
X135791Y115839D01*
X123869Y115839D01*
X123869Y130761D01*
X123869Y120693D02*
X135791Y120693D01*
X135791Y125547D02*
X123869Y125547D01*
X123869Y130401D02*
X135791Y130401D01*
D11*
X207620Y166100D03*
X207620Y178800D03*
X207620Y191500D03*
X207620Y204200D03*
X207620Y216900D03*
X207620Y229600D03*
X207620Y242300D03*
X153380Y242300D03*
X153380Y229600D03*
X153380Y216900D03*
X153380Y204200D03*
X153380Y191500D03*
X153380Y178800D03*
X153380Y166100D03*
D12*
X317000Y303000D03*
X283000Y303000D03*
D13*
X317000Y273000D03*
X283000Y273000D03*
D10*
X265086Y131461D02*
X253164Y131461D01*
X265086Y131461D02*
X265086Y116539D01*
X253164Y116539D01*
X253164Y131461D01*
X253164Y121393D02*
X265086Y121393D01*
X265086Y126247D02*
X253164Y126247D01*
X253164Y131101D02*
X265086Y131101D01*
X240036Y131461D02*
X228114Y131461D01*
X240036Y131461D02*
X240036Y116539D01*
X228114Y116539D01*
X228114Y131461D01*
X228114Y121393D02*
X240036Y121393D01*
X240036Y126247D02*
X228114Y126247D01*
X228114Y131101D02*
X240036Y131101D01*
X238536Y78039D02*
X226614Y78039D01*
X226614Y92961D01*
X238536Y92961D01*
X238536Y78039D01*
X238536Y82893D02*
X226614Y82893D01*
X226614Y87747D02*
X238536Y87747D01*
X238536Y92601D02*
X226614Y92601D01*
X251664Y78039D02*
X263586Y78039D01*
X251664Y78039D02*
X251664Y92961D01*
X263586Y92961D01*
X263586Y78039D01*
X263586Y82893D02*
X251664Y82893D01*
X251664Y87747D02*
X263586Y87747D01*
X263586Y92601D02*
X251664Y92601D01*
D12*
X209700Y303000D03*
D13*
X209700Y271370D03*
D12*
X162600Y303000D03*
D13*
X162600Y271370D03*
D14*
X470000Y390000D03*
X140000Y390000D03*
D12*
X197000Y70500D03*
X163000Y70500D03*
D13*
X197000Y40500D03*
X163000Y40500D03*
D15*
X60000Y304000D03*
X60000Y270000D03*
D13*
X90000Y304000D03*
X90000Y270000D03*
D15*
X60000Y100000D03*
X60000Y66000D03*
D13*
X90000Y100000D03*
X90000Y66000D03*
D16*
X550000Y50000D03*
X550000Y300000D03*
D13*
X255000Y198250D03*
X111000Y198500D03*
X255000Y166000D03*
X65000Y165000D03*
X235000Y245000D03*
X110000Y245000D03*
M02*
