G04 EAGLE Gerber RS-274X export*
G75*
%MOMM*%
%FSLAX34Y34*%
%LPD*%
%INSilkscreen Top*%
%IPPOS*%
%AMOC8*
5,1,8,0,0,1.08239X$1,22.5*%
G01*
%ADD10C,0.203200*%
%ADD11C,0.152400*%


D10*
X-2800Y103500D02*
X-2800Y130000D01*
X-24300Y130000D01*
X-31800Y122500D01*
X-69800Y122500D01*
X-69800Y131000D01*
X-81550Y131000D01*
X-81550Y169000D01*
X-69800Y169000D01*
X-69800Y177500D01*
X-31800Y177500D01*
X-24300Y170000D01*
X-2800Y170000D01*
X-2800Y196500D01*
X11700Y188500D02*
X11700Y111500D01*
X11700Y196500D02*
X-2800Y196500D01*
X-2800Y103500D02*
X11700Y103500D01*
D11*
X19812Y214262D02*
X30649Y230518D01*
X19812Y230518D02*
X30649Y214262D01*
X36346Y226906D02*
X40862Y230518D01*
X40862Y214262D01*
X45377Y214262D02*
X36346Y214262D01*
X10710Y45000D02*
X10720Y45842D01*
X10751Y46683D01*
X10803Y47523D01*
X10875Y48361D01*
X10968Y49197D01*
X11081Y50031D01*
X11215Y50862D01*
X11369Y51690D01*
X11543Y52513D01*
X11738Y53332D01*
X11952Y54146D01*
X12187Y54954D01*
X12441Y55756D01*
X12714Y56552D01*
X13008Y57341D01*
X13320Y58122D01*
X13652Y58896D01*
X14002Y59661D01*
X14371Y60417D01*
X14759Y61164D01*
X15165Y61901D01*
X15588Y62629D01*
X16030Y63345D01*
X16489Y64051D01*
X16965Y64744D01*
X17458Y65427D01*
X17968Y66096D01*
X18493Y66753D01*
X19035Y67397D01*
X19593Y68028D01*
X20166Y68644D01*
X20753Y69247D01*
X21356Y69834D01*
X21972Y70407D01*
X22603Y70965D01*
X23247Y71507D01*
X23904Y72032D01*
X24573Y72542D01*
X25256Y73035D01*
X25949Y73511D01*
X26655Y73970D01*
X27371Y74412D01*
X28099Y74835D01*
X28836Y75241D01*
X29583Y75629D01*
X30339Y75998D01*
X31104Y76348D01*
X31878Y76680D01*
X32659Y76992D01*
X33448Y77286D01*
X34244Y77559D01*
X35046Y77813D01*
X35854Y78048D01*
X36668Y78262D01*
X37487Y78457D01*
X38310Y78631D01*
X39138Y78785D01*
X39969Y78919D01*
X40803Y79032D01*
X41639Y79125D01*
X42477Y79197D01*
X43317Y79249D01*
X44158Y79280D01*
X45000Y79290D01*
X45842Y79280D01*
X46683Y79249D01*
X47523Y79197D01*
X48361Y79125D01*
X49197Y79032D01*
X50031Y78919D01*
X50862Y78785D01*
X51690Y78631D01*
X52513Y78457D01*
X53332Y78262D01*
X54146Y78048D01*
X54954Y77813D01*
X55756Y77559D01*
X56552Y77286D01*
X57341Y76992D01*
X58122Y76680D01*
X58896Y76348D01*
X59661Y75998D01*
X60417Y75629D01*
X61164Y75241D01*
X61901Y74835D01*
X62629Y74412D01*
X63345Y73970D01*
X64051Y73511D01*
X64744Y73035D01*
X65427Y72542D01*
X66096Y72032D01*
X66753Y71507D01*
X67397Y70965D01*
X68028Y70407D01*
X68644Y69834D01*
X69247Y69247D01*
X69834Y68644D01*
X70407Y68028D01*
X70965Y67397D01*
X71507Y66753D01*
X72032Y66096D01*
X72542Y65427D01*
X73035Y64744D01*
X73511Y64051D01*
X73970Y63345D01*
X74412Y62629D01*
X74835Y61901D01*
X75241Y61164D01*
X75629Y60417D01*
X75998Y59661D01*
X76348Y58896D01*
X76680Y58122D01*
X76992Y57341D01*
X77286Y56552D01*
X77559Y55756D01*
X77813Y54954D01*
X78048Y54146D01*
X78262Y53332D01*
X78457Y52513D01*
X78631Y51690D01*
X78785Y50862D01*
X78919Y50031D01*
X79032Y49197D01*
X79125Y48361D01*
X79197Y47523D01*
X79249Y46683D01*
X79280Y45842D01*
X79290Y45000D01*
X79280Y44158D01*
X79249Y43317D01*
X79197Y42477D01*
X79125Y41639D01*
X79032Y40803D01*
X78919Y39969D01*
X78785Y39138D01*
X78631Y38310D01*
X78457Y37487D01*
X78262Y36668D01*
X78048Y35854D01*
X77813Y35046D01*
X77559Y34244D01*
X77286Y33448D01*
X76992Y32659D01*
X76680Y31878D01*
X76348Y31104D01*
X75998Y30339D01*
X75629Y29583D01*
X75241Y28836D01*
X74835Y28099D01*
X74412Y27371D01*
X73970Y26655D01*
X73511Y25949D01*
X73035Y25256D01*
X72542Y24573D01*
X72032Y23904D01*
X71507Y23247D01*
X70965Y22603D01*
X70407Y21972D01*
X69834Y21356D01*
X69247Y20753D01*
X68644Y20166D01*
X68028Y19593D01*
X67397Y19035D01*
X66753Y18493D01*
X66096Y17968D01*
X65427Y17458D01*
X64744Y16965D01*
X64051Y16489D01*
X63345Y16030D01*
X62629Y15588D01*
X61901Y15165D01*
X61164Y14759D01*
X60417Y14371D01*
X59661Y14002D01*
X58896Y13652D01*
X58122Y13320D01*
X57341Y13008D01*
X56552Y12714D01*
X55756Y12441D01*
X54954Y12187D01*
X54146Y11952D01*
X53332Y11738D01*
X52513Y11543D01*
X51690Y11369D01*
X50862Y11215D01*
X50031Y11081D01*
X49197Y10968D01*
X48361Y10875D01*
X47523Y10803D01*
X46683Y10751D01*
X45842Y10720D01*
X45000Y10710D01*
X44158Y10720D01*
X43317Y10751D01*
X42477Y10803D01*
X41639Y10875D01*
X40803Y10968D01*
X39969Y11081D01*
X39138Y11215D01*
X38310Y11369D01*
X37487Y11543D01*
X36668Y11738D01*
X35854Y11952D01*
X35046Y12187D01*
X34244Y12441D01*
X33448Y12714D01*
X32659Y13008D01*
X31878Y13320D01*
X31104Y13652D01*
X30339Y14002D01*
X29583Y14371D01*
X28836Y14759D01*
X28099Y15165D01*
X27371Y15588D01*
X26655Y16030D01*
X25949Y16489D01*
X25256Y16965D01*
X24573Y17458D01*
X23904Y17968D01*
X23247Y18493D01*
X22603Y19035D01*
X21972Y19593D01*
X21356Y20166D01*
X20753Y20753D01*
X20166Y21356D01*
X19593Y21972D01*
X19035Y22603D01*
X18493Y23247D01*
X17968Y23904D01*
X17458Y24573D01*
X16965Y25256D01*
X16489Y25949D01*
X16030Y26655D01*
X15588Y27371D01*
X15165Y28099D01*
X14759Y28836D01*
X14371Y29583D01*
X14002Y30339D01*
X13652Y31104D01*
X13320Y31878D01*
X13008Y32659D01*
X12714Y33448D01*
X12441Y34244D01*
X12187Y35046D01*
X11952Y35854D01*
X11738Y36668D01*
X11543Y37487D01*
X11369Y38310D01*
X11215Y39138D01*
X11081Y39969D01*
X10968Y40803D01*
X10875Y41639D01*
X10803Y42477D01*
X10751Y43317D01*
X10720Y44158D01*
X10710Y45000D01*
D10*
X29000Y45000D02*
X29005Y45393D01*
X29019Y45785D01*
X29043Y46177D01*
X29077Y46568D01*
X29120Y46959D01*
X29173Y47348D01*
X29236Y47735D01*
X29307Y48121D01*
X29389Y48506D01*
X29479Y48888D01*
X29580Y49267D01*
X29689Y49645D01*
X29808Y50019D01*
X29935Y50390D01*
X30072Y50758D01*
X30218Y51123D01*
X30373Y51484D01*
X30536Y51841D01*
X30708Y52194D01*
X30889Y52542D01*
X31079Y52886D01*
X31276Y53226D01*
X31482Y53560D01*
X31696Y53889D01*
X31919Y54213D01*
X32149Y54531D01*
X32386Y54844D01*
X32632Y55150D01*
X32885Y55451D01*
X33145Y55745D01*
X33412Y56033D01*
X33686Y56314D01*
X33967Y56588D01*
X34255Y56855D01*
X34549Y57115D01*
X34850Y57368D01*
X35156Y57614D01*
X35469Y57851D01*
X35787Y58081D01*
X36111Y58304D01*
X36440Y58518D01*
X36774Y58724D01*
X37114Y58921D01*
X37458Y59111D01*
X37806Y59292D01*
X38159Y59464D01*
X38516Y59627D01*
X38877Y59782D01*
X39242Y59928D01*
X39610Y60065D01*
X39981Y60192D01*
X40355Y60311D01*
X40733Y60420D01*
X41112Y60521D01*
X41494Y60611D01*
X41879Y60693D01*
X42265Y60764D01*
X42652Y60827D01*
X43041Y60880D01*
X43432Y60923D01*
X43823Y60957D01*
X44215Y60981D01*
X44607Y60995D01*
X45000Y61000D01*
X45393Y60995D01*
X45785Y60981D01*
X46177Y60957D01*
X46568Y60923D01*
X46959Y60880D01*
X47348Y60827D01*
X47735Y60764D01*
X48121Y60693D01*
X48506Y60611D01*
X48888Y60521D01*
X49267Y60420D01*
X49645Y60311D01*
X50019Y60192D01*
X50390Y60065D01*
X50758Y59928D01*
X51123Y59782D01*
X51484Y59627D01*
X51841Y59464D01*
X52194Y59292D01*
X52542Y59111D01*
X52886Y58921D01*
X53226Y58724D01*
X53560Y58518D01*
X53889Y58304D01*
X54213Y58081D01*
X54531Y57851D01*
X54844Y57614D01*
X55150Y57368D01*
X55451Y57115D01*
X55745Y56855D01*
X56033Y56588D01*
X56314Y56314D01*
X56588Y56033D01*
X56855Y55745D01*
X57115Y55451D01*
X57368Y55150D01*
X57614Y54844D01*
X57851Y54531D01*
X58081Y54213D01*
X58304Y53889D01*
X58518Y53560D01*
X58724Y53226D01*
X58921Y52886D01*
X59111Y52542D01*
X59292Y52194D01*
X59464Y51841D01*
X59627Y51484D01*
X59782Y51123D01*
X59928Y50758D01*
X60065Y50390D01*
X60192Y50019D01*
X60311Y49645D01*
X60420Y49267D01*
X60521Y48888D01*
X60611Y48506D01*
X60693Y48121D01*
X60764Y47735D01*
X60827Y47348D01*
X60880Y46959D01*
X60923Y46568D01*
X60957Y46177D01*
X60981Y45785D01*
X60995Y45393D01*
X61000Y45000D01*
X60995Y44607D01*
X60981Y44215D01*
X60957Y43823D01*
X60923Y43432D01*
X60880Y43041D01*
X60827Y42652D01*
X60764Y42265D01*
X60693Y41879D01*
X60611Y41494D01*
X60521Y41112D01*
X60420Y40733D01*
X60311Y40355D01*
X60192Y39981D01*
X60065Y39610D01*
X59928Y39242D01*
X59782Y38877D01*
X59627Y38516D01*
X59464Y38159D01*
X59292Y37806D01*
X59111Y37458D01*
X58921Y37114D01*
X58724Y36774D01*
X58518Y36440D01*
X58304Y36111D01*
X58081Y35787D01*
X57851Y35469D01*
X57614Y35156D01*
X57368Y34850D01*
X57115Y34549D01*
X56855Y34255D01*
X56588Y33967D01*
X56314Y33686D01*
X56033Y33412D01*
X55745Y33145D01*
X55451Y32885D01*
X55150Y32632D01*
X54844Y32386D01*
X54531Y32149D01*
X54213Y31919D01*
X53889Y31696D01*
X53560Y31482D01*
X53226Y31276D01*
X52886Y31079D01*
X52542Y30889D01*
X52194Y30708D01*
X51841Y30536D01*
X51484Y30373D01*
X51123Y30218D01*
X50758Y30072D01*
X50390Y29935D01*
X50019Y29808D01*
X49645Y29689D01*
X49267Y29580D01*
X48888Y29479D01*
X48506Y29389D01*
X48121Y29307D01*
X47735Y29236D01*
X47348Y29173D01*
X46959Y29120D01*
X46568Y29077D01*
X46177Y29043D01*
X45785Y29019D01*
X45393Y29005D01*
X45000Y29000D01*
X44607Y29005D01*
X44215Y29019D01*
X43823Y29043D01*
X43432Y29077D01*
X43041Y29120D01*
X42652Y29173D01*
X42265Y29236D01*
X41879Y29307D01*
X41494Y29389D01*
X41112Y29479D01*
X40733Y29580D01*
X40355Y29689D01*
X39981Y29808D01*
X39610Y29935D01*
X39242Y30072D01*
X38877Y30218D01*
X38516Y30373D01*
X38159Y30536D01*
X37806Y30708D01*
X37458Y30889D01*
X37114Y31079D01*
X36774Y31276D01*
X36440Y31482D01*
X36111Y31696D01*
X35787Y31919D01*
X35469Y32149D01*
X35156Y32386D01*
X34850Y32632D01*
X34549Y32885D01*
X34255Y33145D01*
X33967Y33412D01*
X33686Y33686D01*
X33412Y33967D01*
X33145Y34255D01*
X32885Y34549D01*
X32632Y34850D01*
X32386Y35156D01*
X32149Y35469D01*
X31919Y35787D01*
X31696Y36111D01*
X31482Y36440D01*
X31276Y36774D01*
X31079Y37114D01*
X30889Y37458D01*
X30708Y37806D01*
X30536Y38159D01*
X30373Y38516D01*
X30218Y38877D01*
X30072Y39242D01*
X29935Y39610D01*
X29808Y39981D01*
X29689Y40355D01*
X29580Y40733D01*
X29479Y41112D01*
X29389Y41494D01*
X29307Y41879D01*
X29236Y42265D01*
X29173Y42652D01*
X29120Y43041D01*
X29077Y43432D01*
X29043Y43823D01*
X29019Y44215D01*
X29005Y44607D01*
X29000Y45000D01*
D11*
X10710Y255000D02*
X10720Y255842D01*
X10751Y256683D01*
X10803Y257523D01*
X10875Y258361D01*
X10968Y259197D01*
X11081Y260031D01*
X11215Y260862D01*
X11369Y261690D01*
X11543Y262513D01*
X11738Y263332D01*
X11952Y264146D01*
X12187Y264954D01*
X12441Y265756D01*
X12714Y266552D01*
X13008Y267341D01*
X13320Y268122D01*
X13652Y268896D01*
X14002Y269661D01*
X14371Y270417D01*
X14759Y271164D01*
X15165Y271901D01*
X15588Y272629D01*
X16030Y273345D01*
X16489Y274051D01*
X16965Y274744D01*
X17458Y275427D01*
X17968Y276096D01*
X18493Y276753D01*
X19035Y277397D01*
X19593Y278028D01*
X20166Y278644D01*
X20753Y279247D01*
X21356Y279834D01*
X21972Y280407D01*
X22603Y280965D01*
X23247Y281507D01*
X23904Y282032D01*
X24573Y282542D01*
X25256Y283035D01*
X25949Y283511D01*
X26655Y283970D01*
X27371Y284412D01*
X28099Y284835D01*
X28836Y285241D01*
X29583Y285629D01*
X30339Y285998D01*
X31104Y286348D01*
X31878Y286680D01*
X32659Y286992D01*
X33448Y287286D01*
X34244Y287559D01*
X35046Y287813D01*
X35854Y288048D01*
X36668Y288262D01*
X37487Y288457D01*
X38310Y288631D01*
X39138Y288785D01*
X39969Y288919D01*
X40803Y289032D01*
X41639Y289125D01*
X42477Y289197D01*
X43317Y289249D01*
X44158Y289280D01*
X45000Y289290D01*
X45842Y289280D01*
X46683Y289249D01*
X47523Y289197D01*
X48361Y289125D01*
X49197Y289032D01*
X50031Y288919D01*
X50862Y288785D01*
X51690Y288631D01*
X52513Y288457D01*
X53332Y288262D01*
X54146Y288048D01*
X54954Y287813D01*
X55756Y287559D01*
X56552Y287286D01*
X57341Y286992D01*
X58122Y286680D01*
X58896Y286348D01*
X59661Y285998D01*
X60417Y285629D01*
X61164Y285241D01*
X61901Y284835D01*
X62629Y284412D01*
X63345Y283970D01*
X64051Y283511D01*
X64744Y283035D01*
X65427Y282542D01*
X66096Y282032D01*
X66753Y281507D01*
X67397Y280965D01*
X68028Y280407D01*
X68644Y279834D01*
X69247Y279247D01*
X69834Y278644D01*
X70407Y278028D01*
X70965Y277397D01*
X71507Y276753D01*
X72032Y276096D01*
X72542Y275427D01*
X73035Y274744D01*
X73511Y274051D01*
X73970Y273345D01*
X74412Y272629D01*
X74835Y271901D01*
X75241Y271164D01*
X75629Y270417D01*
X75998Y269661D01*
X76348Y268896D01*
X76680Y268122D01*
X76992Y267341D01*
X77286Y266552D01*
X77559Y265756D01*
X77813Y264954D01*
X78048Y264146D01*
X78262Y263332D01*
X78457Y262513D01*
X78631Y261690D01*
X78785Y260862D01*
X78919Y260031D01*
X79032Y259197D01*
X79125Y258361D01*
X79197Y257523D01*
X79249Y256683D01*
X79280Y255842D01*
X79290Y255000D01*
X79280Y254158D01*
X79249Y253317D01*
X79197Y252477D01*
X79125Y251639D01*
X79032Y250803D01*
X78919Y249969D01*
X78785Y249138D01*
X78631Y248310D01*
X78457Y247487D01*
X78262Y246668D01*
X78048Y245854D01*
X77813Y245046D01*
X77559Y244244D01*
X77286Y243448D01*
X76992Y242659D01*
X76680Y241878D01*
X76348Y241104D01*
X75998Y240339D01*
X75629Y239583D01*
X75241Y238836D01*
X74835Y238099D01*
X74412Y237371D01*
X73970Y236655D01*
X73511Y235949D01*
X73035Y235256D01*
X72542Y234573D01*
X72032Y233904D01*
X71507Y233247D01*
X70965Y232603D01*
X70407Y231972D01*
X69834Y231356D01*
X69247Y230753D01*
X68644Y230166D01*
X68028Y229593D01*
X67397Y229035D01*
X66753Y228493D01*
X66096Y227968D01*
X65427Y227458D01*
X64744Y226965D01*
X64051Y226489D01*
X63345Y226030D01*
X62629Y225588D01*
X61901Y225165D01*
X61164Y224759D01*
X60417Y224371D01*
X59661Y224002D01*
X58896Y223652D01*
X58122Y223320D01*
X57341Y223008D01*
X56552Y222714D01*
X55756Y222441D01*
X54954Y222187D01*
X54146Y221952D01*
X53332Y221738D01*
X52513Y221543D01*
X51690Y221369D01*
X50862Y221215D01*
X50031Y221081D01*
X49197Y220968D01*
X48361Y220875D01*
X47523Y220803D01*
X46683Y220751D01*
X45842Y220720D01*
X45000Y220710D01*
X44158Y220720D01*
X43317Y220751D01*
X42477Y220803D01*
X41639Y220875D01*
X40803Y220968D01*
X39969Y221081D01*
X39138Y221215D01*
X38310Y221369D01*
X37487Y221543D01*
X36668Y221738D01*
X35854Y221952D01*
X35046Y222187D01*
X34244Y222441D01*
X33448Y222714D01*
X32659Y223008D01*
X31878Y223320D01*
X31104Y223652D01*
X30339Y224002D01*
X29583Y224371D01*
X28836Y224759D01*
X28099Y225165D01*
X27371Y225588D01*
X26655Y226030D01*
X25949Y226489D01*
X25256Y226965D01*
X24573Y227458D01*
X23904Y227968D01*
X23247Y228493D01*
X22603Y229035D01*
X21972Y229593D01*
X21356Y230166D01*
X20753Y230753D01*
X20166Y231356D01*
X19593Y231972D01*
X19035Y232603D01*
X18493Y233247D01*
X17968Y233904D01*
X17458Y234573D01*
X16965Y235256D01*
X16489Y235949D01*
X16030Y236655D01*
X15588Y237371D01*
X15165Y238099D01*
X14759Y238836D01*
X14371Y239583D01*
X14002Y240339D01*
X13652Y241104D01*
X13320Y241878D01*
X13008Y242659D01*
X12714Y243448D01*
X12441Y244244D01*
X12187Y245046D01*
X11952Y245854D01*
X11738Y246668D01*
X11543Y247487D01*
X11369Y248310D01*
X11215Y249138D01*
X11081Y249969D01*
X10968Y250803D01*
X10875Y251639D01*
X10803Y252477D01*
X10751Y253317D01*
X10720Y254158D01*
X10710Y255000D01*
D10*
X29000Y255000D02*
X29005Y255393D01*
X29019Y255785D01*
X29043Y256177D01*
X29077Y256568D01*
X29120Y256959D01*
X29173Y257348D01*
X29236Y257735D01*
X29307Y258121D01*
X29389Y258506D01*
X29479Y258888D01*
X29580Y259267D01*
X29689Y259645D01*
X29808Y260019D01*
X29935Y260390D01*
X30072Y260758D01*
X30218Y261123D01*
X30373Y261484D01*
X30536Y261841D01*
X30708Y262194D01*
X30889Y262542D01*
X31079Y262886D01*
X31276Y263226D01*
X31482Y263560D01*
X31696Y263889D01*
X31919Y264213D01*
X32149Y264531D01*
X32386Y264844D01*
X32632Y265150D01*
X32885Y265451D01*
X33145Y265745D01*
X33412Y266033D01*
X33686Y266314D01*
X33967Y266588D01*
X34255Y266855D01*
X34549Y267115D01*
X34850Y267368D01*
X35156Y267614D01*
X35469Y267851D01*
X35787Y268081D01*
X36111Y268304D01*
X36440Y268518D01*
X36774Y268724D01*
X37114Y268921D01*
X37458Y269111D01*
X37806Y269292D01*
X38159Y269464D01*
X38516Y269627D01*
X38877Y269782D01*
X39242Y269928D01*
X39610Y270065D01*
X39981Y270192D01*
X40355Y270311D01*
X40733Y270420D01*
X41112Y270521D01*
X41494Y270611D01*
X41879Y270693D01*
X42265Y270764D01*
X42652Y270827D01*
X43041Y270880D01*
X43432Y270923D01*
X43823Y270957D01*
X44215Y270981D01*
X44607Y270995D01*
X45000Y271000D01*
X45393Y270995D01*
X45785Y270981D01*
X46177Y270957D01*
X46568Y270923D01*
X46959Y270880D01*
X47348Y270827D01*
X47735Y270764D01*
X48121Y270693D01*
X48506Y270611D01*
X48888Y270521D01*
X49267Y270420D01*
X49645Y270311D01*
X50019Y270192D01*
X50390Y270065D01*
X50758Y269928D01*
X51123Y269782D01*
X51484Y269627D01*
X51841Y269464D01*
X52194Y269292D01*
X52542Y269111D01*
X52886Y268921D01*
X53226Y268724D01*
X53560Y268518D01*
X53889Y268304D01*
X54213Y268081D01*
X54531Y267851D01*
X54844Y267614D01*
X55150Y267368D01*
X55451Y267115D01*
X55745Y266855D01*
X56033Y266588D01*
X56314Y266314D01*
X56588Y266033D01*
X56855Y265745D01*
X57115Y265451D01*
X57368Y265150D01*
X57614Y264844D01*
X57851Y264531D01*
X58081Y264213D01*
X58304Y263889D01*
X58518Y263560D01*
X58724Y263226D01*
X58921Y262886D01*
X59111Y262542D01*
X59292Y262194D01*
X59464Y261841D01*
X59627Y261484D01*
X59782Y261123D01*
X59928Y260758D01*
X60065Y260390D01*
X60192Y260019D01*
X60311Y259645D01*
X60420Y259267D01*
X60521Y258888D01*
X60611Y258506D01*
X60693Y258121D01*
X60764Y257735D01*
X60827Y257348D01*
X60880Y256959D01*
X60923Y256568D01*
X60957Y256177D01*
X60981Y255785D01*
X60995Y255393D01*
X61000Y255000D01*
X60995Y254607D01*
X60981Y254215D01*
X60957Y253823D01*
X60923Y253432D01*
X60880Y253041D01*
X60827Y252652D01*
X60764Y252265D01*
X60693Y251879D01*
X60611Y251494D01*
X60521Y251112D01*
X60420Y250733D01*
X60311Y250355D01*
X60192Y249981D01*
X60065Y249610D01*
X59928Y249242D01*
X59782Y248877D01*
X59627Y248516D01*
X59464Y248159D01*
X59292Y247806D01*
X59111Y247458D01*
X58921Y247114D01*
X58724Y246774D01*
X58518Y246440D01*
X58304Y246111D01*
X58081Y245787D01*
X57851Y245469D01*
X57614Y245156D01*
X57368Y244850D01*
X57115Y244549D01*
X56855Y244255D01*
X56588Y243967D01*
X56314Y243686D01*
X56033Y243412D01*
X55745Y243145D01*
X55451Y242885D01*
X55150Y242632D01*
X54844Y242386D01*
X54531Y242149D01*
X54213Y241919D01*
X53889Y241696D01*
X53560Y241482D01*
X53226Y241276D01*
X52886Y241079D01*
X52542Y240889D01*
X52194Y240708D01*
X51841Y240536D01*
X51484Y240373D01*
X51123Y240218D01*
X50758Y240072D01*
X50390Y239935D01*
X50019Y239808D01*
X49645Y239689D01*
X49267Y239580D01*
X48888Y239479D01*
X48506Y239389D01*
X48121Y239307D01*
X47735Y239236D01*
X47348Y239173D01*
X46959Y239120D01*
X46568Y239077D01*
X46177Y239043D01*
X45785Y239019D01*
X45393Y239005D01*
X45000Y239000D01*
X44607Y239005D01*
X44215Y239019D01*
X43823Y239043D01*
X43432Y239077D01*
X43041Y239120D01*
X42652Y239173D01*
X42265Y239236D01*
X41879Y239307D01*
X41494Y239389D01*
X41112Y239479D01*
X40733Y239580D01*
X40355Y239689D01*
X39981Y239808D01*
X39610Y239935D01*
X39242Y240072D01*
X38877Y240218D01*
X38516Y240373D01*
X38159Y240536D01*
X37806Y240708D01*
X37458Y240889D01*
X37114Y241079D01*
X36774Y241276D01*
X36440Y241482D01*
X36111Y241696D01*
X35787Y241919D01*
X35469Y242149D01*
X35156Y242386D01*
X34850Y242632D01*
X34549Y242885D01*
X34255Y243145D01*
X33967Y243412D01*
X33686Y243686D01*
X33412Y243967D01*
X33145Y244255D01*
X32885Y244549D01*
X32632Y244850D01*
X32386Y245156D01*
X32149Y245469D01*
X31919Y245787D01*
X31696Y246111D01*
X31482Y246440D01*
X31276Y246774D01*
X31079Y247114D01*
X30889Y247458D01*
X30708Y247806D01*
X30536Y248159D01*
X30373Y248516D01*
X30218Y248877D01*
X30072Y249242D01*
X29935Y249610D01*
X29808Y249981D01*
X29689Y250355D01*
X29580Y250733D01*
X29479Y251112D01*
X29389Y251494D01*
X29307Y251879D01*
X29236Y252265D01*
X29173Y252652D01*
X29120Y253041D01*
X29077Y253432D01*
X29043Y253823D01*
X29019Y254215D01*
X29005Y254607D01*
X29000Y255000D01*
D11*
X120710Y255000D02*
X120720Y255842D01*
X120751Y256683D01*
X120803Y257523D01*
X120875Y258361D01*
X120968Y259197D01*
X121081Y260031D01*
X121215Y260862D01*
X121369Y261690D01*
X121543Y262513D01*
X121738Y263332D01*
X121952Y264146D01*
X122187Y264954D01*
X122441Y265756D01*
X122714Y266552D01*
X123008Y267341D01*
X123320Y268122D01*
X123652Y268896D01*
X124002Y269661D01*
X124371Y270417D01*
X124759Y271164D01*
X125165Y271901D01*
X125588Y272629D01*
X126030Y273345D01*
X126489Y274051D01*
X126965Y274744D01*
X127458Y275427D01*
X127968Y276096D01*
X128493Y276753D01*
X129035Y277397D01*
X129593Y278028D01*
X130166Y278644D01*
X130753Y279247D01*
X131356Y279834D01*
X131972Y280407D01*
X132603Y280965D01*
X133247Y281507D01*
X133904Y282032D01*
X134573Y282542D01*
X135256Y283035D01*
X135949Y283511D01*
X136655Y283970D01*
X137371Y284412D01*
X138099Y284835D01*
X138836Y285241D01*
X139583Y285629D01*
X140339Y285998D01*
X141104Y286348D01*
X141878Y286680D01*
X142659Y286992D01*
X143448Y287286D01*
X144244Y287559D01*
X145046Y287813D01*
X145854Y288048D01*
X146668Y288262D01*
X147487Y288457D01*
X148310Y288631D01*
X149138Y288785D01*
X149969Y288919D01*
X150803Y289032D01*
X151639Y289125D01*
X152477Y289197D01*
X153317Y289249D01*
X154158Y289280D01*
X155000Y289290D01*
X155842Y289280D01*
X156683Y289249D01*
X157523Y289197D01*
X158361Y289125D01*
X159197Y289032D01*
X160031Y288919D01*
X160862Y288785D01*
X161690Y288631D01*
X162513Y288457D01*
X163332Y288262D01*
X164146Y288048D01*
X164954Y287813D01*
X165756Y287559D01*
X166552Y287286D01*
X167341Y286992D01*
X168122Y286680D01*
X168896Y286348D01*
X169661Y285998D01*
X170417Y285629D01*
X171164Y285241D01*
X171901Y284835D01*
X172629Y284412D01*
X173345Y283970D01*
X174051Y283511D01*
X174744Y283035D01*
X175427Y282542D01*
X176096Y282032D01*
X176753Y281507D01*
X177397Y280965D01*
X178028Y280407D01*
X178644Y279834D01*
X179247Y279247D01*
X179834Y278644D01*
X180407Y278028D01*
X180965Y277397D01*
X181507Y276753D01*
X182032Y276096D01*
X182542Y275427D01*
X183035Y274744D01*
X183511Y274051D01*
X183970Y273345D01*
X184412Y272629D01*
X184835Y271901D01*
X185241Y271164D01*
X185629Y270417D01*
X185998Y269661D01*
X186348Y268896D01*
X186680Y268122D01*
X186992Y267341D01*
X187286Y266552D01*
X187559Y265756D01*
X187813Y264954D01*
X188048Y264146D01*
X188262Y263332D01*
X188457Y262513D01*
X188631Y261690D01*
X188785Y260862D01*
X188919Y260031D01*
X189032Y259197D01*
X189125Y258361D01*
X189197Y257523D01*
X189249Y256683D01*
X189280Y255842D01*
X189290Y255000D01*
X189280Y254158D01*
X189249Y253317D01*
X189197Y252477D01*
X189125Y251639D01*
X189032Y250803D01*
X188919Y249969D01*
X188785Y249138D01*
X188631Y248310D01*
X188457Y247487D01*
X188262Y246668D01*
X188048Y245854D01*
X187813Y245046D01*
X187559Y244244D01*
X187286Y243448D01*
X186992Y242659D01*
X186680Y241878D01*
X186348Y241104D01*
X185998Y240339D01*
X185629Y239583D01*
X185241Y238836D01*
X184835Y238099D01*
X184412Y237371D01*
X183970Y236655D01*
X183511Y235949D01*
X183035Y235256D01*
X182542Y234573D01*
X182032Y233904D01*
X181507Y233247D01*
X180965Y232603D01*
X180407Y231972D01*
X179834Y231356D01*
X179247Y230753D01*
X178644Y230166D01*
X178028Y229593D01*
X177397Y229035D01*
X176753Y228493D01*
X176096Y227968D01*
X175427Y227458D01*
X174744Y226965D01*
X174051Y226489D01*
X173345Y226030D01*
X172629Y225588D01*
X171901Y225165D01*
X171164Y224759D01*
X170417Y224371D01*
X169661Y224002D01*
X168896Y223652D01*
X168122Y223320D01*
X167341Y223008D01*
X166552Y222714D01*
X165756Y222441D01*
X164954Y222187D01*
X164146Y221952D01*
X163332Y221738D01*
X162513Y221543D01*
X161690Y221369D01*
X160862Y221215D01*
X160031Y221081D01*
X159197Y220968D01*
X158361Y220875D01*
X157523Y220803D01*
X156683Y220751D01*
X155842Y220720D01*
X155000Y220710D01*
X154158Y220720D01*
X153317Y220751D01*
X152477Y220803D01*
X151639Y220875D01*
X150803Y220968D01*
X149969Y221081D01*
X149138Y221215D01*
X148310Y221369D01*
X147487Y221543D01*
X146668Y221738D01*
X145854Y221952D01*
X145046Y222187D01*
X144244Y222441D01*
X143448Y222714D01*
X142659Y223008D01*
X141878Y223320D01*
X141104Y223652D01*
X140339Y224002D01*
X139583Y224371D01*
X138836Y224759D01*
X138099Y225165D01*
X137371Y225588D01*
X136655Y226030D01*
X135949Y226489D01*
X135256Y226965D01*
X134573Y227458D01*
X133904Y227968D01*
X133247Y228493D01*
X132603Y229035D01*
X131972Y229593D01*
X131356Y230166D01*
X130753Y230753D01*
X130166Y231356D01*
X129593Y231972D01*
X129035Y232603D01*
X128493Y233247D01*
X127968Y233904D01*
X127458Y234573D01*
X126965Y235256D01*
X126489Y235949D01*
X126030Y236655D01*
X125588Y237371D01*
X125165Y238099D01*
X124759Y238836D01*
X124371Y239583D01*
X124002Y240339D01*
X123652Y241104D01*
X123320Y241878D01*
X123008Y242659D01*
X122714Y243448D01*
X122441Y244244D01*
X122187Y245046D01*
X121952Y245854D01*
X121738Y246668D01*
X121543Y247487D01*
X121369Y248310D01*
X121215Y249138D01*
X121081Y249969D01*
X120968Y250803D01*
X120875Y251639D01*
X120803Y252477D01*
X120751Y253317D01*
X120720Y254158D01*
X120710Y255000D01*
D10*
X139000Y255000D02*
X139005Y255393D01*
X139019Y255785D01*
X139043Y256177D01*
X139077Y256568D01*
X139120Y256959D01*
X139173Y257348D01*
X139236Y257735D01*
X139307Y258121D01*
X139389Y258506D01*
X139479Y258888D01*
X139580Y259267D01*
X139689Y259645D01*
X139808Y260019D01*
X139935Y260390D01*
X140072Y260758D01*
X140218Y261123D01*
X140373Y261484D01*
X140536Y261841D01*
X140708Y262194D01*
X140889Y262542D01*
X141079Y262886D01*
X141276Y263226D01*
X141482Y263560D01*
X141696Y263889D01*
X141919Y264213D01*
X142149Y264531D01*
X142386Y264844D01*
X142632Y265150D01*
X142885Y265451D01*
X143145Y265745D01*
X143412Y266033D01*
X143686Y266314D01*
X143967Y266588D01*
X144255Y266855D01*
X144549Y267115D01*
X144850Y267368D01*
X145156Y267614D01*
X145469Y267851D01*
X145787Y268081D01*
X146111Y268304D01*
X146440Y268518D01*
X146774Y268724D01*
X147114Y268921D01*
X147458Y269111D01*
X147806Y269292D01*
X148159Y269464D01*
X148516Y269627D01*
X148877Y269782D01*
X149242Y269928D01*
X149610Y270065D01*
X149981Y270192D01*
X150355Y270311D01*
X150733Y270420D01*
X151112Y270521D01*
X151494Y270611D01*
X151879Y270693D01*
X152265Y270764D01*
X152652Y270827D01*
X153041Y270880D01*
X153432Y270923D01*
X153823Y270957D01*
X154215Y270981D01*
X154607Y270995D01*
X155000Y271000D01*
X155393Y270995D01*
X155785Y270981D01*
X156177Y270957D01*
X156568Y270923D01*
X156959Y270880D01*
X157348Y270827D01*
X157735Y270764D01*
X158121Y270693D01*
X158506Y270611D01*
X158888Y270521D01*
X159267Y270420D01*
X159645Y270311D01*
X160019Y270192D01*
X160390Y270065D01*
X160758Y269928D01*
X161123Y269782D01*
X161484Y269627D01*
X161841Y269464D01*
X162194Y269292D01*
X162542Y269111D01*
X162886Y268921D01*
X163226Y268724D01*
X163560Y268518D01*
X163889Y268304D01*
X164213Y268081D01*
X164531Y267851D01*
X164844Y267614D01*
X165150Y267368D01*
X165451Y267115D01*
X165745Y266855D01*
X166033Y266588D01*
X166314Y266314D01*
X166588Y266033D01*
X166855Y265745D01*
X167115Y265451D01*
X167368Y265150D01*
X167614Y264844D01*
X167851Y264531D01*
X168081Y264213D01*
X168304Y263889D01*
X168518Y263560D01*
X168724Y263226D01*
X168921Y262886D01*
X169111Y262542D01*
X169292Y262194D01*
X169464Y261841D01*
X169627Y261484D01*
X169782Y261123D01*
X169928Y260758D01*
X170065Y260390D01*
X170192Y260019D01*
X170311Y259645D01*
X170420Y259267D01*
X170521Y258888D01*
X170611Y258506D01*
X170693Y258121D01*
X170764Y257735D01*
X170827Y257348D01*
X170880Y256959D01*
X170923Y256568D01*
X170957Y256177D01*
X170981Y255785D01*
X170995Y255393D01*
X171000Y255000D01*
X170995Y254607D01*
X170981Y254215D01*
X170957Y253823D01*
X170923Y253432D01*
X170880Y253041D01*
X170827Y252652D01*
X170764Y252265D01*
X170693Y251879D01*
X170611Y251494D01*
X170521Y251112D01*
X170420Y250733D01*
X170311Y250355D01*
X170192Y249981D01*
X170065Y249610D01*
X169928Y249242D01*
X169782Y248877D01*
X169627Y248516D01*
X169464Y248159D01*
X169292Y247806D01*
X169111Y247458D01*
X168921Y247114D01*
X168724Y246774D01*
X168518Y246440D01*
X168304Y246111D01*
X168081Y245787D01*
X167851Y245469D01*
X167614Y245156D01*
X167368Y244850D01*
X167115Y244549D01*
X166855Y244255D01*
X166588Y243967D01*
X166314Y243686D01*
X166033Y243412D01*
X165745Y243145D01*
X165451Y242885D01*
X165150Y242632D01*
X164844Y242386D01*
X164531Y242149D01*
X164213Y241919D01*
X163889Y241696D01*
X163560Y241482D01*
X163226Y241276D01*
X162886Y241079D01*
X162542Y240889D01*
X162194Y240708D01*
X161841Y240536D01*
X161484Y240373D01*
X161123Y240218D01*
X160758Y240072D01*
X160390Y239935D01*
X160019Y239808D01*
X159645Y239689D01*
X159267Y239580D01*
X158888Y239479D01*
X158506Y239389D01*
X158121Y239307D01*
X157735Y239236D01*
X157348Y239173D01*
X156959Y239120D01*
X156568Y239077D01*
X156177Y239043D01*
X155785Y239019D01*
X155393Y239005D01*
X155000Y239000D01*
X154607Y239005D01*
X154215Y239019D01*
X153823Y239043D01*
X153432Y239077D01*
X153041Y239120D01*
X152652Y239173D01*
X152265Y239236D01*
X151879Y239307D01*
X151494Y239389D01*
X151112Y239479D01*
X150733Y239580D01*
X150355Y239689D01*
X149981Y239808D01*
X149610Y239935D01*
X149242Y240072D01*
X148877Y240218D01*
X148516Y240373D01*
X148159Y240536D01*
X147806Y240708D01*
X147458Y240889D01*
X147114Y241079D01*
X146774Y241276D01*
X146440Y241482D01*
X146111Y241696D01*
X145787Y241919D01*
X145469Y242149D01*
X145156Y242386D01*
X144850Y242632D01*
X144549Y242885D01*
X144255Y243145D01*
X143967Y243412D01*
X143686Y243686D01*
X143412Y243967D01*
X143145Y244255D01*
X142885Y244549D01*
X142632Y244850D01*
X142386Y245156D01*
X142149Y245469D01*
X141919Y245787D01*
X141696Y246111D01*
X141482Y246440D01*
X141276Y246774D01*
X141079Y247114D01*
X140889Y247458D01*
X140708Y247806D01*
X140536Y248159D01*
X140373Y248516D01*
X140218Y248877D01*
X140072Y249242D01*
X139935Y249610D01*
X139808Y249981D01*
X139689Y250355D01*
X139580Y250733D01*
X139479Y251112D01*
X139389Y251494D01*
X139307Y251879D01*
X139236Y252265D01*
X139173Y252652D01*
X139120Y253041D01*
X139077Y253432D01*
X139043Y253823D01*
X139019Y254215D01*
X139005Y254607D01*
X139000Y255000D01*
D11*
X120710Y45000D02*
X120720Y45842D01*
X120751Y46683D01*
X120803Y47523D01*
X120875Y48361D01*
X120968Y49197D01*
X121081Y50031D01*
X121215Y50862D01*
X121369Y51690D01*
X121543Y52513D01*
X121738Y53332D01*
X121952Y54146D01*
X122187Y54954D01*
X122441Y55756D01*
X122714Y56552D01*
X123008Y57341D01*
X123320Y58122D01*
X123652Y58896D01*
X124002Y59661D01*
X124371Y60417D01*
X124759Y61164D01*
X125165Y61901D01*
X125588Y62629D01*
X126030Y63345D01*
X126489Y64051D01*
X126965Y64744D01*
X127458Y65427D01*
X127968Y66096D01*
X128493Y66753D01*
X129035Y67397D01*
X129593Y68028D01*
X130166Y68644D01*
X130753Y69247D01*
X131356Y69834D01*
X131972Y70407D01*
X132603Y70965D01*
X133247Y71507D01*
X133904Y72032D01*
X134573Y72542D01*
X135256Y73035D01*
X135949Y73511D01*
X136655Y73970D01*
X137371Y74412D01*
X138099Y74835D01*
X138836Y75241D01*
X139583Y75629D01*
X140339Y75998D01*
X141104Y76348D01*
X141878Y76680D01*
X142659Y76992D01*
X143448Y77286D01*
X144244Y77559D01*
X145046Y77813D01*
X145854Y78048D01*
X146668Y78262D01*
X147487Y78457D01*
X148310Y78631D01*
X149138Y78785D01*
X149969Y78919D01*
X150803Y79032D01*
X151639Y79125D01*
X152477Y79197D01*
X153317Y79249D01*
X154158Y79280D01*
X155000Y79290D01*
X155842Y79280D01*
X156683Y79249D01*
X157523Y79197D01*
X158361Y79125D01*
X159197Y79032D01*
X160031Y78919D01*
X160862Y78785D01*
X161690Y78631D01*
X162513Y78457D01*
X163332Y78262D01*
X164146Y78048D01*
X164954Y77813D01*
X165756Y77559D01*
X166552Y77286D01*
X167341Y76992D01*
X168122Y76680D01*
X168896Y76348D01*
X169661Y75998D01*
X170417Y75629D01*
X171164Y75241D01*
X171901Y74835D01*
X172629Y74412D01*
X173345Y73970D01*
X174051Y73511D01*
X174744Y73035D01*
X175427Y72542D01*
X176096Y72032D01*
X176753Y71507D01*
X177397Y70965D01*
X178028Y70407D01*
X178644Y69834D01*
X179247Y69247D01*
X179834Y68644D01*
X180407Y68028D01*
X180965Y67397D01*
X181507Y66753D01*
X182032Y66096D01*
X182542Y65427D01*
X183035Y64744D01*
X183511Y64051D01*
X183970Y63345D01*
X184412Y62629D01*
X184835Y61901D01*
X185241Y61164D01*
X185629Y60417D01*
X185998Y59661D01*
X186348Y58896D01*
X186680Y58122D01*
X186992Y57341D01*
X187286Y56552D01*
X187559Y55756D01*
X187813Y54954D01*
X188048Y54146D01*
X188262Y53332D01*
X188457Y52513D01*
X188631Y51690D01*
X188785Y50862D01*
X188919Y50031D01*
X189032Y49197D01*
X189125Y48361D01*
X189197Y47523D01*
X189249Y46683D01*
X189280Y45842D01*
X189290Y45000D01*
X189280Y44158D01*
X189249Y43317D01*
X189197Y42477D01*
X189125Y41639D01*
X189032Y40803D01*
X188919Y39969D01*
X188785Y39138D01*
X188631Y38310D01*
X188457Y37487D01*
X188262Y36668D01*
X188048Y35854D01*
X187813Y35046D01*
X187559Y34244D01*
X187286Y33448D01*
X186992Y32659D01*
X186680Y31878D01*
X186348Y31104D01*
X185998Y30339D01*
X185629Y29583D01*
X185241Y28836D01*
X184835Y28099D01*
X184412Y27371D01*
X183970Y26655D01*
X183511Y25949D01*
X183035Y25256D01*
X182542Y24573D01*
X182032Y23904D01*
X181507Y23247D01*
X180965Y22603D01*
X180407Y21972D01*
X179834Y21356D01*
X179247Y20753D01*
X178644Y20166D01*
X178028Y19593D01*
X177397Y19035D01*
X176753Y18493D01*
X176096Y17968D01*
X175427Y17458D01*
X174744Y16965D01*
X174051Y16489D01*
X173345Y16030D01*
X172629Y15588D01*
X171901Y15165D01*
X171164Y14759D01*
X170417Y14371D01*
X169661Y14002D01*
X168896Y13652D01*
X168122Y13320D01*
X167341Y13008D01*
X166552Y12714D01*
X165756Y12441D01*
X164954Y12187D01*
X164146Y11952D01*
X163332Y11738D01*
X162513Y11543D01*
X161690Y11369D01*
X160862Y11215D01*
X160031Y11081D01*
X159197Y10968D01*
X158361Y10875D01*
X157523Y10803D01*
X156683Y10751D01*
X155842Y10720D01*
X155000Y10710D01*
X154158Y10720D01*
X153317Y10751D01*
X152477Y10803D01*
X151639Y10875D01*
X150803Y10968D01*
X149969Y11081D01*
X149138Y11215D01*
X148310Y11369D01*
X147487Y11543D01*
X146668Y11738D01*
X145854Y11952D01*
X145046Y12187D01*
X144244Y12441D01*
X143448Y12714D01*
X142659Y13008D01*
X141878Y13320D01*
X141104Y13652D01*
X140339Y14002D01*
X139583Y14371D01*
X138836Y14759D01*
X138099Y15165D01*
X137371Y15588D01*
X136655Y16030D01*
X135949Y16489D01*
X135256Y16965D01*
X134573Y17458D01*
X133904Y17968D01*
X133247Y18493D01*
X132603Y19035D01*
X131972Y19593D01*
X131356Y20166D01*
X130753Y20753D01*
X130166Y21356D01*
X129593Y21972D01*
X129035Y22603D01*
X128493Y23247D01*
X127968Y23904D01*
X127458Y24573D01*
X126965Y25256D01*
X126489Y25949D01*
X126030Y26655D01*
X125588Y27371D01*
X125165Y28099D01*
X124759Y28836D01*
X124371Y29583D01*
X124002Y30339D01*
X123652Y31104D01*
X123320Y31878D01*
X123008Y32659D01*
X122714Y33448D01*
X122441Y34244D01*
X122187Y35046D01*
X121952Y35854D01*
X121738Y36668D01*
X121543Y37487D01*
X121369Y38310D01*
X121215Y39138D01*
X121081Y39969D01*
X120968Y40803D01*
X120875Y41639D01*
X120803Y42477D01*
X120751Y43317D01*
X120720Y44158D01*
X120710Y45000D01*
D10*
X139000Y45000D02*
X139005Y45393D01*
X139019Y45785D01*
X139043Y46177D01*
X139077Y46568D01*
X139120Y46959D01*
X139173Y47348D01*
X139236Y47735D01*
X139307Y48121D01*
X139389Y48506D01*
X139479Y48888D01*
X139580Y49267D01*
X139689Y49645D01*
X139808Y50019D01*
X139935Y50390D01*
X140072Y50758D01*
X140218Y51123D01*
X140373Y51484D01*
X140536Y51841D01*
X140708Y52194D01*
X140889Y52542D01*
X141079Y52886D01*
X141276Y53226D01*
X141482Y53560D01*
X141696Y53889D01*
X141919Y54213D01*
X142149Y54531D01*
X142386Y54844D01*
X142632Y55150D01*
X142885Y55451D01*
X143145Y55745D01*
X143412Y56033D01*
X143686Y56314D01*
X143967Y56588D01*
X144255Y56855D01*
X144549Y57115D01*
X144850Y57368D01*
X145156Y57614D01*
X145469Y57851D01*
X145787Y58081D01*
X146111Y58304D01*
X146440Y58518D01*
X146774Y58724D01*
X147114Y58921D01*
X147458Y59111D01*
X147806Y59292D01*
X148159Y59464D01*
X148516Y59627D01*
X148877Y59782D01*
X149242Y59928D01*
X149610Y60065D01*
X149981Y60192D01*
X150355Y60311D01*
X150733Y60420D01*
X151112Y60521D01*
X151494Y60611D01*
X151879Y60693D01*
X152265Y60764D01*
X152652Y60827D01*
X153041Y60880D01*
X153432Y60923D01*
X153823Y60957D01*
X154215Y60981D01*
X154607Y60995D01*
X155000Y61000D01*
X155393Y60995D01*
X155785Y60981D01*
X156177Y60957D01*
X156568Y60923D01*
X156959Y60880D01*
X157348Y60827D01*
X157735Y60764D01*
X158121Y60693D01*
X158506Y60611D01*
X158888Y60521D01*
X159267Y60420D01*
X159645Y60311D01*
X160019Y60192D01*
X160390Y60065D01*
X160758Y59928D01*
X161123Y59782D01*
X161484Y59627D01*
X161841Y59464D01*
X162194Y59292D01*
X162542Y59111D01*
X162886Y58921D01*
X163226Y58724D01*
X163560Y58518D01*
X163889Y58304D01*
X164213Y58081D01*
X164531Y57851D01*
X164844Y57614D01*
X165150Y57368D01*
X165451Y57115D01*
X165745Y56855D01*
X166033Y56588D01*
X166314Y56314D01*
X166588Y56033D01*
X166855Y55745D01*
X167115Y55451D01*
X167368Y55150D01*
X167614Y54844D01*
X167851Y54531D01*
X168081Y54213D01*
X168304Y53889D01*
X168518Y53560D01*
X168724Y53226D01*
X168921Y52886D01*
X169111Y52542D01*
X169292Y52194D01*
X169464Y51841D01*
X169627Y51484D01*
X169782Y51123D01*
X169928Y50758D01*
X170065Y50390D01*
X170192Y50019D01*
X170311Y49645D01*
X170420Y49267D01*
X170521Y48888D01*
X170611Y48506D01*
X170693Y48121D01*
X170764Y47735D01*
X170827Y47348D01*
X170880Y46959D01*
X170923Y46568D01*
X170957Y46177D01*
X170981Y45785D01*
X170995Y45393D01*
X171000Y45000D01*
X170995Y44607D01*
X170981Y44215D01*
X170957Y43823D01*
X170923Y43432D01*
X170880Y43041D01*
X170827Y42652D01*
X170764Y42265D01*
X170693Y41879D01*
X170611Y41494D01*
X170521Y41112D01*
X170420Y40733D01*
X170311Y40355D01*
X170192Y39981D01*
X170065Y39610D01*
X169928Y39242D01*
X169782Y38877D01*
X169627Y38516D01*
X169464Y38159D01*
X169292Y37806D01*
X169111Y37458D01*
X168921Y37114D01*
X168724Y36774D01*
X168518Y36440D01*
X168304Y36111D01*
X168081Y35787D01*
X167851Y35469D01*
X167614Y35156D01*
X167368Y34850D01*
X167115Y34549D01*
X166855Y34255D01*
X166588Y33967D01*
X166314Y33686D01*
X166033Y33412D01*
X165745Y33145D01*
X165451Y32885D01*
X165150Y32632D01*
X164844Y32386D01*
X164531Y32149D01*
X164213Y31919D01*
X163889Y31696D01*
X163560Y31482D01*
X163226Y31276D01*
X162886Y31079D01*
X162542Y30889D01*
X162194Y30708D01*
X161841Y30536D01*
X161484Y30373D01*
X161123Y30218D01*
X160758Y30072D01*
X160390Y29935D01*
X160019Y29808D01*
X159645Y29689D01*
X159267Y29580D01*
X158888Y29479D01*
X158506Y29389D01*
X158121Y29307D01*
X157735Y29236D01*
X157348Y29173D01*
X156959Y29120D01*
X156568Y29077D01*
X156177Y29043D01*
X155785Y29019D01*
X155393Y29005D01*
X155000Y29000D01*
X154607Y29005D01*
X154215Y29019D01*
X153823Y29043D01*
X153432Y29077D01*
X153041Y29120D01*
X152652Y29173D01*
X152265Y29236D01*
X151879Y29307D01*
X151494Y29389D01*
X151112Y29479D01*
X150733Y29580D01*
X150355Y29689D01*
X149981Y29808D01*
X149610Y29935D01*
X149242Y30072D01*
X148877Y30218D01*
X148516Y30373D01*
X148159Y30536D01*
X147806Y30708D01*
X147458Y30889D01*
X147114Y31079D01*
X146774Y31276D01*
X146440Y31482D01*
X146111Y31696D01*
X145787Y31919D01*
X145469Y32149D01*
X145156Y32386D01*
X144850Y32632D01*
X144549Y32885D01*
X144255Y33145D01*
X143967Y33412D01*
X143686Y33686D01*
X143412Y33967D01*
X143145Y34255D01*
X142885Y34549D01*
X142632Y34850D01*
X142386Y35156D01*
X142149Y35469D01*
X141919Y35787D01*
X141696Y36111D01*
X141482Y36440D01*
X141276Y36774D01*
X141079Y37114D01*
X140889Y37458D01*
X140708Y37806D01*
X140536Y38159D01*
X140373Y38516D01*
X140218Y38877D01*
X140072Y39242D01*
X139935Y39610D01*
X139808Y39981D01*
X139689Y40355D01*
X139580Y40733D01*
X139479Y41112D01*
X139389Y41494D01*
X139307Y41879D01*
X139236Y42265D01*
X139173Y42652D01*
X139120Y43041D01*
X139077Y43432D01*
X139043Y43823D01*
X139019Y44215D01*
X139005Y44607D01*
X139000Y45000D01*
M02*
